<?xml version="1.0" encoding="iso-8859-1"?>
<!-- Generator: Adobe Illustrator 27.6.1, SVG Export Plug-In . SVG Version: 6.00 Build 0)  -->
<svg version="1.1" xmlns="http://www.w3.org/2000/svg" xmlns:xlink="http://www.w3.org/1999/xlink" x="0px" y="0px"
	 viewBox="0 0 1052.509 269.583" style="enable-background:new 0 0 1052.509 269.583;" xml:space="preserve">
<g id="Layer_2">
</g>
<g id="Layer_1">
	<g>
		<g>
			<path style="fill:#143959;" d="M284.721,182.902v-65.87h-12.122v-10.243h37.962v10.243h-11.934v65.87H284.721z"/>
			<path style="fill:#143959;" d="M316.856,182.902v-76.113h12.78v26.969c1.879-1.879,3.931-3.351,6.155-4.417
				c2.223-1.065,4.651-1.597,7.282-1.597c2.192,0,3.947,0.549,5.263,1.644c1.315,1.097,2.286,2.553,2.913,4.37
				c0.625,1.818,0.939,3.79,0.939,5.92v43.224h-12.779v-40.688c0-1.628-0.252-2.881-0.752-3.758
				c-0.503-0.877-1.473-1.316-2.913-1.316c-0.878,0-1.865,0.251-2.96,0.752c-1.097,0.502-2.147,1.16-3.148,1.973v43.037H316.856z"/>
			<path style="fill:#143959;" d="M378.028,183.747c-4.073,0-7.392-0.768-9.96-2.301c-2.569-1.535-4.464-3.79-5.685-6.767
				c-1.222-2.973-1.832-6.56-1.832-10.758v-16.35c0-4.324,0.61-7.955,1.832-10.9c1.222-2.944,3.132-5.169,5.732-6.672
				c2.598-1.504,5.903-2.255,9.913-2.255c4.323,0,7.69,0.815,10.101,2.443c2.411,1.629,4.134,3.993,5.168,7.094
				c1.034,3.1,1.551,6.876,1.551,11.323v7.704h-21.613v10.712c0,1.755,0.172,3.196,0.517,4.324c0.344,1.128,0.893,1.941,1.645,2.443
				c0.751,0.502,1.659,0.751,2.725,0.751c1.128,0,2.035-0.266,2.725-0.799c0.689-0.532,1.189-1.316,1.504-2.349
				c0.313-1.033,0.47-2.333,0.47-3.899v-4.51h11.934v3.665c0,5.512-1.378,9.742-4.134,12.685
				C387.861,182.276,383.666,183.747,378.028,183.747z M373.235,150.014h9.585v-5.169c0-1.879-0.157-3.397-0.47-4.557
				c-0.314-1.159-0.815-2.004-1.504-2.537c-0.69-0.532-1.66-0.799-2.913-0.799c-1.128,0-2.036,0.282-2.725,0.846
				c-0.69,0.564-1.191,1.503-1.504,2.819c-0.314,1.315-0.47,3.195-0.47,5.638V150.014z"/>
			<path style="fill:#143959;" d="M427.172,182.902v-76.113h22.365c4.572,0,8.284,0.846,11.135,2.537
				c2.85,1.691,4.948,4.15,6.295,7.376c1.347,3.227,2.021,7.127,2.021,11.699c0,4.949-0.846,8.942-2.537,11.98
				c-1.691,3.039-4.056,5.248-7.094,6.625c-3.039,1.378-6.625,2.067-10.759,2.067h-7.517v33.829H427.172z M441.079,139.301h5.262
				c2.505,0,4.464-0.359,5.873-1.08c1.41-0.719,2.38-1.879,2.913-3.477c0.532-1.597,0.799-3.742,0.799-6.437
				c0-2.756-0.204-4.995-0.611-6.719c-0.408-1.722-1.284-2.99-2.631-3.805c-1.347-0.814-3.462-1.222-6.342-1.222h-5.262V139.301z"/>
			<path style="fill:#143959;" d="M485.619,183.747c-2.443,0-4.542-0.642-6.295-1.926c-1.755-1.283-3.101-2.912-4.041-4.885
				c-0.939-1.974-1.409-4.025-1.409-6.156c0-3.383,0.626-6.232,1.879-8.551c1.252-2.316,2.913-4.259,4.98-5.826
				c2.068-1.565,4.417-2.927,7.047-4.087c2.631-1.159,5.293-2.207,7.988-3.148v-4.698c0-1.565-0.11-2.881-0.329-3.946
				c-0.22-1.064-0.627-1.879-1.222-2.443c-0.597-0.564-1.52-0.845-2.773-0.845c-1.066,0-1.926,0.251-2.584,0.752
				c-0.658,0.502-1.128,1.207-1.41,2.114c-0.282,0.909-0.455,1.959-0.517,3.147l-0.188,3.29l-12.121-0.47
				c0.187-6.263,1.738-10.884,4.651-13.86c2.913-2.975,7.344-4.463,13.296-4.463c5.45,0,9.411,1.503,11.887,4.51
				c2.475,3.007,3.712,7.08,3.712,12.215v25.089c0,2.006,0.047,3.822,0.141,5.451c0.094,1.629,0.219,3.1,0.376,4.416
				c0.156,1.316,0.297,2.475,0.423,3.477h-11.464c-0.188-1.253-0.423-2.678-0.705-4.276c-0.281-1.598-0.486-2.772-0.611-3.523
				c-0.626,2.192-1.818,4.182-3.571,5.966C491.006,182.856,488.626,183.747,485.619,183.747z M490.317,174.256
				c0.814,0,1.581-0.201,2.302-0.611c0.72-0.406,1.363-0.891,1.927-1.456s0.971-1.065,1.222-1.504v-15.128
				c-1.378,0.816-2.678,1.629-3.899,2.443c-1.222,0.816-2.288,1.707-3.195,2.678c-0.909,0.972-1.597,2.021-2.068,3.148
				c-0.47,1.128-0.704,2.443-0.704,3.947c0,2.006,0.39,3.587,1.175,4.744C487.858,173.679,488.939,174.256,490.317,174.256z"/>
			<path style="fill:#143959;" d="M532.32,183.747c-4.574,0-8.333-1.222-11.276-3.665c-2.945-2.443-5.043-6.014-6.295-10.712
				l9.491-3.665c0.751,2.947,1.752,5.202,3.007,6.767c1.252,1.567,2.88,2.349,4.886,2.349c1.504,0,2.631-0.376,3.383-1.128
				c0.751-0.753,1.128-1.786,1.128-3.102c0-1.502-0.456-2.866-1.363-4.087c-0.909-1.222-2.459-2.739-4.651-4.556l-6.578-5.545
				c-2.381-2.067-4.308-4.182-5.779-6.342c-1.473-2.161-2.209-4.87-2.209-8.129c0-2.943,0.673-5.464,2.021-7.563
				c1.346-2.098,3.195-3.727,5.544-4.886c2.349-1.159,4.964-1.738,7.846-1.738c4.385,0,7.908,1.301,10.572,3.899
				c2.662,2.6,4.369,5.999,5.121,10.196l-8.363,3.571c-0.314-1.504-0.768-2.897-1.363-4.182c-0.596-1.284-1.362-2.333-2.302-3.149
				c-0.939-0.813-2.036-1.222-3.288-1.222c-1.316,0-2.366,0.409-3.148,1.222c-0.784,0.816-1.175,1.849-1.175,3.101
				c0,1.066,0.454,2.161,1.363,3.288c0.907,1.128,2.208,2.413,3.899,3.853l6.672,6.014c1.44,1.255,2.819,2.6,4.135,4.041
				c1.316,1.441,2.411,3.054,3.288,4.839c0.877,1.786,1.316,3.838,1.316,6.154c0,3.133-0.705,5.765-2.114,7.894
				c-1.41,2.13-3.321,3.744-5.732,4.839C537.942,183.199,535.263,183.747,532.32,183.747z"/>
			<path style="fill:#143959;" d="M569.906,183.747c-4.574,0-8.333-1.222-11.276-3.665c-2.945-2.443-5.043-6.014-6.295-10.712
				l9.491-3.665c0.751,2.947,1.752,5.202,3.007,6.767c1.252,1.567,2.88,2.349,4.886,2.349c1.504,0,2.631-0.376,3.383-1.128
				c0.751-0.753,1.128-1.786,1.128-3.102c0-1.502-0.456-2.866-1.363-4.087c-0.909-1.222-2.459-2.739-4.651-4.556l-6.578-5.545
				c-2.381-2.067-4.308-4.182-5.779-6.342c-1.473-2.161-2.209-4.87-2.209-8.129c0-2.943,0.673-5.464,2.021-7.563
				c1.346-2.098,3.195-3.727,5.544-4.886c2.349-1.159,4.964-1.738,7.846-1.738c4.385,0,7.908,1.301,10.572,3.899
				c2.662,2.6,4.369,5.999,5.121,10.196l-8.363,3.571c-0.314-1.504-0.768-2.897-1.363-4.182c-0.596-1.284-1.362-2.333-2.302-3.149
				c-0.939-0.813-2.036-1.222-3.288-1.222c-1.316,0-2.366,0.409-3.148,1.222c-0.784,0.816-1.175,1.849-1.175,3.101
				c0,1.066,0.454,2.161,1.363,3.288c0.907,1.128,2.208,2.413,3.899,3.853l6.672,6.014c1.44,1.255,2.819,2.6,4.135,4.041
				c1.316,1.441,2.411,3.054,3.288,4.839c0.877,1.786,1.316,3.838,1.316,6.154c0,3.133-0.705,5.765-2.114,7.894
				c-1.41,2.13-3.321,3.744-5.732,4.839C575.528,183.199,572.849,183.747,569.906,183.747z"/>
			<path style="fill:#143959;" d="M593.115,119.944v-10.618h12.78v10.618H593.115z M593.115,182.902v-54.313h12.78v54.313H593.115z"
				/>
			<path style="fill:#143959;" d="M632.485,183.747c-3.946,0-7.204-0.736-9.772-2.207c-2.57-1.473-4.496-3.619-5.78-6.437
				c-1.284-2.82-1.926-6.233-1.926-10.243v-18.23c0-4.008,0.641-7.423,1.926-10.242c1.284-2.819,3.21-4.964,5.78-6.437
				c2.568-1.471,5.826-2.208,9.772-2.208s7.219,0.737,9.82,2.208c2.598,1.473,4.541,3.618,5.826,6.437
				c1.283,2.819,1.927,6.233,1.927,10.242v18.23c0,4.01-0.644,7.424-1.927,10.243c-1.285,2.818-3.227,4.964-5.826,6.437
				C639.704,183.011,636.431,183.747,632.485,183.747z M632.579,174.915c1.44,0,2.505-0.408,3.195-1.222
				c0.688-0.814,1.128-1.927,1.315-3.336c0.188-1.41,0.282-2.96,0.282-4.652v-19.92c0-1.69-0.094-3.226-0.282-4.604
				c-0.187-1.377-0.626-2.49-1.315-3.335c-0.69-0.846-1.755-1.269-3.195-1.269c-1.442,0-2.506,0.423-3.195,1.269
				c-0.69,0.845-1.143,1.959-1.362,3.335c-0.22,1.378-0.329,2.914-0.329,4.604v19.92c0,1.692,0.109,3.242,0.329,4.652
				c0.219,1.41,0.672,2.522,1.362,3.336C630.073,174.507,631.137,174.915,632.579,174.915z"/>
			<path style="fill:#143959;" d="M658.795,182.902v-54.313h12.779v5.45c1.941-1.879,3.994-3.397,6.155-4.557
				c2.161-1.159,4.494-1.738,7-1.738c2.255,0,4.04,0.549,5.356,1.644c1.316,1.097,2.286,2.553,2.913,4.37
				c0.626,1.818,0.94,3.79,0.94,5.92v43.224h-12.78v-40.688c0-1.628-0.251-2.881-0.752-3.758c-0.502-0.877-1.473-1.316-2.913-1.316
				c-0.877,0-1.832,0.251-2.866,0.752c-1.033,0.502-2.053,1.128-3.054,1.879v43.13H658.795z"/>
			<path style="fill:#143959;" d="M747.498,183.935c-5.576,0-9.946-1.094-13.108-3.288c-3.164-2.192-5.373-5.184-6.625-8.974
				c-1.254-3.79-1.879-8.158-1.879-13.109v-27.155c0-5.199,0.626-9.709,1.879-13.532c1.252-3.82,3.461-6.765,6.625-8.833
				c3.162-2.067,7.532-3.101,13.108-3.101c5.262,0,9.381,0.893,12.356,2.678c2.975,1.785,5.089,4.338,6.342,7.658
				c1.253,3.321,1.879,7.174,1.879,11.558v6.389h-13.343v-6.578c0-2.129-0.111-4.072-0.329-5.826
				c-0.22-1.753-0.815-3.148-1.785-4.182c-0.971-1.034-2.647-1.551-5.027-1.551c-2.381,0-4.12,0.55-5.215,1.645
				c-1.097,1.096-1.802,2.569-2.115,4.416c-0.315,1.849-0.47,3.932-0.47,6.249v33.076c0,2.757,0.219,5.027,0.658,6.813
				c0.437,1.785,1.236,3.133,2.396,4.04c1.158,0.91,2.74,1.364,4.745,1.364c2.317,0,3.961-0.548,4.933-1.644
				c0.971-1.096,1.581-2.552,1.832-4.37c0.25-1.816,0.376-3.853,0.376-6.108v-6.859h13.343v6.108c0,4.51-0.596,8.503-1.785,11.98
				c-1.19,3.477-3.274,6.202-6.248,8.175C757.067,182.948,752.885,183.935,747.498,183.935z"/>
			<path style="fill:#143959;" d="M793.353,183.747c-3.946,0-7.204-0.736-9.772-2.207c-2.569-1.473-4.496-3.619-5.779-6.437
				c-1.284-2.82-1.926-6.233-1.926-10.243v-18.23c0-4.008,0.641-7.423,1.926-10.242c1.284-2.819,3.21-4.964,5.779-6.437
				c2.568-1.471,5.826-2.208,9.772-2.208s7.219,0.737,9.82,2.208c2.598,1.473,4.541,3.618,5.826,6.437
				c1.283,2.819,1.927,6.233,1.927,10.242v18.23c0,4.01-0.644,7.424-1.927,10.243c-1.285,2.818-3.227,4.964-5.826,6.437
				C800.572,183.011,797.3,183.747,793.353,183.747z M793.447,174.915c1.44,0,2.505-0.408,3.195-1.222
				c0.688-0.814,1.128-1.927,1.315-3.336c0.188-1.41,0.282-2.96,0.282-4.652v-19.92c0-1.69-0.094-3.226-0.282-4.604
				c-0.187-1.377-0.627-2.49-1.315-3.335c-0.69-0.846-1.755-1.269-3.195-1.269c-1.442,0-2.506,0.423-3.195,1.269
				c-0.69,0.845-1.143,1.959-1.362,3.335c-0.22,1.378-0.329,2.914-0.329,4.604v19.92c0,1.692,0.109,3.242,0.329,4.652
				c0.219,1.41,0.672,2.522,1.362,3.336C790.941,174.507,792.005,174.915,793.447,174.915z"/>
			<path style="fill:#143959;" d="M819.662,182.902v-54.313h12.309v4.698c1.879-2.004,3.914-3.46,6.108-4.369
				c2.192-0.908,4.416-1.363,6.672-1.363c2.129,0,3.993,0.533,5.591,1.597c1.598,1.066,2.773,2.758,3.524,5.075
				c2.068-2.38,4.26-4.087,6.578-5.122c2.317-1.033,4.698-1.55,7.141-1.55c1.941,0,3.665,0.486,5.169,1.457
				c1.503,0.972,2.693,2.412,3.57,4.322c0.877,1.912,1.316,4.308,1.316,7.189v42.379h-12.215v-41.251
				c0-2.068-0.345-3.492-1.033-4.276c-0.69-0.783-1.661-1.175-2.914-1.175c-1.002,0-2.114,0.281-3.335,0.845
				c-1.222,0.564-2.334,1.348-3.336,2.349c0,0.188,0,0.362,0,0.517c0,0.158,0,0.362,0,0.611v42.379h-12.122v-41.251
				c0-2.068-0.362-3.492-1.081-4.276c-0.721-0.783-1.708-1.175-2.96-1.175c-1.003,0-2.1,0.281-3.289,0.845
				c-1.19,0.564-2.318,1.348-3.383,2.349v43.507H819.662z"/>
			<path style="fill:#143959;" d="M887.129,200.755v-72.166h12.779v4.134c1.565-1.503,3.289-2.708,5.169-3.618
				c1.879-0.907,3.852-1.362,5.92-1.362c2.443,0,4.447,0.564,6.014,1.691c1.565,1.128,2.787,2.617,3.664,4.463
				c0.877,1.849,1.487,3.822,1.832,5.92c0.344,2.101,0.517,4.12,0.517,6.061v18.418c0,3.571-0.423,6.828-1.268,9.771
				c-0.846,2.947-2.194,5.296-4.041,7.049c-1.848,1.753-4.308,2.63-7.376,2.63c-1.943,0-3.775-0.469-5.497-1.41
				c-1.723-0.939-3.368-2.128-4.933-3.571v21.989H887.129z M905.546,174.821c1.377,0,2.396-0.454,3.054-1.364
				c0.658-0.906,1.095-2.128,1.315-3.663c0.22-1.535,0.329-3.211,0.329-5.028v-19.45c0-1.692-0.126-3.209-0.376-4.558
				c-0.252-1.346-0.721-2.427-1.41-3.242c-0.69-0.813-1.691-1.222-3.007-1.222c-1.003,0-1.989,0.235-2.96,0.705
				c-0.972,0.47-1.832,1.019-2.584,1.644v34.297c0.814,0.565,1.691,1.02,2.631,1.364
				C903.479,174.649,904.48,174.821,905.546,174.821z"/>
			<path style="fill:#143959;" d="M942.381,183.747c-2.443,0-4.542-0.642-6.295-1.926c-1.755-1.283-3.101-2.912-4.041-4.885
				c-0.939-1.974-1.409-4.025-1.409-6.156c0-3.383,0.626-6.232,1.879-8.551c1.252-2.316,2.913-4.259,4.98-5.826
				c2.068-1.565,4.417-2.927,7.047-4.087c2.631-1.159,5.293-2.207,7.988-3.148v-4.698c0-1.565-0.11-2.881-0.329-3.946
				c-0.22-1.064-0.627-1.879-1.222-2.443c-0.597-0.564-1.52-0.845-2.773-0.845c-1.066,0-1.926,0.251-2.584,0.752
				c-0.658,0.502-1.128,1.207-1.41,2.114c-0.282,0.909-0.455,1.959-0.517,3.147l-0.188,3.29l-12.121-0.47
				c0.187-6.263,1.738-10.884,4.651-13.86c2.913-2.975,7.344-4.463,13.296-4.463c5.45,0,9.411,1.503,11.887,4.51
				c2.475,3.007,3.712,7.08,3.712,12.215v25.089c0,2.006,0.047,3.822,0.141,5.451c0.094,1.629,0.219,3.1,0.376,4.416
				c0.156,1.316,0.297,2.475,0.423,3.477h-11.464c-0.188-1.253-0.423-2.678-0.705-4.276c-0.281-1.598-0.486-2.772-0.611-3.523
				c-0.626,2.192-1.818,4.182-3.571,5.966C947.768,182.856,945.388,183.747,942.381,183.747z M947.079,174.256
				c0.814,0,1.581-0.201,2.302-0.611c0.72-0.406,1.363-0.891,1.927-1.456c0.564-0.565,0.971-1.065,1.222-1.504v-15.128
				c-1.378,0.816-2.678,1.629-3.899,2.443c-1.222,0.816-2.288,1.707-3.195,2.678c-0.909,0.972-1.597,2.021-2.068,3.148
				c-0.47,1.128-0.704,2.443-0.704,3.947c0,2.006,0.39,3.587,1.175,4.744C944.62,173.679,945.701,174.256,947.079,174.256z"/>
			<path style="fill:#143959;" d="M974.329,182.902v-54.313h12.779v5.45c1.941-1.879,3.994-3.397,6.155-4.557
				c2.161-1.159,4.494-1.738,7-1.738c2.255,0,4.04,0.549,5.356,1.644c1.316,1.097,2.286,2.553,2.913,4.37
				c0.626,1.818,0.94,3.79,0.94,5.92v43.224h-12.78v-40.688c0-1.628-0.251-2.881-0.752-3.758c-0.502-0.877-1.473-1.316-2.913-1.316
				c-0.877,0-1.832,0.251-2.866,0.752c-1.033,0.502-2.053,1.128-3.054,1.879v43.13H974.329z"/>
			<path style="fill:#143959;" d="M1019.245,197.655v-9.21c2.192,0,3.978-0.125,5.356-0.375c1.378-0.251,2.38-0.69,3.007-1.316
				c0.626-0.627,0.94-1.504,0.94-2.631c0-0.816-0.205-2.098-0.611-3.853c-0.409-1.753-0.863-3.665-1.363-5.732l-11.934-45.95h12.403
				l7.047,35.802l6.108-35.802h12.309l-12.685,56.474c-0.69,3.194-1.849,5.7-3.478,7.518c-1.629,1.816-3.664,3.115-6.107,3.899
				c-2.443,0.782-5.295,1.175-8.551,1.175H1019.245z"/>
		</g>
		<g>
			<linearGradient id="SVGID_1_" gradientUnits="userSpaceOnUse" x1="165.3129" y1="89.9535" x2="165.3129" y2="269.5829">
				<stop  offset="0.1474" style="stop-color:#0367A6"/>
				<stop  offset="1" style="stop-color:#143959"/>
			</linearGradient>
			<path style="fill:url(#SVGID_1_);" d="M214.481,169.289c0,50.896-37.502,93.035-86.383,100.294
				c33.163-37.721,11.786-76.086-3.147-111.355c-6.732-16.691-13.414-37.055-4.538-53.17c10.445-18.964,31.862-20.136,44.383-3.147
				c9.224,12.521,6.911,40.52-24.823,51.403c26.848,0.298,56.099-12.233,50.946-49.01
				C205.634,121.898,214.481,144.566,214.481,169.289z"/>
			
				<linearGradient id="SVGID_00000181076235714791468960000007574836422276771002_" gradientUnits="userSpaceOnUse" x1="73.9313" y1="-2.5619" x2="73.9313" y2="262.2657">
				<stop  offset="0" style="stop-color:#BF2431"/>
				<stop  offset="0.7404" style="stop-color:#F28705"/>
				<stop  offset="1" style="stop-color:#F2B705"/>
			</linearGradient>
			<path style="fill:url(#SVGID_00000181076235714791468960000007574836422276771002_);" d="M98.245,0
				C116.144,80.417,4.244,89.955,0,183.754c10.495-15.576,27.554-25.851,47.032-27.4c11.846-1.109,23.39,0.666,34.081,4.138
				c-5.633,0.153-11.177,0.488-16.581,1.299c-8.149,1.171-16.357,3.44-23.775,7.129c-5.484,2.588-10.418,6.143-14.593,10.443
				c-0.082,0.084-0.161,0.17-0.243,0.254c-0.574,0.6-1.133,1.213-1.676,1.84c-0.04,0.046-0.083,0.088-0.122,0.134
				c-0.027,0.032-0.052,0.066-0.079,0.098c-5.763,6.731-9.769,15.004-11.317,24.12c-0.008,0.045-0.016,0.089-0.024,0.134
				c-0.1,0.596-0.185,1.196-0.263,1.799c-0.036,0.272-0.072,0.544-0.104,0.817c-0.049,0.43-0.09,0.861-0.127,1.294
				c-0.04,0.45-0.075,0.9-0.103,1.35c-0.018,0.307-0.034,0.614-0.047,0.923c-0.025,0.571-0.038,1.141-0.043,1.71
				c-0.001,0.139-0.01,0.275-0.01,0.414c0,0.1,0.007,0.198,0.008,0.298c0.003,0.607,0.02,1.213,0.046,1.818
				c0.01,0.235,0.017,0.471,0.03,0.705c0.031,0.541,0.075,1.08,0.123,1.618c0.027,0.311,0.051,0.624,0.084,0.934
				c0.038,0.353,0.088,0.704,0.134,1.056c3.157,24.632,24.187,43.674,49.678,43.674c27.671,0,50.102-22.432,50.102-50.102
				c0-0.008-0.001-0.016-0.001-0.025c0.076-3.907-0.261-8.073-0.846-12.714c-1.488-10.62-6.512-22.103-9.702-32.819
				c-1.549-5.046-3.004-10.264-3.968-15.467c-3.608-18.39-2.898-38.493,5.738-55.529c5.681-11.406,14.941-21.075,26.087-27.06
				c5.605-3.087,11.884-5.24,18.342-6.35C143.049,42.608,125.479,13.837,98.245,0z"/>
		</g>
	</g>
</g>
</svg>
