<?xml version="1.0" encoding="iso-8859-1"?>
<!-- Generator: Adobe Illustrator 27.6.1, SVG Export Plug-In . SVG Version: 6.00 Build 0)  -->
<svg version="1.1" xmlns="http://www.w3.org/2000/svg" xmlns:xlink="http://www.w3.org/1999/xlink" x="0px" y="0px"
	 viewBox="0 0 496.627 624.214" style="enable-background:new 0 0 496.627 624.214;" xml:space="preserve">
<g id="Layer_2">
</g>
<g id="Layer_1">
	<g>
		<g>
			<path style="fill:#FFFFFF;" d="M496.627,391.987c0,117.85-86.835,215.421-200.018,232.228
				c76.789-87.341,27.29-176.177-7.288-257.839c-15.588-38.647-31.06-85.801-10.507-123.114
				c24.186-43.912,73.777-46.625,102.768-7.288c21.358,28.991,16.001,93.824-57.476,119.022
				c62.166,0.69,129.897-28.324,117.965-113.481C476.143,282.253,496.627,334.74,496.627,391.987z"/>
			<path style="fill:#FFFFFF;" d="M227.484,0C268.93,186.203,9.826,208.289,0,425.478c24.302-36.066,63.801-59.857,108.903-63.443
				c27.429-2.567,54.16,1.541,78.914,9.581c-13.043,0.353-25.88,1.131-38.393,3.008c-18.87,2.712-37.874,7.966-55.05,16.506
				c-12.699,5.992-24.124,14.223-33.789,24.18c-0.189,0.194-0.374,0.393-0.562,0.589c-1.329,1.388-2.622,2.809-3.882,4.262
				c-0.092,0.106-0.191,0.203-0.283,0.31c-0.063,0.075-0.119,0.152-0.182,0.227c-13.345,15.586-22.621,34.742-26.204,55.849
				c-0.018,0.103-0.038,0.207-0.055,0.31c-0.23,1.38-0.429,2.769-0.61,4.164c-0.083,0.63-0.167,1.26-0.24,1.891
				c-0.113,0.995-0.208,1.994-0.295,2.996c-0.093,1.042-0.173,2.084-0.238,3.125c-0.043,0.711-0.079,1.423-0.109,2.137
				c-0.057,1.322-0.089,2.641-0.1,3.96c-0.003,0.321-0.024,0.637-0.024,0.959c0,0.231,0.016,0.458,0.017,0.689
				c0.008,1.406,0.047,2.808,0.107,4.208c0.023,0.545,0.04,1.09,0.07,1.633c0.071,1.252,0.173,2.5,0.285,3.747
				c0.063,0.721,0.117,1.444,0.194,2.162c0.089,0.818,0.204,1.631,0.311,2.446C36.095,568.009,84.788,612.1,143.812,612.1
				c64.071,0,116.011-51.94,116.011-116.011c0-0.019-0.001-0.038-0.001-0.057c0.175-9.047-0.604-18.693-1.958-29.439
				c-3.446-24.59-15.08-51.179-22.464-75.991c-3.587-11.683-6.955-23.767-9.188-35.813c-8.354-42.583-6.71-89.131,13.287-128.577
				c13.154-26.409,34.595-48.799,60.404-62.657c12.978-7.147,27.517-12.132,42.47-14.704C331.227,98.658,290.543,32.038,227.484,0z"
				/>
		</g>
	</g>
</g>
</svg>
