<?xml version="1.0" encoding="iso-8859-1"?>
<!-- Generator: Adobe Illustrator 27.6.1, SVG Export Plug-In . SVG Version: 6.00 Build 0)  -->
<svg version="1.1" xmlns="http://www.w3.org/2000/svg" xmlns:xlink="http://www.w3.org/1999/xlink" x="0px" y="0px"
	 viewBox="0 0 1006.539 543.637" style="enable-background:new 0 0 1006.539 543.637;" xml:space="preserve">
<g id="Layer_2">
	<g id="Guides">
	</g>
</g>
<g id="Layer_1">
	<path style="fill:#143959;" d="M-2343.292,299.612c0.422-43.696-41.696-78.5-41.696-78.5c14.381,38.562-3.667,53.66-17.061,48.117
		c-11.811-4.888-3.31-22.925-0.568-32.451c14.331-49.781-14.238-89.774-40.74-112.031c14.558,65.391-87.635,86.626-96.645,157.283
		c-5.397,42.323,12.425,75.754,50.64,96.546c14.436,7.854,30.762,11.966,47.192,11.966c54.612,0,98.884-35.794,98.884-90.406
		C-2343.285,299.953-2343.291,299.791-2343.292,299.612z"/>
	<path style="fill:none;stroke:#FFFFFF;stroke-width:14;stroke-miterlimit:10;" d="M-2433.053,320.937l15.254,30.835
		c8.425,17.029,29.059,24.005,46.089,15.58v0c17.029-8.425,24.005-29.059,15.58-46.088v0c-8.425-17.029-29.059-24.005-46.088-15.58
		L-2433.053,320.937z"/>
	<path style="fill:none;stroke:#FFFFFF;stroke-width:14;stroke-miterlimit:10;" d="M-2433.053,320.937l-42.448,21
		c-23.444,11.598-51.85,1.995-63.448-21.449v0c-11.598-23.444-1.995-51.85,21.449-63.448l0,0
		c23.444-11.598,51.85-1.995,63.448,21.449L-2433.053,320.937z"/>
	<g>
		<g>
			<path style="fill:#FFFFFF;" d="M-783.814,207.954v-65.87h-12.122v-10.243h37.962v10.243h-11.934v65.87H-783.814z"/>
			<path style="fill:#FFFFFF;" d="M-751.679,207.954v-76.113h12.78v26.969c1.88-1.879,3.931-3.351,6.155-4.417
				c2.223-1.065,4.651-1.597,7.282-1.597c2.192,0,3.947,0.549,5.263,1.644c1.315,1.097,2.286,2.553,2.913,4.37
				c0.625,1.818,0.939,3.79,0.939,5.92v43.224h-12.779v-40.688c0-1.628-0.252-2.881-0.752-3.758
				c-0.503-0.877-1.473-1.316-2.913-1.316c-0.878,0-1.865,0.251-2.96,0.752c-1.097,0.502-2.147,1.16-3.148,1.973v43.037H-751.679z"
				/>
			<path style="fill:#FFFFFF;" d="M-690.507,208.799c-4.073,0-7.392-0.768-9.96-2.301c-2.57-1.535-4.464-3.79-5.685-6.767
				c-1.222-2.973-1.832-6.56-1.832-10.758v-16.35c0-4.323,0.61-7.955,1.832-10.9c1.222-2.944,3.132-5.169,5.732-6.672
				c2.598-1.504,5.903-2.255,9.913-2.255c4.323,0,7.69,0.815,10.101,2.443c2.411,1.629,4.135,3.993,5.168,7.094
				c1.034,3.1,1.551,6.876,1.551,11.323v7.704h-21.613v10.712c0,1.755,0.172,3.196,0.517,4.324c0.344,1.128,0.893,1.941,1.645,2.443
				c0.751,0.502,1.659,0.751,2.725,0.751c1.128,0,2.035-0.266,2.725-0.799c0.689-0.532,1.189-1.316,1.504-2.349
				c0.313-1.033,0.47-2.333,0.47-3.899v-4.51h11.934v3.665c0,5.512-1.378,9.741-4.134,12.685
				C-680.673,207.328-684.869,208.799-690.507,208.799z M-695.299,175.067h9.585v-5.169c0-1.879-0.157-3.397-0.47-4.557
				c-0.314-1.159-0.815-2.004-1.504-2.537c-0.69-0.532-1.66-0.799-2.913-0.799c-1.128,0-2.036,0.282-2.725,0.846
				c-0.69,0.564-1.191,1.503-1.504,2.819c-0.314,1.315-0.47,3.195-0.47,5.638V175.067z"/>
			<path style="fill:#FFFFFF;" d="M-641.363,207.954v-76.113h22.365c4.572,0,8.284,0.846,11.135,2.537
				c2.85,1.691,4.948,4.15,6.295,7.376c1.347,3.227,2.021,7.127,2.021,11.699c0,4.949-0.846,8.942-2.537,11.98
				c-1.691,3.039-4.056,5.248-7.094,6.625c-3.039,1.378-6.625,2.067-10.759,2.067h-7.517v33.829H-641.363z M-627.456,164.354h5.262
				c2.505,0,4.464-0.359,5.873-1.08c1.41-0.719,2.38-1.879,2.913-3.477c0.532-1.597,0.799-3.742,0.799-6.437
				c0-2.756-0.204-4.995-0.611-6.719c-0.408-1.722-1.284-2.99-2.631-3.805c-1.347-0.814-3.462-1.222-6.342-1.222h-5.262V164.354z"/>
			<path style="fill:#FFFFFF;" d="M-582.916,208.799c-2.443,0-4.542-0.642-6.295-1.927c-1.755-1.283-3.101-2.912-4.041-4.885
				c-0.939-1.974-1.409-4.025-1.409-6.156c0-3.383,0.626-6.232,1.879-8.551c1.252-2.316,2.913-4.259,4.98-5.826
				c2.068-1.565,4.417-2.927,7.047-4.087c2.631-1.159,5.293-2.207,7.987-3.148v-4.698c0-1.565-0.11-2.881-0.328-3.946
				c-0.22-1.064-0.627-1.879-1.222-2.443c-0.597-0.564-1.52-0.845-2.773-0.845c-1.066,0-1.926,0.251-2.584,0.752
				c-0.658,0.502-1.128,1.207-1.41,2.114c-0.282,0.909-0.455,1.959-0.517,3.147l-0.188,3.29l-12.121-0.47
				c0.187-6.263,1.738-10.884,4.651-13.86c2.913-2.975,7.344-4.463,13.296-4.463c5.45,0,9.411,1.503,11.887,4.51
				c2.475,3.007,3.712,7.08,3.712,12.215v25.089c0,2.006,0.047,3.822,0.141,5.451c0.094,1.629,0.219,3.1,0.376,4.416
				c0.156,1.316,0.297,2.475,0.423,3.477h-11.464c-0.188-1.253-0.423-2.678-0.705-4.276c-0.281-1.598-0.486-2.772-0.611-3.523
				c-0.626,2.192-1.818,4.182-3.571,5.966C-577.529,207.908-579.909,208.799-582.916,208.799z M-578.217,199.309
				c0.814,0,1.581-0.201,2.302-0.611c0.72-0.406,1.363-0.891,1.927-1.456c0.564-0.565,0.971-1.065,1.222-1.504V180.61
				c-1.378,0.816-2.678,1.629-3.899,2.443c-1.222,0.816-2.288,1.707-3.195,2.678c-0.909,0.972-1.597,2.021-2.068,3.148
				c-0.47,1.128-0.704,2.443-0.704,3.947c0,2.006,0.39,3.587,1.175,4.744C-580.676,198.731-579.596,199.309-578.217,199.309z"/>
			<path style="fill:#FFFFFF;" d="M-536.215,208.799c-4.574,0-8.333-1.222-11.276-3.665c-2.945-2.443-5.043-6.014-6.295-10.712
				l9.491-3.665c0.751,2.947,1.752,5.202,3.007,6.767c1.252,1.567,2.88,2.349,4.886,2.349c1.504,0,2.631-0.376,3.383-1.128
				c0.751-0.753,1.128-1.786,1.128-3.102c0-1.502-0.456-2.866-1.363-4.087c-0.909-1.222-2.459-2.739-4.651-4.556l-6.578-5.545
				c-2.381-2.067-4.308-4.182-5.779-6.342c-1.473-2.161-2.209-4.87-2.209-8.129c0-2.943,0.673-5.464,2.021-7.563
				c1.346-2.098,3.195-3.727,5.544-4.886c2.349-1.159,4.964-1.738,7.846-1.738c4.385,0,7.908,1.301,10.572,3.899
				c2.662,2.6,4.369,5.999,5.121,10.196l-8.363,3.571c-0.314-1.504-0.768-2.897-1.363-4.182c-0.596-1.284-1.362-2.333-2.302-3.149
				c-0.939-0.813-2.036-1.222-3.288-1.222c-1.316,0-2.366,0.409-3.148,1.222c-0.784,0.816-1.175,1.849-1.175,3.101
				c0,1.066,0.454,2.161,1.363,3.288c0.907,1.128,2.208,2.413,3.899,3.853l6.672,6.014c1.44,1.255,2.819,2.6,4.135,4.041
				c1.316,1.441,2.411,3.054,3.288,4.839c0.877,1.786,1.316,3.838,1.316,6.154c0,3.133-0.705,5.765-2.114,7.894
				c-1.41,2.13-3.321,3.744-5.732,4.839C-530.593,208.251-533.271,208.799-536.215,208.799z"/>
			<path style="fill:#FFFFFF;" d="M-498.629,208.799c-4.574,0-8.333-1.222-11.276-3.665c-2.945-2.443-5.043-6.014-6.295-10.712
				l9.491-3.665c0.751,2.947,1.752,5.202,3.007,6.767c1.252,1.567,2.88,2.349,4.886,2.349c1.504,0,2.631-0.376,3.383-1.128
				c0.751-0.753,1.128-1.786,1.128-3.102c0-1.502-0.456-2.866-1.363-4.087c-0.909-1.222-2.459-2.739-4.651-4.556l-6.578-5.545
				c-2.381-2.067-4.308-4.182-5.779-6.342c-1.473-2.161-2.209-4.87-2.209-8.129c0-2.943,0.673-5.464,2.021-7.563
				c1.346-2.098,3.195-3.727,5.544-4.886c2.349-1.159,4.964-1.738,7.846-1.738c4.385,0,7.908,1.301,10.572,3.899
				c2.662,2.6,4.369,5.999,5.121,10.196l-8.363,3.571c-0.314-1.504-0.768-2.897-1.363-4.182c-0.596-1.284-1.362-2.333-2.302-3.149
				c-0.939-0.813-2.036-1.222-3.288-1.222c-1.316,0-2.366,0.409-3.148,1.222c-0.784,0.816-1.175,1.849-1.175,3.101
				c0,1.066,0.454,2.161,1.363,3.288c0.907,1.128,2.208,2.413,3.899,3.853l6.672,6.014c1.44,1.255,2.819,2.6,4.134,4.041
				s2.411,3.054,3.288,4.839c0.877,1.786,1.316,3.838,1.316,6.154c0,3.133-0.705,5.765-2.114,7.894
				c-1.41,2.13-3.321,3.744-5.732,4.839C-493.007,208.251-495.685,208.799-498.629,208.799z"/>
			<path style="fill:#FFFFFF;" d="M-475.42,144.997v-10.618h12.78v10.618H-475.42z M-475.42,207.954v-54.313h12.78v54.313H-475.42z"
				/>
			<path style="fill:#FFFFFF;" d="M-436.05,208.799c-3.946,0-7.204-0.736-9.772-2.207c-2.569-1.473-4.496-3.619-5.78-6.437
				c-1.284-2.82-1.926-6.233-1.926-10.243v-18.23c0-4.008,0.641-7.423,1.926-10.242c1.284-2.819,3.21-4.964,5.78-6.437
				c2.568-1.471,5.826-2.208,9.772-2.208s7.219,0.737,9.82,2.208c2.598,1.473,4.541,3.618,5.826,6.437
				c1.283,2.819,1.927,6.233,1.927,10.242v18.23c0,4.01-0.644,7.424-1.927,10.243c-1.285,2.818-3.227,4.964-5.826,6.437
				C-428.831,208.063-432.103,208.799-436.05,208.799z M-435.955,199.967c1.44,0,2.505-0.408,3.195-1.222
				c0.688-0.814,1.128-1.927,1.315-3.336c0.188-1.41,0.282-2.96,0.282-4.652v-19.92c0-1.69-0.094-3.226-0.282-4.604
				c-0.187-1.377-0.626-2.49-1.315-3.335c-0.69-0.846-1.755-1.269-3.195-1.269c-1.442,0-2.506,0.423-3.195,1.269
				c-0.69,0.845-1.143,1.959-1.362,3.335c-0.22,1.378-0.329,2.914-0.329,4.604v19.92c0,1.692,0.109,3.242,0.329,4.652
				c0.219,1.41,0.672,2.522,1.362,3.336C-438.461,199.56-437.397,199.967-435.955,199.967z"/>
			<path style="fill:#FFFFFF;" d="M-409.74,207.954v-54.313h12.779v5.45c1.941-1.879,3.994-3.397,6.155-4.557
				c2.161-1.159,4.494-1.738,7-1.738c2.255,0,4.04,0.549,5.356,1.644c1.316,1.097,2.286,2.553,2.913,4.37
				c0.626,1.818,0.94,3.79,0.94,5.92v43.224h-12.78v-40.688c0-1.628-0.251-2.881-0.752-3.758c-0.502-0.877-1.473-1.316-2.913-1.316
				c-0.877,0-1.832,0.251-2.866,0.752c-1.033,0.502-2.053,1.128-3.054,1.879v43.13H-409.74z"/>
			<path style="fill:#FFFFFF;" d="M-321.036,208.988c-5.576,0-9.946-1.094-13.108-3.288c-3.164-2.192-5.373-5.184-6.625-8.974
				c-1.254-3.79-1.879-8.158-1.879-13.109v-27.155c0-5.199,0.626-9.709,1.879-13.532c1.252-3.82,3.461-6.765,6.625-8.833
				c3.162-2.067,7.532-3.101,13.108-3.101c5.262,0,9.381,0.893,12.356,2.678c2.975,1.785,5.089,4.338,6.342,7.658
				c1.253,3.321,1.879,7.174,1.879,11.558v6.39h-13.343v-6.578c0-2.129-0.111-4.072-0.329-5.826
				c-0.22-1.753-0.815-3.148-1.785-4.182c-0.971-1.034-2.647-1.551-5.027-1.551c-2.381,0-4.12,0.55-5.215,1.645
				c-1.097,1.096-1.802,2.569-2.115,4.416c-0.314,1.849-0.47,3.932-0.47,6.249v33.076c0,2.757,0.219,5.027,0.658,6.813
				c0.437,1.785,1.236,3.133,2.396,4.04c1.158,0.91,2.74,1.364,4.745,1.364c2.317,0,3.961-0.548,4.933-1.644
				c0.971-1.096,1.581-2.552,1.832-4.37c0.25-1.816,0.376-3.853,0.376-6.108v-6.859h13.343v6.108c0,4.51-0.596,8.503-1.785,11.98
				c-1.19,3.477-3.274,6.202-6.248,8.175C-311.468,208-315.649,208.988-321.036,208.988z"/>
			<path style="fill:#FFFFFF;" d="M-275.181,208.799c-3.946,0-7.204-0.736-9.772-2.207c-2.569-1.473-4.496-3.619-5.78-6.437
				c-1.284-2.82-1.926-6.233-1.926-10.243v-18.23c0-4.008,0.641-7.423,1.926-10.242c1.284-2.819,3.21-4.964,5.78-6.437
				c2.568-1.471,5.826-2.208,9.772-2.208s7.219,0.737,9.82,2.208c2.598,1.473,4.541,3.618,5.826,6.437
				c1.283,2.819,1.926,6.233,1.926,10.242v18.23c0,4.01-0.644,7.424-1.926,10.243c-1.285,2.818-3.227,4.964-5.826,6.437
				C-267.962,208.063-271.235,208.799-275.181,208.799z M-275.087,199.967c1.44,0,2.505-0.408,3.195-1.222
				c0.688-0.814,1.128-1.927,1.315-3.336c0.188-1.41,0.282-2.96,0.282-4.652v-19.92c0-1.69-0.094-3.226-0.282-4.604
				c-0.187-1.377-0.626-2.49-1.315-3.335c-0.69-0.846-1.755-1.269-3.195-1.269c-1.442,0-2.506,0.423-3.195,1.269
				c-0.69,0.845-1.143,1.959-1.362,3.335c-0.22,1.378-0.329,2.914-0.329,4.604v19.92c0,1.692,0.109,3.242,0.329,4.652
				c0.219,1.41,0.672,2.522,1.362,3.336C-277.593,199.56-276.529,199.967-275.087,199.967z"/>
			<path style="fill:#FFFFFF;" d="M-248.872,207.954v-54.313h12.309v4.698c1.879-2.004,3.914-3.46,6.108-4.369
				c2.192-0.908,4.416-1.363,6.672-1.363c2.129,0,3.993,0.533,5.59,1.597c1.598,1.066,2.773,2.758,3.524,5.075
				c2.068-2.38,4.26-4.087,6.578-5.122c2.317-1.033,4.698-1.55,7.141-1.55c1.941,0,3.665,0.486,5.169,1.457
				c1.503,0.972,2.692,2.412,3.57,4.322c0.877,1.912,1.316,4.308,1.316,7.188v42.379h-12.215v-41.251
				c0-2.068-0.345-3.492-1.033-4.276c-0.69-0.783-1.661-1.175-2.914-1.175c-1.002,0-2.114,0.281-3.335,0.845
				s-2.334,1.348-3.335,2.349c0,0.188,0,0.362,0,0.517c0,0.158,0,0.362,0,0.611v42.379h-12.122v-41.251
				c0-2.068-0.362-3.492-1.08-4.276c-0.721-0.783-1.708-1.175-2.96-1.175c-1.003,0-2.1,0.281-3.289,0.845
				c-1.19,0.564-2.318,1.348-3.383,2.349v43.507H-248.872z"/>
			<path style="fill:#FFFFFF;" d="M-181.406,225.808v-72.166h12.779v4.134c1.565-1.503,3.289-2.708,5.169-3.618
				c1.879-0.907,3.852-1.362,5.92-1.362c2.443,0,4.447,0.564,6.014,1.691c1.565,1.128,2.787,2.617,3.664,4.463
				c0.877,1.849,1.487,3.822,1.832,5.92c0.344,2.101,0.517,4.12,0.517,6.061v18.418c0,3.571-0.423,6.828-1.268,9.771
				c-0.846,2.947-2.194,5.296-4.041,7.049c-1.848,1.753-4.308,2.63-7.376,2.63c-1.943,0-3.775-0.469-5.497-1.41
				c-1.723-0.939-3.368-2.128-4.933-3.571v21.989H-181.406z M-162.988,199.873c1.377,0,2.396-0.454,3.054-1.364
				c0.658-0.906,1.095-2.128,1.315-3.663s0.329-3.211,0.329-5.028v-19.45c0-1.692-0.126-3.209-0.376-4.558
				c-0.252-1.346-0.721-2.427-1.41-3.242c-0.69-0.813-1.691-1.222-3.007-1.222c-1.003,0-1.989,0.235-2.96,0.705
				c-0.972,0.47-1.832,1.019-2.584,1.644v34.297c0.814,0.565,1.691,1.02,2.631,1.364
				C-165.056,199.702-164.055,199.873-162.988,199.873z"/>
			<path style="fill:#FFFFFF;" d="M-126.153,208.799c-2.443,0-4.542-0.642-6.295-1.927c-1.755-1.283-3.101-2.912-4.041-4.885
				c-0.939-1.974-1.409-4.025-1.409-6.156c0-3.383,0.626-6.232,1.879-8.551c1.252-2.316,2.913-4.259,4.98-5.826
				c2.068-1.565,4.417-2.927,7.047-4.087c2.631-1.159,5.293-2.207,7.987-3.148v-4.698c0-1.565-0.11-2.881-0.329-3.946
				c-0.22-1.064-0.627-1.879-1.222-2.443c-0.597-0.564-1.52-0.845-2.773-0.845c-1.066,0-1.926,0.251-2.584,0.752
				c-0.658,0.502-1.128,1.207-1.41,2.114c-0.282,0.909-0.455,1.959-0.517,3.147l-0.188,3.29l-12.121-0.47
				c0.187-6.263,1.738-10.884,4.651-13.86c2.913-2.975,7.344-4.463,13.296-4.463c5.45,0,9.411,1.503,11.887,4.51
				c2.475,3.007,3.712,7.08,3.712,12.215v25.089c0,2.006,0.047,3.822,0.141,5.451c0.094,1.629,0.219,3.1,0.376,4.416
				c0.156,1.316,0.297,2.475,0.423,3.477h-11.464c-0.188-1.253-0.423-2.678-0.705-4.276c-0.281-1.598-0.486-2.772-0.611-3.523
				c-0.626,2.192-1.818,4.182-3.571,5.966C-120.767,207.908-123.146,208.799-126.153,208.799z M-121.455,199.309
				c0.814,0,1.581-0.201,2.302-0.611c0.72-0.406,1.363-0.891,1.927-1.456c0.564-0.565,0.971-1.065,1.222-1.504V180.61
				c-1.378,0.816-2.678,1.629-3.899,2.443c-1.222,0.816-2.288,1.707-3.195,2.678c-0.909,0.972-1.597,2.021-2.068,3.148
				c-0.47,1.128-0.704,2.443-0.704,3.947c0,2.006,0.39,3.587,1.175,4.744C-123.914,198.731-122.834,199.309-121.455,199.309z"/>
			<path style="fill:#FFFFFF;" d="M-94.205,207.954v-54.313h12.779v5.45c1.941-1.879,3.994-3.397,6.155-4.557
				c2.161-1.159,4.494-1.738,7-1.738c2.255,0,4.04,0.549,5.356,1.644c1.316,1.097,2.286,2.553,2.913,4.37
				c0.626,1.818,0.94,3.79,0.94,5.92v43.224h-12.78v-40.688c0-1.628-0.251-2.881-0.752-3.758c-0.502-0.877-1.473-1.316-2.913-1.316
				c-0.877,0-1.832,0.251-2.866,0.752c-1.033,0.502-2.053,1.128-3.054,1.879v43.13H-94.205z"/>
			<path style="fill:#FFFFFF;" d="M-49.29,222.708v-9.21c2.192,0,3.978-0.125,5.356-0.375c1.378-0.251,2.38-0.69,3.007-1.316
				c0.626-0.627,0.94-1.504,0.94-2.631c0-0.816-0.205-2.098-0.611-3.853c-0.409-1.753-0.863-3.665-1.363-5.732l-11.934-45.95h12.403
				l7.047,35.802l6.108-35.802h12.309l-12.685,56.474c-0.69,3.194-1.849,5.7-3.477,7.518c-1.629,1.816-3.664,3.115-6.107,3.899
				c-2.443,0.782-5.295,1.175-8.551,1.175H-49.29z"/>
		</g>
		<g>
			<path style="fill:#FFFFFF;" d="M-854.053,194.342c0,50.896-37.502,93.035-86.383,100.294
				c33.163-37.72,11.786-76.086-3.148-111.354c-6.732-16.691-13.414-37.055-4.538-53.17c10.445-18.964,31.862-20.136,44.383-3.147
				c9.224,12.521,6.911,40.52-24.823,51.403c26.848,0.298,56.099-12.233,50.946-49.01
				C-862.9,146.95-854.053,169.618-854.053,194.342z"/>
			<path style="fill:#FFFFFF;" d="M-970.29,25.052c17.899,80.417-94.001,89.955-98.245,183.754
				c10.495-15.576,27.554-25.851,47.032-27.4c11.846-1.109,23.39,0.666,34.081,4.138c-5.633,0.153-11.177,0.488-16.581,1.299
				c-8.149,1.171-16.357,3.44-23.775,7.129c-5.484,2.588-10.418,6.143-14.593,10.443c-0.082,0.084-0.161,0.17-0.243,0.254
				c-0.574,0.6-1.133,1.213-1.677,1.84c-0.04,0.046-0.083,0.088-0.122,0.134c-0.027,0.032-0.052,0.066-0.079,0.098
				c-5.763,6.731-9.769,15.004-11.317,24.12c-0.008,0.045-0.016,0.089-0.024,0.134c-0.099,0.596-0.185,1.196-0.263,1.799
				c-0.036,0.272-0.072,0.544-0.104,0.817c-0.049,0.43-0.09,0.861-0.127,1.294c-0.04,0.45-0.075,0.9-0.103,1.35
				c-0.018,0.307-0.034,0.614-0.047,0.923c-0.025,0.571-0.038,1.141-0.043,1.71c-0.001,0.139-0.01,0.275-0.01,0.414
				c0,0.1,0.007,0.198,0.008,0.298c0.003,0.607,0.02,1.213,0.046,1.818c0.01,0.235,0.017,0.471,0.03,0.705
				c0.031,0.541,0.075,1.08,0.123,1.618c0.027,0.311,0.051,0.624,0.084,0.934c0.038,0.353,0.088,0.704,0.134,1.056
				c3.157,24.632,24.187,43.674,49.678,43.674c27.671,0,50.102-22.432,50.102-50.102c0-0.008-0.001-0.016-0.001-0.025
				c0.076-3.907-0.261-8.073-0.846-12.714c-1.488-10.62-6.513-22.103-9.702-32.819c-1.549-5.046-3.004-10.264-3.968-15.467
				c-3.608-18.39-2.898-38.493,5.738-55.529c5.681-11.406,14.941-21.075,26.087-27.06c5.605-3.087,11.884-5.24,18.342-6.35
				C-925.486,67.66-943.056,38.889-970.29,25.052z"/>
		</g>
	</g>
	<g>
		<g>
			<path d="M-783.814-86.681v-65.87h-12.122v-10.243h37.962v10.243h-11.934v65.87H-783.814z"/>
			<path d="M-751.679-86.681v-76.113h12.78v26.969c1.88-1.879,3.931-3.351,6.155-4.417c2.223-1.065,4.651-1.597,7.282-1.597
				c2.192,0,3.947,0.549,5.263,1.644c1.315,1.097,2.286,2.553,2.913,4.37c0.625,1.818,0.939,3.79,0.939,5.92v43.224h-12.779v-40.688
				c0-1.628-0.252-2.881-0.752-3.758c-0.503-0.877-1.473-1.316-2.913-1.316c-0.878,0-1.865,0.251-2.96,0.752
				c-1.097,0.502-2.147,1.16-3.148,1.973v43.037H-751.679z"/>
			<path d="M-690.507-85.836c-4.073,0-7.392-0.768-9.96-2.301c-2.57-1.535-4.464-3.79-5.685-6.767
				c-1.222-2.973-1.832-6.56-1.832-10.758v-16.35c0-4.324,0.61-7.955,1.832-10.9c1.222-2.944,3.132-5.169,5.732-6.672
				c2.598-1.504,5.903-2.255,9.913-2.255c4.323,0,7.69,0.815,10.101,2.443c2.411,1.629,4.135,3.993,5.168,7.094
				c1.034,3.1,1.551,6.876,1.551,11.323v7.704h-21.613v10.712c0,1.755,0.172,3.196,0.517,4.323c0.344,1.128,0.893,1.941,1.645,2.443
				c0.751,0.502,1.659,0.751,2.725,0.751c1.128,0,2.035-0.266,2.725-0.799c0.689-0.532,1.189-1.316,1.504-2.349
				c0.313-1.033,0.47-2.333,0.47-3.899v-4.51h11.934v3.665c0,5.512-1.378,9.741-4.134,12.685
				C-680.673-87.307-684.869-85.836-690.507-85.836z M-695.299-119.569h9.585v-5.169c0-1.879-0.157-3.397-0.47-4.557
				c-0.314-1.159-0.815-2.004-1.504-2.537c-0.69-0.532-1.66-0.799-2.913-0.799c-1.128,0-2.036,0.282-2.725,0.846
				c-0.69,0.564-1.191,1.503-1.504,2.819c-0.314,1.315-0.47,3.195-0.47,5.638V-119.569z"/>
			<path d="M-641.363-86.681v-76.113h22.365c4.572,0,8.284,0.846,11.135,2.537c2.85,1.691,4.948,4.15,6.295,7.376
				c1.347,3.227,2.021,7.127,2.021,11.699c0,4.949-0.846,8.942-2.537,11.98c-1.691,3.039-4.056,5.248-7.094,6.625
				c-3.039,1.378-6.625,2.067-10.759,2.067h-7.517v33.829H-641.363z M-627.456-130.282h5.262c2.505,0,4.464-0.359,5.873-1.08
				c1.41-0.719,2.38-1.879,2.913-3.477c0.532-1.597,0.799-3.742,0.799-6.437c0-2.756-0.204-4.995-0.611-6.719
				c-0.408-1.722-1.284-2.99-2.631-3.805c-1.347-0.814-3.462-1.222-6.342-1.222h-5.262V-130.282z"/>
			<path d="M-582.916-85.836c-2.443,0-4.542-0.642-6.295-1.927c-1.755-1.283-3.101-2.912-4.041-4.885
				c-0.939-1.974-1.409-4.025-1.409-6.156c0-3.383,0.626-6.232,1.879-8.551c1.252-2.316,2.913-4.259,4.98-5.826
				c2.068-1.565,4.417-2.927,7.047-4.087c2.631-1.159,5.293-2.207,7.987-3.148v-4.698c0-1.565-0.11-2.881-0.328-3.946
				c-0.22-1.064-0.627-1.879-1.222-2.443c-0.597-0.564-1.52-0.845-2.773-0.845c-1.066,0-1.926,0.251-2.584,0.752
				c-0.658,0.502-1.128,1.207-1.41,2.114c-0.282,0.909-0.455,1.959-0.517,3.147l-0.188,3.29l-12.121-0.47
				c0.187-6.263,1.738-10.884,4.651-13.86c2.913-2.975,7.344-4.463,13.296-4.463c5.45,0,9.411,1.503,11.887,4.51
				c2.475,3.007,3.712,7.08,3.712,12.215v25.089c0,2.006,0.047,3.822,0.141,5.451c0.094,1.629,0.219,3.1,0.376,4.416
				c0.156,1.316,0.297,2.475,0.423,3.477h-11.464c-0.188-1.253-0.423-2.678-0.705-4.276c-0.281-1.598-0.486-2.772-0.611-3.523
				c-0.626,2.192-1.818,4.182-3.571,5.966C-577.529-86.727-579.909-85.836-582.916-85.836z M-578.217-95.327
				c0.814,0,1.581-0.201,2.302-0.611c0.72-0.406,1.363-0.891,1.927-1.456c0.564-0.565,0.971-1.065,1.222-1.504v-15.128
				c-1.378,0.816-2.678,1.629-3.899,2.443c-1.222,0.816-2.288,1.707-3.195,2.678c-0.909,0.972-1.597,2.021-2.068,3.148
				c-0.47,1.128-0.704,2.443-0.704,3.947c0,2.006,0.39,3.587,1.175,4.744C-580.676-95.904-579.596-95.327-578.217-95.327z"/>
			<path d="M-536.215-85.836c-4.574,0-8.333-1.222-11.276-3.665c-2.945-2.443-5.043-6.014-6.295-10.712l9.491-3.665
				c0.751,2.947,1.752,5.202,3.007,6.767c1.252,1.567,2.88,2.349,4.886,2.349c1.504,0,2.631-0.376,3.383-1.128
				c0.751-0.753,1.128-1.786,1.128-3.102c0-1.502-0.456-2.866-1.363-4.087c-0.909-1.222-2.459-2.739-4.651-4.556l-6.578-5.545
				c-2.381-2.067-4.308-4.182-5.779-6.342c-1.473-2.161-2.209-4.87-2.209-8.129c0-2.943,0.673-5.464,2.021-7.563
				c1.346-2.098,3.195-3.727,5.544-4.886c2.349-1.159,4.964-1.738,7.846-1.738c4.385,0,7.908,1.301,10.572,3.899
				c2.662,2.6,4.369,5.999,5.121,10.196l-8.363,3.571c-0.314-1.504-0.768-2.897-1.363-4.182c-0.596-1.284-1.362-2.333-2.302-3.149
				c-0.939-0.813-2.036-1.222-3.288-1.222c-1.316,0-2.366,0.409-3.148,1.222c-0.784,0.816-1.175,1.849-1.175,3.101
				c0,1.066,0.454,2.161,1.363,3.288c0.907,1.128,2.208,2.413,3.899,3.853l6.672,6.014c1.44,1.255,2.819,2.6,4.135,4.041
				c1.316,1.441,2.411,3.054,3.288,4.839c0.877,1.786,1.316,3.838,1.316,6.154c0,3.133-0.705,5.765-2.114,7.894
				c-1.41,2.13-3.321,3.744-5.732,4.839C-530.593-86.384-533.271-85.836-536.215-85.836z"/>
			<path d="M-498.629-85.836c-4.574,0-8.333-1.222-11.276-3.665c-2.945-2.443-5.043-6.014-6.295-10.712l9.491-3.665
				c0.751,2.947,1.752,5.202,3.007,6.767c1.252,1.567,2.88,2.349,4.886,2.349c1.504,0,2.631-0.376,3.383-1.128
				c0.751-0.753,1.128-1.786,1.128-3.102c0-1.502-0.456-2.866-1.363-4.087c-0.909-1.222-2.459-2.739-4.651-4.556l-6.578-5.545
				c-2.381-2.067-4.308-4.182-5.779-6.342c-1.473-2.161-2.209-4.87-2.209-8.129c0-2.943,0.673-5.464,2.021-7.563
				c1.346-2.098,3.195-3.727,5.544-4.886c2.349-1.159,4.964-1.738,7.846-1.738c4.385,0,7.908,1.301,10.572,3.899
				c2.662,2.6,4.369,5.999,5.121,10.196l-8.363,3.571c-0.314-1.504-0.768-2.897-1.363-4.182c-0.596-1.284-1.362-2.333-2.302-3.149
				c-0.939-0.813-2.036-1.222-3.288-1.222c-1.316,0-2.366,0.409-3.148,1.222c-0.784,0.816-1.175,1.849-1.175,3.101
				c0,1.066,0.454,2.161,1.363,3.288c0.907,1.128,2.208,2.413,3.899,3.853l6.672,6.014c1.44,1.255,2.819,2.6,4.134,4.041
				c1.316,1.441,2.411,3.054,3.288,4.839c0.877,1.786,1.316,3.838,1.316,6.154c0,3.133-0.705,5.765-2.114,7.894
				c-1.41,2.13-3.321,3.744-5.732,4.839C-493.007-86.384-495.685-85.836-498.629-85.836z"/>
			<path d="M-475.42-149.639v-10.618h12.78v10.618H-475.42z M-475.42-86.681v-54.313h12.78v54.313H-475.42z"/>
			<path d="M-436.05-85.836c-3.946,0-7.204-0.736-9.772-2.207c-2.569-1.473-4.496-3.619-5.78-6.437
				c-1.284-2.82-1.926-6.233-1.926-10.243v-18.23c0-4.008,0.641-7.423,1.926-10.242c1.284-2.819,3.21-4.964,5.78-6.437
				c2.568-1.471,5.826-2.208,9.772-2.208s7.219,0.737,9.82,2.208c2.598,1.473,4.541,3.618,5.826,6.437
				c1.283,2.819,1.927,6.234,1.927,10.242v18.23c0,4.01-0.644,7.424-1.927,10.243c-1.285,2.818-3.227,4.964-5.826,6.437
				C-428.831-86.572-432.103-85.836-436.05-85.836z M-435.955-94.668c1.44,0,2.505-0.408,3.195-1.222
				c0.688-0.814,1.128-1.927,1.315-3.336c0.188-1.41,0.282-2.96,0.282-4.652v-19.92c0-1.69-0.094-3.226-0.282-4.604
				c-0.187-1.377-0.626-2.49-1.315-3.335c-0.69-0.846-1.755-1.269-3.195-1.269c-1.442,0-2.506,0.423-3.195,1.269
				c-0.69,0.845-1.143,1.959-1.362,3.335c-0.22,1.378-0.329,2.914-0.329,4.604v19.92c0,1.692,0.109,3.242,0.329,4.652
				c0.219,1.41,0.672,2.522,1.362,3.336C-438.461-95.076-437.397-94.668-435.955-94.668z"/>
			<path d="M-409.74-86.681v-54.313h12.779v5.45c1.941-1.879,3.994-3.397,6.155-4.557c2.161-1.159,4.494-1.738,7-1.738
				c2.255,0,4.04,0.549,5.356,1.644c1.316,1.097,2.286,2.553,2.913,4.37c0.626,1.818,0.94,3.79,0.94,5.92v43.224h-12.78v-40.688
				c0-1.628-0.251-2.881-0.752-3.758c-0.502-0.877-1.473-1.316-2.913-1.316c-0.877,0-1.832,0.251-2.866,0.752
				c-1.033,0.502-2.053,1.128-3.054,1.879v43.13H-409.74z"/>
			<path d="M-321.036-85.648c-5.576,0-9.946-1.094-13.108-3.288c-3.164-2.192-5.373-5.184-6.625-8.974
				c-1.254-3.79-1.879-8.158-1.879-13.109v-27.155c0-5.199,0.626-9.709,1.879-13.532c1.252-3.82,3.461-6.765,6.625-8.833
				c3.162-2.067,7.532-3.101,13.108-3.101c5.262,0,9.381,0.893,12.356,2.678c2.975,1.785,5.089,4.338,6.342,7.658
				c1.253,3.321,1.879,7.174,1.879,11.558v6.389h-13.343v-6.578c0-2.129-0.111-4.072-0.329-5.826
				c-0.22-1.753-0.815-3.148-1.785-4.182c-0.971-1.034-2.647-1.551-5.027-1.551c-2.381,0-4.12,0.55-5.215,1.645
				c-1.097,1.096-1.802,2.569-2.115,4.416c-0.314,1.849-0.47,3.932-0.47,6.249v33.076c0,2.757,0.219,5.027,0.658,6.813
				c0.437,1.785,1.236,3.133,2.396,4.04c1.158,0.91,2.74,1.364,4.745,1.364c2.317,0,3.961-0.548,4.933-1.644
				c0.971-1.096,1.581-2.552,1.832-4.37c0.25-1.816,0.376-3.853,0.376-6.108v-6.859h13.343v6.108c0,4.51-0.596,8.503-1.785,11.98
				c-1.19,3.477-3.274,6.202-6.248,8.175C-311.468-86.635-315.649-85.648-321.036-85.648z"/>
			<path d="M-275.181-85.836c-3.946,0-7.204-0.736-9.772-2.207c-2.569-1.473-4.496-3.619-5.78-6.437
				c-1.284-2.82-1.926-6.233-1.926-10.243v-18.23c0-4.008,0.641-7.423,1.926-10.242c1.284-2.819,3.21-4.964,5.78-6.437
				c2.568-1.471,5.826-2.208,9.772-2.208s7.219,0.737,9.82,2.208c2.598,1.473,4.541,3.618,5.826,6.437
				c1.283,2.819,1.926,6.234,1.926,10.242v18.23c0,4.01-0.644,7.424-1.926,10.243c-1.285,2.818-3.227,4.964-5.826,6.437
				C-267.962-86.572-271.235-85.836-275.181-85.836z M-275.087-94.668c1.44,0,2.505-0.408,3.195-1.222
				c0.688-0.814,1.128-1.927,1.315-3.336c0.188-1.41,0.282-2.96,0.282-4.652v-19.92c0-1.69-0.094-3.226-0.282-4.604
				c-0.187-1.377-0.626-2.49-1.315-3.335c-0.69-0.846-1.755-1.269-3.195-1.269c-1.442,0-2.506,0.423-3.195,1.269
				c-0.69,0.845-1.143,1.959-1.362,3.335c-0.22,1.378-0.329,2.914-0.329,4.604v19.92c0,1.692,0.109,3.242,0.329,4.652
				c0.219,1.41,0.672,2.522,1.362,3.336C-277.593-95.076-276.529-94.668-275.087-94.668z"/>
			<path d="M-248.872-86.681v-54.313h12.309v4.698c1.879-2.004,3.914-3.46,6.108-4.369c2.192-0.908,4.416-1.363,6.672-1.363
				c2.129,0,3.993,0.533,5.59,1.597c1.598,1.066,2.773,2.758,3.524,5.075c2.068-2.38,4.26-4.087,6.578-5.122
				c2.317-1.033,4.698-1.55,7.141-1.55c1.941,0,3.665,0.486,5.169,1.457c1.503,0.971,2.692,2.412,3.57,4.322
				c0.877,1.912,1.316,4.308,1.316,7.189v42.379h-12.215v-41.251c0-2.068-0.345-3.492-1.033-4.276
				c-0.69-0.783-1.661-1.175-2.914-1.175c-1.002,0-2.114,0.281-3.335,0.845c-1.222,0.564-2.334,1.348-3.335,2.349
				c0,0.188,0,0.362,0,0.517c0,0.158,0,0.362,0,0.611v42.379h-12.122v-41.251c0-2.068-0.362-3.492-1.08-4.276
				c-0.721-0.783-1.708-1.175-2.96-1.175c-1.003,0-2.1,0.281-3.289,0.845c-1.19,0.564-2.318,1.348-3.383,2.349v43.507H-248.872z"/>
			<path d="M-181.406-68.828v-72.166h12.779v4.134c1.565-1.503,3.289-2.708,5.169-3.618c1.879-0.907,3.852-1.362,5.92-1.362
				c2.443,0,4.447,0.564,6.014,1.691c1.565,1.128,2.787,2.617,3.664,4.463c0.877,1.849,1.487,3.822,1.832,5.92
				c0.344,2.101,0.517,4.12,0.517,6.061v18.418c0,3.571-0.423,6.828-1.268,9.771c-0.846,2.947-2.194,5.296-4.041,7.049
				c-1.848,1.753-4.308,2.63-7.376,2.63c-1.943,0-3.775-0.469-5.497-1.41c-1.723-0.939-3.368-2.128-4.933-3.571v21.989H-181.406z
				 M-162.988-94.762c1.377,0,2.396-0.454,3.054-1.364c0.658-0.906,1.095-2.128,1.315-3.663s0.329-3.211,0.329-5.028v-19.45
				c0-1.692-0.126-3.209-0.376-4.558c-0.252-1.346-0.721-2.427-1.41-3.242c-0.69-0.813-1.691-1.222-3.007-1.222
				c-1.003,0-1.989,0.235-2.96,0.705c-0.972,0.47-1.832,1.019-2.584,1.644v34.297c0.814,0.565,1.691,1.02,2.631,1.364
				C-165.056-94.934-164.055-94.762-162.988-94.762z"/>
			<path d="M-126.153-85.836c-2.443,0-4.542-0.642-6.295-1.927c-1.755-1.283-3.101-2.912-4.041-4.885
				c-0.939-1.974-1.409-4.025-1.409-6.156c0-3.383,0.626-6.232,1.879-8.551c1.252-2.316,2.913-4.259,4.98-5.826
				c2.068-1.565,4.417-2.927,7.047-4.087c2.631-1.159,5.293-2.207,7.987-3.148v-4.698c0-1.565-0.11-2.881-0.329-3.946
				c-0.22-1.064-0.627-1.879-1.222-2.443c-0.597-0.564-1.52-0.845-2.773-0.845c-1.066,0-1.926,0.251-2.584,0.752
				c-0.658,0.502-1.128,1.207-1.41,2.114c-0.282,0.909-0.455,1.959-0.517,3.147l-0.188,3.29l-12.121-0.47
				c0.187-6.263,1.738-10.884,4.651-13.86c2.913-2.975,7.344-4.463,13.296-4.463c5.45,0,9.411,1.503,11.887,4.51
				c2.475,3.007,3.712,7.08,3.712,12.215v25.089c0,2.006,0.047,3.822,0.141,5.451c0.094,1.629,0.219,3.1,0.376,4.416
				c0.156,1.316,0.297,2.475,0.423,3.477h-11.464c-0.188-1.253-0.423-2.678-0.705-4.276c-0.281-1.598-0.486-2.772-0.611-3.523
				c-0.626,2.192-1.818,4.182-3.571,5.966C-120.767-86.727-123.146-85.836-126.153-85.836z M-121.455-95.327
				c0.814,0,1.581-0.201,2.302-0.611c0.72-0.406,1.363-0.891,1.927-1.456c0.564-0.565,0.971-1.065,1.222-1.504v-15.128
				c-1.378,0.816-2.678,1.629-3.899,2.443c-1.222,0.816-2.288,1.707-3.195,2.678c-0.909,0.972-1.597,2.021-2.068,3.148
				c-0.47,1.128-0.704,2.443-0.704,3.947c0,2.006,0.39,3.587,1.175,4.744C-123.914-95.904-122.834-95.327-121.455-95.327z"/>
			<path d="M-94.205-86.681v-54.313h12.779v5.45c1.941-1.879,3.994-3.397,6.155-4.557c2.161-1.159,4.494-1.738,7-1.738
				c2.255,0,4.04,0.549,5.356,1.644c1.316,1.097,2.286,2.553,2.913,4.37c0.626,1.818,0.94,3.79,0.94,5.92v43.224h-12.78v-40.688
				c0-1.628-0.251-2.881-0.752-3.758c-0.502-0.877-1.473-1.316-2.913-1.316c-0.877,0-1.832,0.251-2.866,0.752
				c-1.033,0.502-2.053,1.128-3.054,1.879v43.13H-94.205z"/>
			<path d="M-49.29-71.928v-9.21c2.192,0,3.978-0.125,5.356-0.375c1.378-0.251,2.38-0.69,3.007-1.316
				c0.626-0.627,0.94-1.504,0.94-2.631c0-0.815-0.205-2.098-0.611-3.853c-0.409-1.753-0.863-3.665-1.363-5.732l-11.934-45.95h12.403
				l7.047,35.802l6.108-35.802h12.309L-28.71-84.52c-0.69,3.194-1.849,5.7-3.477,7.518c-1.629,1.816-3.664,3.115-6.107,3.899
				c-2.443,0.782-5.295,1.175-8.551,1.175H-49.29z"/>
		</g>
		<g>
			<path d="M-854.053-100.294c0,50.896-37.502,93.035-86.383,100.294c33.163-37.72,11.786-76.086-3.148-111.354
				c-6.732-16.691-13.414-37.055-4.538-53.17c10.445-18.964,31.862-20.136,44.383-3.147c9.224,12.521,6.911,40.52-24.823,51.403
				c26.848,0.298,56.099-12.233,50.946-49.01C-862.9-147.685-854.053-125.017-854.053-100.294z"/>
			<path d="M-970.29-269.583c17.899,80.417-94.001,89.955-98.245,183.754c10.495-15.576,27.554-25.851,47.032-27.4
				c11.846-1.109,23.39,0.666,34.081,4.138c-5.633,0.153-11.177,0.488-16.581,1.299c-8.149,1.171-16.357,3.44-23.775,7.129
				c-5.484,2.588-10.418,6.143-14.593,10.443c-0.082,0.084-0.161,0.17-0.243,0.254c-0.574,0.6-1.133,1.213-1.677,1.84
				c-0.04,0.046-0.083,0.088-0.122,0.134c-0.027,0.032-0.052,0.066-0.079,0.098c-5.763,6.731-9.769,15.004-11.317,24.12
				c-0.008,0.045-0.016,0.089-0.024,0.134c-0.099,0.596-0.185,1.196-0.263,1.799c-0.036,0.272-0.072,0.544-0.104,0.817
				c-0.049,0.43-0.09,0.861-0.127,1.294c-0.04,0.45-0.075,0.9-0.103,1.35c-0.018,0.307-0.034,0.614-0.047,0.923
				c-0.025,0.571-0.038,1.141-0.043,1.71c-0.001,0.139-0.01,0.275-0.01,0.414c0,0.1,0.007,0.198,0.008,0.298
				c0.003,0.607,0.02,1.213,0.046,1.818c0.01,0.235,0.017,0.471,0.03,0.705c0.031,0.541,0.075,1.08,0.123,1.618
				c0.027,0.311,0.051,0.624,0.084,0.934c0.038,0.353,0.088,0.704,0.134,1.056c3.157,24.632,24.187,43.674,49.678,43.674
				c27.671,0,50.102-22.432,50.102-50.102c0-0.008-0.001-0.016-0.001-0.025c0.076-3.907-0.261-8.073-0.846-12.714
				c-1.488-10.62-6.513-22.103-9.702-32.819c-1.549-5.045-3.004-10.264-3.968-15.467c-3.608-18.39-2.898-38.493,5.738-55.529
				c5.681-11.406,14.941-21.075,26.087-27.06c5.605-3.087,11.884-5.24,18.342-6.35C-925.486-226.975-943.056-255.746-970.29-269.583
				z"/>
		</g>
	</g>
	<g>
		<g>
			<path d="M1048.859-43.868v-85.011h-15.644v-13.219h48.994v13.219h-15.402v85.011H1048.859z"/>
			<path d="M1090.332-43.868v-98.23h16.493v34.805c2.426-2.426,5.073-4.325,7.944-5.7c2.869-1.374,6.003-2.061,9.398-2.061
				c2.829,0,5.094,0.708,6.792,2.122c1.697,1.416,2.95,3.295,3.759,5.639c0.806,2.346,1.212,4.892,1.212,7.64v55.785h-16.492
				v-52.511c0-2.101-0.325-3.718-0.97-4.85c-0.649-1.131-1.9-1.698-3.759-1.698c-1.133,0-2.406,0.324-3.82,0.97
				c-1.416,0.648-2.771,1.497-4.063,2.546v55.543H1090.332z"/>
			<path d="M1169.279-42.777c-5.256,0-9.54-0.991-12.854-2.97c-3.316-1.981-5.761-4.892-7.338-8.733
				c-1.577-3.837-2.364-8.467-2.364-13.885v-21.101c0-5.58,0.787-10.267,2.364-14.068c1.577-3.8,4.043-6.671,7.398-8.611
				c3.353-1.941,7.619-2.91,12.794-2.91c5.579,0,9.924,1.051,13.037,3.153c3.112,2.103,5.336,5.154,6.67,9.156
				c1.335,4.001,2.002,8.874,2.002,14.613v9.943h-27.893v13.825c0,2.265,0.222,4.125,0.667,5.58
				c0.444,1.455,1.153,2.505,2.123,3.153c0.969,0.648,2.141,0.969,3.516,0.969c1.455,0,2.626-0.343,3.516-1.031
				c0.89-0.686,1.535-1.698,1.941-3.032c0.404-1.334,0.606-3.01,0.606-5.032v-5.821h15.402v4.73c0,7.114-1.779,12.572-5.336,16.371
				C1181.971-44.675,1176.556-42.777,1169.279-42.777z M1163.094-86.312h12.37v-6.671c0-2.425-0.202-4.385-0.606-5.881
				c-0.406-1.496-1.051-2.586-1.941-3.275c-0.891-0.686-2.142-1.031-3.759-1.031c-1.455,0-2.628,0.364-3.516,1.092
				c-0.891,0.728-1.537,1.94-1.941,3.638c-0.405,1.697-0.606,4.124-0.606,7.277V-86.312z"/>
			<path d="M1232.704-43.868v-98.23h28.863c5.901,0,10.691,1.092,14.37,3.275c3.678,2.183,6.386,5.356,8.125,9.519
				c1.739,4.165,2.608,9.199,2.608,15.099c0,6.387-1.092,11.541-3.275,15.461c-2.183,3.922-5.235,6.773-9.156,8.55
				c-3.922,1.779-8.55,2.667-13.886,2.667h-9.701v43.659H1232.704z M1250.652-100.138h6.791c3.233,0,5.761-0.463,7.579-1.394
				c1.819-0.928,3.072-2.426,3.759-4.487c0.686-2.061,1.031-4.83,1.031-8.307c0-3.557-0.263-6.447-0.788-8.671
				c-0.526-2.222-1.657-3.859-3.396-4.911c-1.739-1.05-4.468-1.577-8.186-1.577h-6.791V-100.138z"/>
			<path d="M1308.135-42.777c-3.153,0-5.862-0.829-8.125-2.486c-2.265-1.655-4.002-3.758-5.215-6.304
				c-1.212-2.548-1.818-5.194-1.818-7.945c0-4.365,0.807-8.043,2.426-11.036c1.616-2.989,3.759-5.497,6.427-7.519
				c2.668-2.02,5.7-3.777,9.095-5.275c3.396-1.496,6.831-2.849,10.308-4.063v-6.063c0-2.02-0.142-3.718-0.424-5.093
				c-0.284-1.373-0.81-2.426-1.577-3.153c-0.77-0.728-1.961-1.091-3.578-1.091c-1.375,0-2.485,0.324-3.334,0.97
				c-0.849,0.648-1.455,1.557-1.819,2.728c-0.364,1.173-0.587,2.528-0.667,4.062l-0.243,4.246l-15.643-0.607
				c0.242-8.083,2.244-14.047,6.003-17.888c3.759-3.839,9.478-5.76,17.159-5.76c7.034,0,12.146,1.94,15.341,5.821
				c3.194,3.881,4.791,9.137,4.791,15.765v32.38c0,2.589,0.061,4.932,0.182,7.035s0.282,4.001,0.485,5.699
				c0.201,1.698,0.383,3.194,0.547,4.487h-14.795c-0.243-1.617-0.545-3.456-0.91-5.518c-0.363-2.062-0.627-3.577-0.788-4.547
				c-0.808,2.829-2.346,5.397-4.608,7.7C1315.087-43.927,1312.016-42.777,1308.135-42.777z M1314.198-55.025
				c1.05,0,2.041-0.26,2.971-0.788c0.929-0.524,1.759-1.15,2.486-1.879c0.728-0.729,1.253-1.374,1.577-1.941v-19.524
				c-1.779,1.052-3.456,2.103-5.032,3.153c-1.577,1.052-2.953,2.203-4.124,3.456c-1.173,1.255-2.061,2.608-2.668,4.063
				c-0.606,1.455-0.909,3.153-0.909,5.094c0,2.589,0.504,4.63,1.516,6.123C1311.025-55.771,1312.419-55.025,1314.198-55.025z"/>
			<path d="M1368.406-42.777c-5.903,0-10.754-1.577-14.553-4.73c-3.801-3.153-6.509-7.761-8.125-13.825l12.248-4.73
				c0.969,3.803,2.262,6.713,3.881,8.733c1.616,2.022,3.717,3.032,6.305,3.032c1.941,0,3.396-0.486,4.366-1.455
				c0.969-0.972,1.455-2.305,1.455-4.003c0-1.939-0.588-3.699-1.759-5.275c-1.173-1.577-3.173-3.535-6.003-5.88l-8.489-7.156
				c-3.073-2.667-5.56-5.397-7.458-8.185c-1.901-2.789-2.851-6.285-2.851-10.491c0-3.799,0.868-7.052,2.608-9.761
				c1.737-2.708,4.124-4.81,7.155-6.306c3.032-1.496,6.406-2.243,10.125-2.243c5.659,0,10.206,1.679,13.644,5.032
				c3.436,3.356,5.638,7.742,6.609,13.159l-10.793,4.608c-0.406-1.941-0.991-3.739-1.759-5.397
				c-0.769-1.658-1.758-3.011-2.971-4.064c-1.212-1.049-2.628-1.577-4.244-1.577c-1.698,0-3.053,0.527-4.063,1.577
				c-1.012,1.052-1.516,2.386-1.516,4.002c0,1.376,0.586,2.789,1.759,4.244c1.171,1.455,2.85,3.115,5.032,4.973l8.61,7.761
				c1.859,1.619,3.638,3.356,5.336,5.216c1.698,1.86,3.112,3.941,4.244,6.245c1.131,2.305,1.698,4.953,1.698,7.943
				c0,4.044-0.91,7.44-2.728,10.188c-1.819,2.748-4.287,4.832-7.398,6.245C1375.662-43.484,1372.205-42.777,1368.406-42.777z"/>
			<path d="M1416.914-42.777c-5.903,0-10.754-1.577-14.553-4.73c-3.801-3.153-6.509-7.761-8.125-13.825l12.248-4.73
				c0.969,3.803,2.262,6.713,3.881,8.733c1.616,2.022,3.717,3.032,6.305,3.032c1.941,0,3.396-0.486,4.367-1.455
				c0.969-0.972,1.455-2.305,1.455-4.003c0-1.939-0.588-3.699-1.759-5.275c-1.173-1.577-3.173-3.535-6.003-5.88l-8.489-7.156
				c-3.073-2.667-5.56-5.397-7.458-8.185c-1.901-2.789-2.851-6.285-2.851-10.491c0-3.799,0.868-7.052,2.608-9.761
				c1.737-2.708,4.124-4.81,7.155-6.306c3.032-1.496,6.406-2.243,10.125-2.243c5.659,0,10.206,1.679,13.644,5.032
				c3.435,3.356,5.638,7.742,6.609,13.159l-10.793,4.608c-0.406-1.941-0.991-3.739-1.759-5.397
				c-0.769-1.658-1.758-3.011-2.971-4.064c-1.212-1.049-2.628-1.577-4.244-1.577c-1.698,0-3.053,0.527-4.063,1.577
				c-1.012,1.052-1.516,2.386-1.516,4.002c0,1.376,0.586,2.789,1.759,4.244c1.171,1.455,2.849,3.115,5.032,4.973l8.611,7.761
				c1.859,1.619,3.638,3.356,5.336,5.216c1.698,1.86,3.112,3.941,4.244,6.245c1.131,2.305,1.698,4.953,1.698,7.943
				c0,4.044-0.91,7.44-2.728,10.188c-1.819,2.748-4.287,4.832-7.398,6.245C1424.17-43.484,1420.713-42.777,1416.914-42.777z"/>
			<path d="M1446.867-125.119v-13.704h16.493v13.704H1446.867z M1446.867-43.868v-70.095h16.493v70.095H1446.867z"/>
			<path d="M1497.678-42.777c-5.093,0-9.298-0.95-12.612-2.849c-3.316-1.9-5.802-4.67-7.459-8.307
				c-1.658-3.639-2.485-8.045-2.485-13.22v-23.527c0-5.173,0.828-9.58,2.485-13.218c1.656-3.638,4.143-6.406,7.459-8.307
				c3.314-1.898,7.519-2.85,12.612-2.85s9.317,0.951,12.673,2.85c3.353,1.9,5.86,4.669,7.519,8.307
				c1.655,3.638,2.486,8.045,2.486,13.218v23.527c0,5.175-0.831,9.581-2.486,13.22c-1.659,3.637-4.165,6.406-7.519,8.307
				C1506.995-43.727,1502.771-42.777,1497.678-42.777z M1497.799-54.175c1.859,0,3.233-0.526,4.124-1.577
				c0.888-1.05,1.455-2.486,1.697-4.306c0.243-1.819,0.364-3.82,0.364-6.004V-91.77c0-2.182-0.121-4.163-0.364-5.942
				c-0.242-1.777-0.808-3.214-1.697-4.305c-0.891-1.092-2.265-1.637-4.124-1.637c-1.861,0-3.234,0.545-4.124,1.637
				c-0.891,1.091-1.475,2.528-1.758,4.305c-0.284,1.779-0.425,3.76-0.425,5.942v25.709c0,2.184,0.141,4.184,0.425,6.004
				c0.282,1.819,0.867,3.255,1.758,4.306C1494.565-54.701,1495.938-54.175,1497.799-54.175z"/>
			<path d="M1531.633-43.868v-70.095h16.492v7.034c2.505-2.426,5.155-4.385,7.944-5.881c2.789-1.496,5.8-2.243,9.034-2.243
				c2.91,0,5.214,0.708,6.912,2.122c1.698,1.416,2.951,3.295,3.759,5.639c0.807,2.346,1.213,4.892,1.213,7.64v55.785h-16.493
				v-52.511c0-2.101-0.324-3.718-0.97-4.85c-0.648-1.131-1.9-1.698-3.759-1.698c-1.132,0-2.365,0.324-3.699,0.97
				c-1.334,0.648-2.649,1.455-3.942,2.426v55.663H1531.633z"/>
			<path d="M1646.112-42.534c-7.197,0-12.836-1.413-16.917-4.244c-4.083-2.829-6.934-6.69-8.55-11.582
				c-1.618-4.892-2.426-10.529-2.426-16.918v-35.046c0-6.71,0.807-12.531,2.426-17.464c1.616-4.93,4.467-8.731,8.55-11.399
				c4.081-2.667,9.721-4.002,16.917-4.002c6.791,0,12.107,1.153,15.947,3.457c3.839,2.304,6.567,5.599,8.185,9.883
				c1.617,4.287,2.426,9.258,2.426,14.917v8.246h-17.22v-8.489c0-2.747-0.143-5.255-0.425-7.519
				c-0.284-2.263-1.051-4.063-2.304-5.397c-1.254-1.335-3.416-2.002-6.487-2.002c-3.073,0-5.318,0.709-6.73,2.123
				c-1.416,1.415-2.325,3.315-2.729,5.699c-0.406,2.386-0.606,5.075-0.606,8.065v42.687c0,3.558,0.282,6.487,0.849,8.793
				c0.565,2.303,1.596,4.044,3.092,5.213c1.495,1.174,3.536,1.76,6.124,1.76c2.99,0,5.112-0.707,6.366-2.122
				c1.253-1.415,2.041-3.294,2.365-5.639c0.323-2.344,0.486-4.973,0.486-7.883v-8.852h17.22v7.883
				c0,5.821-0.769,10.974-2.304,15.461c-1.536,4.487-4.225,8.004-8.064,10.55C1658.461-43.808,1653.064-42.534,1646.112-42.534z"/>
			<path d="M1705.292-42.777c-5.093,0-9.298-0.95-12.612-2.849c-3.316-1.9-5.802-4.67-7.459-8.307
				c-1.658-3.639-2.485-8.045-2.485-13.22v-23.527c0-5.173,0.828-9.58,2.485-13.218c1.656-3.638,4.143-6.406,7.459-8.307
				c3.314-1.898,7.519-2.85,12.612-2.85s9.317,0.951,12.673,2.85c3.353,1.9,5.86,4.669,7.519,8.307
				c1.655,3.638,2.486,8.045,2.486,13.218v23.527c0,5.175-0.831,9.581-2.486,13.22c-1.659,3.637-4.165,6.406-7.519,8.307
				C1714.609-43.727,1710.385-42.777,1705.292-42.777z M1705.413-54.175c1.859,0,3.233-0.526,4.124-1.577
				c0.888-1.05,1.455-2.486,1.697-4.306c0.243-1.819,0.364-3.82,0.364-6.004V-91.77c0-2.182-0.121-4.163-0.364-5.942
				c-0.242-1.777-0.808-3.214-1.697-4.305c-0.891-1.092-2.265-1.637-4.124-1.637c-1.861,0-3.234,0.545-4.124,1.637
				c-0.891,1.091-1.475,2.528-1.758,4.305c-0.284,1.779-0.425,3.76-0.425,5.942v25.709c0,2.184,0.141,4.184,0.425,6.004
				c0.282,1.819,0.867,3.255,1.758,4.306C1702.179-54.701,1703.552-54.175,1705.413-54.175z"/>
			<path d="M1739.246-43.868v-70.095h15.886v6.063c2.426-2.586,5.052-4.466,7.883-5.638c2.829-1.172,5.699-1.759,8.611-1.759
				c2.747,0,5.154,0.688,7.215,2.061c2.062,1.376,3.578,3.559,4.548,6.549c2.668-3.072,5.498-5.275,8.489-6.61
				c2.99-1.334,6.063-2.001,9.217-2.001c2.505,0,4.73,0.627,6.671,1.88c1.94,1.254,3.475,3.113,4.607,5.578
				c1.131,2.467,1.698,5.56,1.698,9.277v54.694h-15.765v-53.237c0-2.668-0.445-4.507-1.334-5.518
				c-0.891-1.011-2.143-1.516-3.76-1.516c-1.293,0-2.728,0.363-4.305,1.091c-1.577,0.728-3.013,1.74-4.305,3.032
				c0,0.243,0,0.467,0,0.667c0,0.203,0,0.467,0,0.788v54.694h-15.644v-53.237c0-2.668-0.467-4.507-1.395-5.518
				c-0.93-1.011-2.204-1.516-3.82-1.516c-1.294,0-2.71,0.363-4.245,1.091c-1.536,0.728-2.991,1.74-4.365,3.032v56.149H1739.246z"/>
			<path d="M1826.317-20.826v-93.137h16.492v5.336c2.02-1.94,4.245-3.495,6.671-4.669c2.424-1.171,4.972-1.758,7.64-1.758
				c3.153,0,5.74,0.728,7.761,2.183c2.02,1.455,3.596,3.377,4.729,5.76c1.131,2.386,1.92,4.933,2.365,7.64
				c0.444,2.711,0.667,5.317,0.667,7.822v23.77c0,4.608-0.545,8.812-1.636,12.611c-1.092,3.803-2.831,6.835-5.215,9.097
				c-2.385,2.263-5.56,3.394-9.519,3.394c-2.508,0-4.871-0.605-7.095-1.819c-2.224-1.212-4.347-2.746-6.367-4.608v28.379H1826.317z
				 M1850.086-54.297c1.777,0,3.092-0.586,3.941-1.76c0.849-1.17,1.414-2.746,1.697-4.728c0.283-1.981,0.425-4.144,0.425-6.49
				v-25.102c0-2.184-0.163-4.142-0.485-5.882c-0.325-1.737-0.931-3.132-1.819-4.184c-0.891-1.049-2.183-1.577-3.881-1.577
				c-1.294,0-2.567,0.304-3.82,0.91c-1.255,0.606-2.365,1.316-3.335,2.122v44.264c1.05,0.729,2.183,1.317,3.396,1.76
				C1847.418-54.518,1848.71-54.297,1850.086-54.297z"/>
			<path d="M1897.625-42.777c-3.153,0-5.862-0.829-8.125-2.486c-2.265-1.655-4.002-3.758-5.215-6.304
				c-1.212-2.548-1.818-5.194-1.818-7.945c0-4.365,0.807-8.043,2.426-11.036c1.616-2.989,3.759-5.497,6.427-7.519
				c2.669-2.02,5.7-3.777,9.095-5.275c3.396-1.496,6.832-2.849,10.309-4.063v-6.063c0-2.02-0.142-3.718-0.424-5.093
				c-0.284-1.373-0.81-2.426-1.577-3.153c-0.77-0.728-1.961-1.091-3.578-1.091c-1.375,0-2.485,0.324-3.334,0.97
				c-0.849,0.648-1.455,1.557-1.819,2.728c-0.364,1.173-0.587,2.528-0.667,4.062l-0.243,4.246l-15.643-0.607
				c0.242-8.083,2.243-14.047,6.003-17.888c3.759-3.839,9.478-5.76,17.159-5.76c7.034,0,12.146,1.94,15.341,5.821
				c3.194,3.881,4.791,9.137,4.791,15.765v32.38c0,2.589,0.061,4.932,0.182,7.035s0.282,4.001,0.485,5.699
				c0.201,1.698,0.383,3.194,0.546,4.487h-14.795c-0.243-1.617-0.545-3.456-0.91-5.518c-0.363-2.062-0.627-3.577-0.788-4.547
				c-0.808,2.829-2.346,5.397-4.608,7.7C1904.577-43.927,1901.505-42.777,1897.625-42.777z M1903.688-55.025
				c1.05,0,2.041-0.26,2.971-0.788c0.929-0.524,1.759-1.15,2.486-1.879c0.728-0.729,1.253-1.374,1.577-1.941v-19.524
				c-1.779,1.052-3.456,2.103-5.032,3.153c-1.577,1.052-2.953,2.203-4.124,3.456c-1.173,1.255-2.061,2.608-2.668,4.063
				c-0.606,1.455-0.909,3.153-0.909,5.094c0,2.589,0.504,4.63,1.516,6.123C1900.515-55.771,1901.909-55.025,1903.688-55.025z"/>
			<path d="M1938.857-43.868v-70.095h16.492v7.034c2.505-2.426,5.155-4.385,7.944-5.881c2.789-1.496,5.8-2.243,9.035-2.243
				c2.91,0,5.214,0.708,6.912,2.122c1.698,1.416,2.951,3.295,3.759,5.639c0.807,2.346,1.213,4.892,1.213,7.64v55.785h-16.494
				v-52.511c0-2.101-0.324-3.718-0.97-4.85c-0.648-1.131-1.9-1.698-3.759-1.698c-1.132,0-2.365,0.324-3.699,0.97
				c-1.334,0.648-2.649,1.455-3.941,2.426v55.663H1938.857z"/>
			<path d="M1996.824-24.827v-11.886c2.829,0,5.134-0.162,6.912-0.484c1.778-0.324,3.072-0.891,3.881-1.698
				c0.807-0.81,1.213-1.941,1.213-3.396c0-1.052-0.264-2.708-0.788-4.973c-0.527-2.263-1.113-4.73-1.759-7.397l-15.401-59.302
				h16.008l9.095,46.206l7.883-46.206h15.886l-16.371,72.884c-0.891,4.123-2.386,7.357-4.488,9.702
				c-2.103,2.344-4.729,4.02-7.882,5.032c-3.153,1.01-6.834,1.517-11.036,1.517H1996.824z"/>
		</g>
		<g>
			<path d="M1674.887-345.981c0,65.686-48.4,120.07-111.484,129.437c42.8-48.681,15.211-98.196-4.062-143.712
				c-8.688-21.541-17.312-47.823-5.856-68.62c13.481-24.475,41.121-25.987,57.28-4.062c11.904,16.159,8.919,52.295-32.036,66.339
				c34.65,0.384,72.401-15.787,65.75-63.251C1663.47-407.143,1674.887-377.889,1674.887-345.981z"/>
			<path d="M1524.874-564.463c23.101,103.785-121.316,116.094-126.793,237.149c13.545-20.102,35.561-33.362,60.699-35.362
				c15.288-1.431,30.187,0.859,43.985,5.34c-7.27,0.197-14.425,0.63-21.399,1.676c-10.517,1.512-21.11,4.44-30.683,9.2
				c-7.078,3.34-13.446,7.928-18.833,13.477c-0.105,0.108-0.208,0.219-0.313,0.328c-0.741,0.774-1.462,1.565-2.164,2.375
				c-0.051,0.059-0.107,0.113-0.158,0.173c-0.035,0.042-0.067,0.085-0.102,0.126c-7.438,8.687-12.608,19.364-14.605,31.128
				c-0.01,0.058-0.021,0.115-0.031,0.173c-0.129,0.769-0.239,1.543-0.34,2.321c-0.047,0.351-0.093,0.702-0.134,1.054
				c-0.063,0.554-0.116,1.111-0.164,1.67c-0.052,0.581-0.097,1.161-0.132,1.742c-0.024,0.396-0.044,0.793-0.061,1.191
				c-0.032,0.737-0.049,1.472-0.056,2.207c-0.002,0.179-0.014,0.355-0.014,0.534c0,0.129,0.009,0.255,0.01,0.384
				c0.005,0.783,0.026,1.565,0.059,2.346c0.013,0.304,0.022,0.608,0.039,0.91c0.04,0.698,0.097,1.393,0.159,2.088
				c0.035,0.402,0.065,0.805,0.108,1.205c0.05,0.456,0.114,0.909,0.173,1.363c4.075,31.79,31.215,56.365,64.113,56.365
				c35.711,0,64.661-28.95,64.661-64.661c0-0.011-0.001-0.021-0.001-0.032c0.098-5.042-0.337-10.419-1.091-16.408
				c-1.921-13.706-8.405-28.526-12.521-42.355c-1.999-6.512-3.876-13.247-5.121-19.961c-4.656-23.734-3.74-49.679,7.406-71.665
				c7.332-14.72,19.283-27.199,33.668-34.923c7.234-3.984,15.337-6.762,23.672-8.196
				C1582.698-509.474,1560.022-546.606,1524.874-564.463z"/>
		</g>
	</g>
	<g>
		<g>
			<path d="M2049.435,391.987c0,117.85-86.835,215.421-200.018,232.228c76.788-87.341,27.29-176.177-7.288-257.839
				c-15.588-38.647-31.06-85.801-10.507-123.114c24.186-43.912,73.777-46.625,102.768-7.288
				c21.358,28.991,16.001,93.824-57.476,119.022c62.166,0.69,129.897-28.324,117.964-113.481
				C2028.95,282.253,2049.435,334.74,2049.435,391.987z"/>
			<path d="M1780.292,0c41.446,186.203-217.658,208.289-227.484,425.478c24.302-36.066,63.801-59.857,108.903-63.443
				c27.429-2.567,54.16,1.541,78.914,9.581c-13.043,0.353-25.88,1.131-38.393,3.008c-18.87,2.712-37.874,7.966-55.05,16.506
				c-12.698,5.992-24.124,14.223-33.789,24.18c-0.189,0.194-0.374,0.393-0.562,0.589c-1.329,1.388-2.622,2.809-3.882,4.262
				c-0.092,0.106-0.191,0.203-0.283,0.31c-0.063,0.075-0.119,0.152-0.182,0.227c-13.345,15.586-22.621,34.742-26.204,55.849
				c-0.018,0.103-0.038,0.207-0.055,0.31c-0.23,1.38-0.429,2.769-0.61,4.164c-0.083,0.63-0.167,1.26-0.24,1.891
				c-0.113,0.995-0.208,1.994-0.295,2.996c-0.093,1.042-0.173,2.084-0.238,3.125c-0.043,0.711-0.079,1.423-0.109,2.137
				c-0.057,1.322-0.089,2.641-0.1,3.96c-0.003,0.321-0.024,0.637-0.024,0.959c0,0.231,0.016,0.458,0.017,0.689
				c0.008,1.406,0.047,2.808,0.106,4.208c0.023,0.545,0.04,1.09,0.07,1.633c0.071,1.252,0.173,2.5,0.285,3.747
				c0.063,0.721,0.117,1.444,0.194,2.162c0.089,0.818,0.204,1.631,0.311,2.446c7.311,57.036,56.004,101.126,115.028,101.126
				c64.071,0,116.011-51.94,116.011-116.011c0-0.019-0.001-0.038-0.001-0.057c0.175-9.047-0.604-18.693-1.958-29.439
				c-3.446-24.59-15.08-51.179-22.464-75.991c-3.587-11.683-6.955-23.767-9.188-35.813c-8.354-42.583-6.71-89.131,13.287-128.577
				c13.154-26.409,34.595-48.799,60.404-62.657c12.978-7.147,27.517-12.132,42.47-14.704
				C1884.035,98.658,1843.351,32.038,1780.292,0z"/>
		</g>
	</g>
	<g>
		<g>
			<path style="fill:#FFFFFF;" d="M1529.842,1033.017c0,117.85-86.835,215.422-200.018,232.228
				c76.789-87.341,27.29-176.177-7.288-257.839c-15.588-38.647-31.06-85.801-10.507-123.114
				c24.186-43.912,73.777-46.625,102.768-7.288c21.358,28.991,16.001,93.824-57.476,119.022
				c62.166,0.69,129.897-28.324,117.964-113.481C1509.357,923.284,1529.842,975.771,1529.842,1033.017z"/>
			<path style="fill:#FFFFFF;" d="M1260.698,641.031c41.446,186.203-217.658,208.289-227.484,425.478
				c24.302-36.066,63.801-59.857,108.903-63.443c27.429-2.567,54.16,1.541,78.914,9.581c-13.043,0.353-25.88,1.131-38.393,3.008
				c-18.87,2.712-37.873,7.966-55.05,16.506c-12.699,5.992-24.124,14.223-33.789,24.18c-0.189,0.194-0.374,0.393-0.562,0.589
				c-1.329,1.388-2.623,2.809-3.882,4.262c-0.092,0.106-0.191,0.203-0.283,0.31c-0.063,0.074-0.119,0.152-0.182,0.226
				c-13.345,15.586-22.621,34.742-26.204,55.849c-0.018,0.103-0.038,0.207-0.055,0.31c-0.23,1.38-0.429,2.769-0.61,4.164
				c-0.083,0.63-0.167,1.26-0.24,1.891c-0.113,0.995-0.208,1.994-0.295,2.996c-0.093,1.042-0.173,2.083-0.238,3.125
				c-0.043,0.711-0.079,1.423-0.109,2.137c-0.057,1.322-0.089,2.641-0.1,3.96c-0.003,0.321-0.024,0.637-0.024,0.959
				c0,0.231,0.016,0.458,0.017,0.689c0.008,1.406,0.047,2.808,0.106,4.208c0.023,0.545,0.04,1.09,0.07,1.633
				c0.071,1.252,0.173,2.5,0.285,3.747c0.063,0.721,0.117,1.444,0.194,2.162c0.089,0.818,0.204,1.631,0.311,2.446
				c7.311,57.036,56.004,101.126,115.028,101.126c64.071,0,116.011-51.94,116.011-116.011c0-0.019-0.001-0.038-0.001-0.057
				c0.175-9.046-0.604-18.693-1.958-29.439c-3.446-24.59-15.08-51.179-22.464-75.991c-3.587-11.683-6.955-23.767-9.188-35.813
				c-8.354-42.583-6.71-89.131,13.287-128.577c13.154-26.409,34.595-48.799,60.404-62.657c12.978-7.147,27.517-12.132,42.47-14.704
				C1364.441,739.689,1323.758,673.069,1260.698,641.031z"/>
		</g>
	</g>
	<g>
		<g>
			<linearGradient id="SVGID_1_" gradientUnits="userSpaceOnUse" x1="1415.9935" y1="208.2857" x2="1415.9935" y2="624.2143">
				<stop  offset="0.1474" style="stop-color:#0367A6"/>
				<stop  offset="1" style="stop-color:#143959"/>
			</linearGradient>
			<path style="fill:url(#SVGID_1_);" d="M1529.842,391.987c0,117.85-86.835,215.421-200.018,232.228
				c76.789-87.341,27.29-176.177-7.288-257.839c-15.588-38.647-31.06-85.801-10.507-123.114
				c24.186-43.912,73.777-46.625,102.768-7.288c21.358,28.991,16.001,93.824-57.476,119.022
				c62.166,0.69,129.897-28.324,117.964-113.481C1509.357,282.253,1529.842,334.74,1529.842,391.987z"/>
			
				<linearGradient id="SVGID_00000121996665722524038270000011316144292523429301_" gradientUnits="userSpaceOnUse" x1="1204.4011" y1="-5.9321" x2="1204.4011" y2="607.2712">
				<stop  offset="0" style="stop-color:#BF2431"/>
				<stop  offset="0.7404" style="stop-color:#F28705"/>
				<stop  offset="1" style="stop-color:#F2B705"/>
			</linearGradient>
			<path style="fill:url(#SVGID_00000121996665722524038270000011316144292523429301_);" d="M1260.698,0
				c41.446,186.203-217.658,208.289-227.484,425.478c24.302-36.066,63.801-59.857,108.903-63.443
				c27.429-2.567,54.16,1.541,78.914,9.581c-13.043,0.353-25.88,1.131-38.393,3.008c-18.87,2.712-37.873,7.966-55.05,16.506
				c-12.699,5.992-24.124,14.223-33.789,24.18c-0.189,0.194-0.374,0.393-0.562,0.589c-1.329,1.388-2.623,2.809-3.882,4.262
				c-0.092,0.106-0.191,0.203-0.283,0.31c-0.063,0.075-0.119,0.152-0.182,0.227c-13.345,15.586-22.621,34.742-26.204,55.849
				c-0.018,0.103-0.038,0.207-0.055,0.31c-0.23,1.38-0.429,2.769-0.61,4.164c-0.083,0.63-0.167,1.26-0.24,1.891
				c-0.113,0.995-0.208,1.994-0.295,2.996c-0.093,1.042-0.173,2.084-0.238,3.125c-0.043,0.711-0.079,1.423-0.109,2.137
				c-0.057,1.322-0.089,2.641-0.1,3.96c-0.003,0.321-0.024,0.637-0.024,0.959c0,0.231,0.016,0.458,0.017,0.689
				c0.008,1.406,0.047,2.808,0.106,4.208c0.023,0.545,0.04,1.09,0.07,1.633c0.071,1.252,0.173,2.5,0.285,3.747
				c0.063,0.721,0.117,1.444,0.194,2.162c0.089,0.818,0.204,1.631,0.311,2.446c7.311,57.036,56.004,101.126,115.028,101.126
				c64.071,0,116.011-51.94,116.011-116.011c0-0.019-0.001-0.038-0.001-0.057c0.175-9.047-0.604-18.693-1.958-29.439
				c-3.446-24.59-15.08-51.179-22.464-75.991c-3.587-11.683-6.955-23.767-9.188-35.813c-8.354-42.583-6.71-89.131,13.287-128.577
				c13.154-26.409,34.595-48.799,60.404-62.657c12.978-7.147,27.517-12.132,42.47-14.704
				C1364.441,98.658,1323.758,32.038,1260.698,0z"/>
		</g>
	</g>
	<g>
		<g>
			<path style="fill:#FFFFFF;" d="M15.644,520.596v-85.011H0v-13.219h48.993v13.219H33.592v85.011H15.644z"/>
			<path style="fill:#FFFFFF;" d="M57.117,520.596v-98.23h16.493v34.805c2.426-2.426,5.073-4.325,7.944-5.7
				c2.869-1.374,6.003-2.061,9.398-2.061c2.829,0,5.094,0.708,6.792,2.122c1.697,1.416,2.95,3.295,3.759,5.639
				c0.806,2.346,1.212,4.892,1.212,7.64v55.785H86.223v-52.511c0-2.101-0.325-3.718-0.97-4.85c-0.649-1.131-1.9-1.698-3.759-1.698
				c-1.133,0-2.406,0.324-3.82,0.97c-1.416,0.648-2.771,1.497-4.063,2.546v55.543H57.117z"/>
			<path style="fill:#FFFFFF;" d="M136.065,521.686c-5.256,0-9.54-0.991-12.854-2.97c-3.316-1.981-5.761-4.892-7.338-8.733
				c-1.577-3.837-2.364-8.467-2.364-13.885v-21.101c0-5.58,0.787-10.267,2.364-14.068c1.577-3.8,4.043-6.671,7.398-8.611
				c3.353-1.941,7.619-2.91,12.794-2.91c5.579,0,9.924,1.051,13.037,3.153c3.112,2.103,5.336,5.154,6.67,9.156
				c1.335,4.001,2.002,8.874,2.002,14.613v9.943H129.88V500.1c0,2.265,0.222,4.125,0.667,5.58c0.444,1.455,1.153,2.505,2.123,3.153
				c0.969,0.648,2.141,0.969,3.516,0.969c1.455,0,2.626-0.343,3.516-1.031c0.889-0.686,1.535-1.698,1.941-3.032
				c0.404-1.334,0.606-3.01,0.606-5.032v-5.821h15.402v4.73c0,7.114-1.779,12.572-5.336,16.371
				C148.756,519.788,143.342,521.686,136.065,521.686z M129.88,478.151h12.37v-6.671c0-2.425-0.202-4.385-0.606-5.881
				c-0.406-1.496-1.051-2.586-1.941-3.275c-0.891-0.686-2.142-1.031-3.759-1.031c-1.455,0-2.628,0.364-3.516,1.092
				c-0.891,0.728-1.537,1.94-1.941,3.638c-0.405,1.697-0.606,4.124-0.606,7.277V478.151z"/>
			<path style="fill:#FFFFFF;" d="M199.489,520.596v-98.23h28.863c5.9,0,10.691,1.092,14.37,3.275
				c3.678,2.183,6.386,5.356,8.125,9.519c1.739,4.165,2.608,9.199,2.608,15.099c0,6.387-1.092,11.541-3.275,15.461
				c-2.183,3.922-5.235,6.773-9.156,8.55c-3.922,1.779-8.55,2.667-13.886,2.667h-9.701v43.659H199.489z M217.438,464.325h6.791
				c3.233,0,5.761-0.463,7.579-1.394c1.819-0.928,3.072-2.426,3.759-4.487c0.686-2.061,1.031-4.83,1.031-8.307
				c0-3.557-0.263-6.447-0.788-8.671c-0.526-2.222-1.658-3.859-3.396-4.911c-1.739-1.05-4.468-1.577-8.185-1.577h-6.791V464.325z"/>
			<path style="fill:#FFFFFF;" d="M274.92,521.686c-3.153,0-5.862-0.829-8.125-2.486c-2.265-1.655-4.002-3.758-5.216-6.304
				c-1.212-2.548-1.818-5.194-1.818-7.945c0-4.365,0.807-8.043,2.426-11.036c1.616-2.989,3.759-5.497,6.427-7.519
				c2.668-2.02,5.7-3.777,9.095-5.275c3.396-1.496,6.832-2.849,10.309-4.063v-6.063c0-2.02-0.142-3.718-0.424-5.093
				c-0.284-1.373-0.81-2.426-1.577-3.153c-0.77-0.728-1.961-1.091-3.578-1.091c-1.375,0-2.485,0.324-3.334,0.97
				c-0.849,0.648-1.455,1.557-1.819,2.728c-0.364,1.173-0.587,2.528-0.667,4.062l-0.243,4.246l-15.643-0.607
				c0.242-8.083,2.243-14.047,6.003-17.888c3.759-3.839,9.478-5.76,17.159-5.76c7.034,0,12.146,1.94,15.341,5.821
				c3.194,3.881,4.79,9.137,4.79,15.765v32.38c0,2.589,0.061,4.932,0.182,7.035c0.121,2.103,0.282,4.001,0.485,5.699
				c0.201,1.698,0.383,3.194,0.546,4.487h-14.795c-0.243-1.617-0.545-3.456-0.91-5.518c-0.363-2.062-0.627-3.577-0.788-4.547
				c-0.809,2.829-2.346,5.397-4.608,7.7C281.872,520.536,278.801,521.686,274.92,521.686z M280.984,509.438
				c1.05,0,2.041-0.26,2.971-0.788c0.929-0.524,1.759-1.15,2.486-1.879c0.728-0.729,1.253-1.374,1.577-1.941v-19.524
				c-1.779,1.052-3.456,2.103-5.032,3.153c-1.577,1.052-2.953,2.203-4.124,3.456c-1.173,1.255-2.061,2.608-2.668,4.063
				c-0.606,1.455-0.909,3.153-0.909,5.094c0,2.589,0.504,4.63,1.516,6.123C277.81,508.692,279.205,509.438,280.984,509.438z"/>
			<path style="fill:#FFFFFF;" d="M335.192,521.686c-5.903,0-10.754-1.577-14.553-4.73c-3.801-3.153-6.509-7.762-8.125-13.825
				l12.248-4.73c0.969,3.803,2.262,6.713,3.881,8.733c1.616,2.022,3.717,3.032,6.305,3.032c1.941,0,3.396-0.486,4.366-1.455
				c0.969-0.971,1.455-2.305,1.455-4.003c0-1.939-0.588-3.699-1.759-5.275c-1.173-1.577-3.173-3.535-6.003-5.88l-8.489-7.156
				c-3.073-2.667-5.56-5.397-7.458-8.185c-1.901-2.789-2.851-6.285-2.851-10.491c0-3.799,0.868-7.052,2.608-9.761
				c1.737-2.708,4.124-4.81,7.155-6.306c3.032-1.496,6.406-2.243,10.125-2.243c5.659,0,10.206,1.679,13.644,5.032
				c3.435,3.356,5.638,7.742,6.609,13.159l-10.793,4.608c-0.406-1.941-0.991-3.739-1.759-5.397
				c-0.769-1.658-1.758-3.012-2.971-4.064c-1.212-1.049-2.628-1.577-4.244-1.577c-1.698,0-3.053,0.527-4.063,1.577
				c-1.012,1.052-1.516,2.386-1.516,4.002c0,1.376,0.586,2.789,1.759,4.244c1.171,1.455,2.85,3.115,5.032,4.973l8.611,7.762
				c1.859,1.619,3.638,3.356,5.336,5.216c1.698,1.86,3.112,3.941,4.244,6.245c1.131,2.305,1.698,4.953,1.698,7.943
				c0,4.044-0.91,7.44-2.728,10.188c-1.819,2.748-4.287,4.832-7.398,6.245C342.447,520.979,338.991,521.686,335.192,521.686z"/>
			<path style="fill:#FFFFFF;" d="M383.7,521.686c-5.903,0-10.754-1.577-14.553-4.73c-3.801-3.153-6.509-7.762-8.125-13.825
				l12.248-4.73c0.969,3.803,2.262,6.713,3.881,8.733c1.616,2.022,3.717,3.032,6.305,3.032c1.941,0,3.396-0.486,4.366-1.455
				c0.969-0.971,1.455-2.305,1.455-4.003c0-1.939-0.588-3.699-1.759-5.275c-1.173-1.577-3.173-3.535-6.003-5.88l-8.489-7.156
				c-3.073-2.667-5.56-5.397-7.458-8.185c-1.901-2.789-2.851-6.285-2.851-10.491c0-3.799,0.868-7.052,2.608-9.761
				c1.737-2.708,4.124-4.81,7.155-6.306c3.032-1.496,6.406-2.243,10.125-2.243c5.659,0,10.206,1.679,13.644,5.032
				c3.435,3.356,5.638,7.742,6.609,13.159l-10.793,4.608c-0.406-1.941-0.991-3.739-1.759-5.397
				c-0.769-1.658-1.758-3.012-2.971-4.064c-1.212-1.049-2.628-1.577-4.244-1.577c-1.698,0-3.053,0.527-4.063,1.577
				c-1.012,1.052-1.516,2.386-1.516,4.002c0,1.376,0.586,2.789,1.759,4.244c1.171,1.455,2.85,3.115,5.032,4.973l8.611,7.762
				c1.859,1.619,3.638,3.356,5.336,5.216s3.112,3.941,4.244,6.245c1.131,2.305,1.698,4.953,1.698,7.943
				c0,4.044-0.91,7.44-2.728,10.188c-1.819,2.748-4.287,4.832-7.398,6.245C390.955,520.979,387.498,521.686,383.7,521.686z"/>
			<path style="fill:#FFFFFF;" d="M413.653,439.344V425.64h16.493v13.704H413.653z M413.653,520.596V450.5h16.493v70.095H413.653z"
				/>
			<path style="fill:#FFFFFF;" d="M464.463,521.686c-5.093,0-9.298-0.95-12.612-2.849c-3.316-1.9-5.802-4.67-7.459-8.307
				c-1.658-3.639-2.485-8.045-2.485-13.22v-23.527c0-5.173,0.828-9.58,2.485-13.218c1.656-3.638,4.143-6.406,7.459-8.307
				c3.314-1.898,7.519-2.85,12.612-2.85s9.317,0.951,12.673,2.85c3.353,1.9,5.86,4.669,7.519,8.307
				c1.655,3.638,2.486,8.045,2.486,13.218v23.527c0,5.175-0.831,9.581-2.486,13.22c-1.659,3.637-4.165,6.406-7.519,8.307
				C473.78,520.736,469.556,521.686,464.463,521.686z M464.585,510.288c1.859,0,3.233-0.526,4.124-1.577
				c0.888-1.05,1.455-2.486,1.697-4.306c0.243-1.819,0.364-3.82,0.364-6.004v-25.709c0-2.182-0.121-4.163-0.364-5.942
				c-0.242-1.777-0.809-3.214-1.697-4.305c-0.891-1.092-2.265-1.637-4.124-1.637c-1.861,0-3.234,0.545-4.124,1.637
				c-0.891,1.091-1.475,2.528-1.758,4.305c-0.284,1.779-0.425,3.76-0.425,5.942v25.709c0,2.184,0.141,4.184,0.425,6.004
				c0.282,1.819,0.867,3.255,1.758,4.306C461.351,509.762,462.724,510.288,464.585,510.288z"/>
			<path style="fill:#FFFFFF;" d="M498.419,520.596V450.5h16.492v7.034c2.505-2.426,5.155-4.385,7.944-5.881
				c2.789-1.496,5.8-2.243,9.034-2.243c2.91,0,5.214,0.708,6.912,2.122c1.698,1.416,2.951,3.295,3.759,5.639
				c0.807,2.346,1.213,4.892,1.213,7.64v55.785h-16.493v-52.511c0-2.101-0.324-3.718-0.97-4.85c-0.648-1.131-1.9-1.698-3.759-1.698
				c-1.132,0-2.365,0.324-3.699,0.97c-1.334,0.648-2.649,1.455-3.941,2.426v55.663H498.419z"/>
			<path style="fill:#FFFFFF;" d="M612.898,521.929c-7.197,0-12.836-1.413-16.917-4.244c-4.083-2.829-6.934-6.69-8.55-11.582
				c-1.618-4.892-2.426-10.529-2.426-16.918v-35.046c0-6.71,0.807-12.531,2.426-17.464c1.616-4.93,4.467-8.731,8.55-11.399
				c4.081-2.667,9.721-4.002,16.917-4.002c6.791,0,12.107,1.153,15.947,3.457c3.839,2.304,6.567,5.599,8.185,9.883
				c1.617,4.287,2.426,9.258,2.426,14.917v8.246h-17.22v-8.489c0-2.747-0.143-5.255-0.425-7.519
				c-0.284-2.263-1.051-4.063-2.304-5.397c-1.254-1.335-3.416-2.002-6.487-2.002c-3.073,0-5.318,0.709-6.73,2.123
				c-1.416,1.415-2.325,3.315-2.729,5.699c-0.406,2.386-0.606,5.075-0.606,8.065v42.687c0,3.558,0.282,6.487,0.849,8.793
				c0.565,2.303,1.596,4.044,3.092,5.213c1.495,1.174,3.536,1.76,6.124,1.76c2.99,0,5.112-0.707,6.366-2.122
				c1.253-1.415,2.041-3.294,2.365-5.639c0.323-2.344,0.486-4.973,0.486-7.883v-8.852h17.22v7.883
				c0,5.821-0.769,10.974-2.304,15.461c-1.536,4.487-4.225,8.004-8.064,10.55C625.246,520.655,619.85,521.929,612.898,521.929z"/>
			<path style="fill:#FFFFFF;" d="M672.077,521.686c-5.093,0-9.298-0.95-12.612-2.849c-3.316-1.9-5.802-4.67-7.459-8.307
				c-1.658-3.639-2.485-8.045-2.485-13.22v-23.527c0-5.173,0.828-9.58,2.485-13.218c1.656-3.638,4.143-6.406,7.459-8.307
				c3.314-1.898,7.519-2.85,12.612-2.85s9.317,0.951,12.673,2.85c3.353,1.9,5.86,4.669,7.519,8.307
				c1.655,3.638,2.486,8.045,2.486,13.218v23.527c0,5.175-0.831,9.581-2.486,13.22c-1.659,3.637-4.165,6.406-7.519,8.307
				C681.394,520.736,677.17,521.686,672.077,521.686z M672.199,510.288c1.859,0,3.233-0.526,4.124-1.577
				c0.888-1.05,1.455-2.486,1.697-4.306c0.243-1.819,0.364-3.82,0.364-6.004v-25.709c0-2.182-0.121-4.163-0.364-5.942
				c-0.242-1.777-0.809-3.214-1.697-4.305c-0.891-1.092-2.265-1.637-4.124-1.637c-1.861,0-3.234,0.545-4.124,1.637
				c-0.891,1.091-1.475,2.528-1.758,4.305c-0.284,1.779-0.425,3.76-0.425,5.942v25.709c0,2.184,0.141,4.184,0.425,6.004
				c0.282,1.819,0.867,3.255,1.758,4.306C668.965,509.762,670.338,510.288,672.199,510.288z"/>
			<path style="fill:#FFFFFF;" d="M706.031,520.596V450.5h15.886v6.063c2.426-2.586,5.052-4.466,7.883-5.638
				c2.829-1.172,5.699-1.759,8.611-1.759c2.747,0,5.154,0.688,7.215,2.061c2.062,1.376,3.578,3.559,4.548,6.549
				c2.669-3.072,5.498-5.275,8.489-6.61c2.99-1.334,6.063-2.001,9.217-2.001c2.505,0,4.73,0.627,6.671,1.88
				c1.94,1.254,3.475,3.113,4.607,5.578c1.131,2.467,1.698,5.56,1.698,9.277v54.694h-15.765v-53.237
				c0-2.668-0.445-4.507-1.334-5.518c-0.891-1.011-2.143-1.516-3.76-1.516c-1.293,0-2.728,0.363-4.305,1.091
				s-3.013,1.74-4.305,3.032c0,0.243,0,0.467,0,0.667c0,0.203,0,0.467,0,0.788v54.694h-15.644v-53.237
				c0-2.668-0.467-4.507-1.394-5.518c-0.93-1.011-2.204-1.516-3.82-1.516c-1.294,0-2.71,0.363-4.245,1.091
				c-1.536,0.728-2.991,1.74-4.365,3.032v56.149H706.031z"/>
			<path style="fill:#FFFFFF;" d="M793.103,543.637V450.5h16.492v5.336c2.02-1.94,4.245-3.495,6.671-4.669
				c2.424-1.171,4.972-1.758,7.64-1.758c3.153,0,5.74,0.728,7.761,2.183c2.02,1.455,3.596,3.377,4.729,5.76
				c1.131,2.386,1.92,4.933,2.365,7.64c0.444,2.711,0.667,5.317,0.667,7.822v23.77c0,4.608-0.545,8.812-1.636,12.611
				c-1.092,3.803-2.831,6.835-5.216,9.097c-2.385,2.263-5.56,3.394-9.519,3.394c-2.508,0-4.871-0.605-7.095-1.819
				c-2.224-1.212-4.347-2.746-6.367-4.608v28.379H793.103z M816.872,510.167c1.777,0,3.092-0.586,3.941-1.76
				c0.849-1.17,1.414-2.746,1.697-4.728c0.283-1.981,0.425-4.144,0.425-6.49v-25.102c0-2.184-0.163-4.142-0.485-5.882
				c-0.325-1.737-0.931-3.132-1.819-4.184c-0.891-1.049-2.183-1.577-3.881-1.577c-1.294,0-2.567,0.304-3.82,0.91
				c-1.255,0.606-2.365,1.316-3.335,2.122v44.264c1.05,0.729,2.183,1.317,3.396,1.76
				C814.203,509.945,815.496,510.167,816.872,510.167z"/>
			<path style="fill:#FFFFFF;" d="M864.41,521.686c-3.153,0-5.862-0.829-8.125-2.486c-2.265-1.655-4.002-3.758-5.216-6.304
				c-1.212-2.548-1.818-5.194-1.818-7.945c0-4.365,0.807-8.043,2.426-11.036c1.616-2.989,3.759-5.497,6.427-7.519
				c2.669-2.02,5.7-3.777,9.095-5.275c3.396-1.496,6.832-2.849,10.309-4.063v-6.063c0-2.02-0.142-3.718-0.424-5.093
				c-0.284-1.373-0.81-2.426-1.577-3.153c-0.77-0.728-1.961-1.091-3.578-1.091c-1.375,0-2.485,0.324-3.334,0.97
				c-0.849,0.648-1.455,1.557-1.819,2.728c-0.364,1.173-0.587,2.528-0.667,4.062l-0.243,4.246l-15.643-0.607
				c0.242-8.083,2.243-14.047,6.003-17.888c3.759-3.839,9.478-5.76,17.159-5.76c7.034,0,12.146,1.94,15.341,5.821
				c3.194,3.881,4.79,9.137,4.79,15.765v32.38c0,2.589,0.061,4.932,0.182,7.035c0.121,2.103,0.282,4.001,0.485,5.699
				c0.201,1.698,0.383,3.194,0.546,4.487h-14.795c-0.243-1.617-0.545-3.456-0.91-5.518c-0.363-2.062-0.627-3.577-0.788-4.547
				c-0.809,2.829-2.346,5.397-4.608,7.7C871.362,520.536,868.291,521.686,864.41,521.686z M870.474,509.438
				c1.05,0,2.041-0.26,2.971-0.788c0.929-0.524,1.759-1.15,2.486-1.879c0.728-0.729,1.253-1.374,1.577-1.941v-19.524
				c-1.779,1.052-3.456,2.103-5.032,3.153c-1.577,1.052-2.953,2.203-4.124,3.456c-1.173,1.255-2.061,2.608-2.668,4.063
				c-0.606,1.455-0.909,3.153-0.909,5.094c0,2.589,0.504,4.63,1.516,6.123C867.3,508.692,868.695,509.438,870.474,509.438z"/>
			<path style="fill:#FFFFFF;" d="M905.642,520.596V450.5h16.492v7.034c2.505-2.426,5.155-4.385,7.944-5.881
				c2.789-1.496,5.8-2.243,9.034-2.243c2.91,0,5.214,0.708,6.912,2.122c1.698,1.416,2.951,3.295,3.759,5.639
				c0.807,2.346,1.213,4.892,1.213,7.64v55.785h-16.493v-52.511c0-2.101-0.324-3.718-0.97-4.85c-0.648-1.131-1.9-1.698-3.759-1.698
				c-1.132,0-2.365,0.324-3.699,0.97c-1.334,0.648-2.649,1.455-3.941,2.426v55.663H905.642z"/>
			<path style="fill:#FFFFFF;" d="M963.609,539.636V527.75c2.829,0,5.133-0.162,6.912-0.484c1.778-0.324,3.072-0.891,3.881-1.698
				c0.807-0.81,1.213-1.941,1.213-3.396c0-1.052-0.264-2.708-0.788-4.973c-0.527-2.263-1.113-4.73-1.759-7.397L957.667,450.5h16.008
				l9.095,46.206l7.883-46.206h15.886l-16.371,72.884c-0.891,4.123-2.386,7.357-4.488,9.702c-2.103,2.344-4.729,4.02-7.882,5.032
				c-3.153,1.01-6.834,1.517-11.036,1.517H963.609z"/>
		</g>
		<g>
			<path style="fill:#FFFFFF;" d="M641.673,218.482c0,65.686-48.4,120.07-111.484,129.437c42.8-48.681,15.211-98.196-4.062-143.712
				c-8.688-21.541-17.312-47.823-5.856-68.62c13.481-24.475,41.121-25.987,57.28-4.062c11.904,16.159,8.919,52.295-32.036,66.339
				c34.65,0.384,72.401-15.787,65.75-63.251C630.255,157.32,641.673,186.575,641.673,218.482z"/>
			<path style="fill:#FFFFFF;" d="M491.66,0c23.101,103.785-121.316,116.094-126.793,237.149
				c13.545-20.102,35.561-33.362,60.699-35.362c15.288-1.431,30.187,0.859,43.985,5.34c-7.27,0.197-14.425,0.63-21.399,1.676
				c-10.517,1.512-21.11,4.44-30.683,9.2c-7.078,3.34-13.446,7.928-18.833,13.477c-0.105,0.108-0.208,0.219-0.313,0.328
				c-0.741,0.774-1.462,1.565-2.164,2.375c-0.051,0.059-0.107,0.113-0.158,0.173c-0.035,0.042-0.067,0.085-0.102,0.126
				c-7.438,8.687-12.608,19.364-14.605,31.128c-0.01,0.058-0.021,0.115-0.031,0.173c-0.128,0.769-0.239,1.543-0.34,2.321
				c-0.047,0.351-0.093,0.702-0.134,1.054c-0.063,0.554-0.116,1.111-0.164,1.67c-0.052,0.581-0.097,1.161-0.132,1.742
				c-0.024,0.396-0.044,0.793-0.061,1.191c-0.032,0.737-0.049,1.472-0.056,2.207c-0.001,0.179-0.014,0.355-0.014,0.534
				c0,0.129,0.009,0.255,0.01,0.384c0.004,0.783,0.026,1.565,0.059,2.346c0.013,0.304,0.022,0.608,0.039,0.91
				c0.039,0.698,0.096,1.393,0.159,2.088c0.035,0.402,0.065,0.805,0.108,1.205c0.05,0.456,0.114,0.909,0.173,1.363
				c4.075,31.79,31.215,56.365,64.113,56.365c35.711,0,64.661-28.95,64.661-64.661c0-0.011-0.001-0.021-0.001-0.032
				c0.098-5.042-0.337-10.419-1.091-16.408c-1.921-13.706-8.405-28.526-12.521-42.355c-1.999-6.512-3.876-13.247-5.121-19.961
				c-4.656-23.734-3.74-49.679,7.406-71.665c7.332-14.72,19.283-27.199,33.668-34.923c7.234-3.984,15.337-6.762,23.672-8.196
				C549.483,54.989,526.807,17.857,491.66,0z"/>
		</g>
	</g>
	<g>
		<g>
			<path style="fill:#143959;" d="M15.644-43.868v-85.011H0v-13.219h48.993v13.219H33.592v85.011H15.644z"/>
			<path style="fill:#143959;" d="M57.117-43.868v-98.23h16.493v34.805c2.426-2.426,5.073-4.325,7.944-5.7
				c2.869-1.374,6.003-2.061,9.398-2.061c2.829,0,5.094,0.708,6.792,2.122c1.697,1.416,2.95,3.295,3.759,5.639
				c0.806,2.346,1.212,4.892,1.212,7.64v55.785H86.223v-52.511c0-2.101-0.325-3.718-0.97-4.85c-0.649-1.131-1.9-1.698-3.759-1.698
				c-1.133,0-2.406,0.324-3.82,0.97c-1.416,0.648-2.771,1.497-4.063,2.546v55.543H57.117z"/>
			<path style="fill:#143959;" d="M136.065-42.777c-5.256,0-9.54-0.991-12.854-2.97c-3.316-1.981-5.761-4.892-7.338-8.733
				c-1.577-3.837-2.364-8.467-2.364-13.885v-21.101c0-5.58,0.787-10.267,2.364-14.068c1.577-3.8,4.043-6.671,7.398-8.611
				c3.353-1.941,7.619-2.91,12.794-2.91c5.579,0,9.924,1.051,13.037,3.153c3.112,2.103,5.336,5.154,6.67,9.156
				c1.335,4.001,2.002,8.874,2.002,14.613v9.943H129.88v13.825c0,2.265,0.222,4.125,0.667,5.58c0.444,1.455,1.153,2.505,2.123,3.153
				c0.969,0.648,2.141,0.969,3.516,0.969c1.455,0,2.626-0.343,3.516-1.031c0.889-0.686,1.535-1.698,1.941-3.032
				c0.404-1.334,0.606-3.01,0.606-5.032v-5.821h15.402v4.73c0,7.114-1.779,12.572-5.336,16.371
				C148.756-44.675,143.342-42.777,136.065-42.777z M129.88-86.312h12.37v-6.671c0-2.425-0.202-4.385-0.606-5.881
				c-0.406-1.496-1.051-2.586-1.941-3.275c-0.891-0.686-2.142-1.031-3.759-1.031c-1.455,0-2.628,0.364-3.516,1.092
				c-0.891,0.728-1.537,1.94-1.941,3.638c-0.405,1.697-0.606,4.124-0.606,7.277V-86.312z"/>
			<path style="fill:#143959;" d="M199.489-43.868v-98.23h28.863c5.9,0,10.691,1.092,14.37,3.275
				c3.678,2.183,6.386,5.356,8.125,9.519c1.739,4.165,2.608,9.199,2.608,15.099c0,6.387-1.092,11.541-3.275,15.461
				c-2.183,3.922-5.235,6.773-9.156,8.55c-3.922,1.779-8.55,2.667-13.886,2.667h-9.701v43.659H199.489z M217.438-100.138h6.791
				c3.233,0,5.761-0.463,7.579-1.394c1.819-0.928,3.072-2.426,3.759-4.487c0.686-2.061,1.031-4.83,1.031-8.307
				c0-3.557-0.263-6.447-0.788-8.671c-0.526-2.222-1.658-3.859-3.396-4.911c-1.739-1.05-4.468-1.577-8.185-1.577h-6.791V-100.138z"
				/>
			<path style="fill:#143959;" d="M274.92-42.777c-3.153,0-5.862-0.829-8.125-2.486c-2.265-1.655-4.002-3.758-5.216-6.304
				c-1.212-2.548-1.818-5.194-1.818-7.945c0-4.365,0.807-8.043,2.426-11.036c1.616-2.989,3.759-5.497,6.427-7.519
				c2.668-2.02,5.7-3.777,9.095-5.275c3.396-1.496,6.832-2.849,10.309-4.063v-6.063c0-2.02-0.142-3.718-0.424-5.093
				c-0.284-1.373-0.81-2.426-1.577-3.153c-0.77-0.728-1.961-1.091-3.578-1.091c-1.375,0-2.485,0.324-3.334,0.97
				c-0.849,0.648-1.455,1.557-1.819,2.728c-0.364,1.173-0.587,2.528-0.667,4.062l-0.243,4.246l-15.643-0.607
				c0.242-8.083,2.243-14.047,6.003-17.888c3.759-3.839,9.478-5.76,17.159-5.76c7.034,0,12.146,1.94,15.341,5.821
				c3.194,3.881,4.79,9.137,4.79,15.765v32.38c0,2.589,0.061,4.932,0.182,7.035c0.121,2.103,0.282,4.001,0.485,5.699
				c0.201,1.698,0.383,3.194,0.546,4.487h-14.795c-0.243-1.617-0.545-3.456-0.91-5.518c-0.363-2.062-0.627-3.577-0.788-4.547
				c-0.809,2.829-2.346,5.397-4.608,7.7C281.872-43.927,278.801-42.777,274.92-42.777z M280.984-55.025
				c1.05,0,2.041-0.26,2.971-0.788c0.929-0.524,1.759-1.15,2.486-1.879c0.728-0.729,1.253-1.374,1.577-1.941v-19.524
				c-1.779,1.052-3.456,2.103-5.032,3.153c-1.577,1.052-2.953,2.203-4.124,3.456c-1.173,1.255-2.061,2.608-2.668,4.063
				c-0.606,1.455-0.909,3.153-0.909,5.094c0,2.589,0.504,4.63,1.516,6.123C277.81-55.771,279.205-55.025,280.984-55.025z"/>
			<path style="fill:#143959;" d="M335.192-42.777c-5.903,0-10.754-1.577-14.553-4.73c-3.801-3.153-6.509-7.761-8.125-13.825
				l12.248-4.73c0.969,3.803,2.262,6.713,3.881,8.733c1.616,2.022,3.717,3.032,6.305,3.032c1.941,0,3.396-0.486,4.366-1.455
				c0.969-0.972,1.455-2.305,1.455-4.003c0-1.939-0.588-3.699-1.759-5.275c-1.173-1.577-3.173-3.535-6.003-5.88l-8.489-7.156
				c-3.073-2.667-5.56-5.397-7.458-8.185c-1.901-2.789-2.851-6.285-2.851-10.491c0-3.799,0.868-7.052,2.608-9.761
				c1.737-2.708,4.124-4.81,7.155-6.306c3.032-1.496,6.406-2.243,10.125-2.243c5.659,0,10.206,1.679,13.644,5.032
				c3.435,3.356,5.638,7.742,6.609,13.159l-10.793,4.608c-0.406-1.941-0.991-3.739-1.759-5.397
				c-0.769-1.658-1.758-3.011-2.971-4.064c-1.212-1.049-2.628-1.577-4.244-1.577c-1.698,0-3.053,0.527-4.063,1.577
				c-1.012,1.052-1.516,2.386-1.516,4.002c0,1.376,0.586,2.789,1.759,4.244c1.171,1.455,2.85,3.115,5.032,4.973l8.611,7.761
				c1.859,1.619,3.638,3.356,5.336,5.216c1.698,1.86,3.112,3.941,4.244,6.245c1.131,2.305,1.698,4.953,1.698,7.943
				c0,4.044-0.91,7.44-2.728,10.188c-1.819,2.748-4.287,4.832-7.398,6.245C342.447-43.484,338.991-42.777,335.192-42.777z"/>
			<path style="fill:#143959;" d="M383.7-42.777c-5.903,0-10.754-1.577-14.553-4.73c-3.801-3.153-6.509-7.761-8.125-13.825
				l12.248-4.73c0.969,3.803,2.262,6.713,3.881,8.733c1.616,2.022,3.717,3.032,6.305,3.032c1.941,0,3.396-0.486,4.366-1.455
				c0.969-0.972,1.455-2.305,1.455-4.003c0-1.939-0.588-3.699-1.759-5.275c-1.173-1.577-3.173-3.535-6.003-5.88l-8.489-7.156
				c-3.073-2.667-5.56-5.397-7.458-8.185c-1.901-2.789-2.851-6.285-2.851-10.491c0-3.799,0.868-7.052,2.608-9.761
				c1.737-2.708,4.124-4.81,7.155-6.306c3.032-1.496,6.406-2.243,10.125-2.243c5.659,0,10.206,1.679,13.644,5.032
				c3.435,3.356,5.638,7.742,6.609,13.159l-10.793,4.608c-0.406-1.941-0.991-3.739-1.759-5.397
				c-0.769-1.658-1.758-3.011-2.971-4.064c-1.212-1.049-2.628-1.577-4.244-1.577c-1.698,0-3.053,0.527-4.063,1.577
				c-1.012,1.052-1.516,2.386-1.516,4.002c0,1.376,0.586,2.789,1.759,4.244c1.171,1.455,2.85,3.115,5.032,4.973l8.611,7.761
				c1.859,1.619,3.638,3.356,5.336,5.216c1.698,1.86,3.112,3.941,4.244,6.245c1.131,2.305,1.698,4.953,1.698,7.943
				c0,4.044-0.91,7.44-2.728,10.188c-1.819,2.748-4.287,4.832-7.398,6.245C390.955-43.484,387.498-42.777,383.7-42.777z"/>
			<path style="fill:#143959;" d="M413.653-125.119v-13.704h16.493v13.704H413.653z M413.653-43.868v-70.095h16.493v70.095H413.653z
				"/>
			<path style="fill:#143959;" d="M464.463-42.777c-5.093,0-9.298-0.95-12.612-2.849c-3.316-1.9-5.802-4.67-7.459-8.307
				c-1.658-3.639-2.485-8.045-2.485-13.22v-23.527c0-5.173,0.828-9.58,2.485-13.218c1.656-3.638,4.143-6.406,7.459-8.307
				c3.314-1.898,7.519-2.85,12.612-2.85s9.317,0.951,12.673,2.85c3.353,1.9,5.86,4.669,7.519,8.307
				c1.655,3.638,2.486,8.045,2.486,13.218v23.527c0,5.175-0.831,9.581-2.486,13.22c-1.659,3.637-4.165,6.406-7.519,8.307
				C473.78-43.727,469.556-42.777,464.463-42.777z M464.585-54.175c1.859,0,3.233-0.526,4.124-1.577
				c0.888-1.05,1.455-2.486,1.697-4.306c0.243-1.819,0.364-3.82,0.364-6.004V-91.77c0-2.182-0.121-4.163-0.364-5.942
				c-0.242-1.777-0.809-3.214-1.697-4.305c-0.891-1.092-2.265-1.637-4.124-1.637c-1.861,0-3.234,0.545-4.124,1.637
				c-0.891,1.091-1.475,2.528-1.758,4.305c-0.284,1.779-0.425,3.76-0.425,5.942v25.709c0,2.184,0.141,4.184,0.425,6.004
				c0.282,1.819,0.867,3.255,1.758,4.306C461.351-54.701,462.724-54.175,464.585-54.175z"/>
			<path style="fill:#143959;" d="M498.419-43.868v-70.095h16.492v7.034c2.505-2.426,5.155-4.385,7.944-5.881
				c2.789-1.496,5.8-2.243,9.034-2.243c2.91,0,5.214,0.708,6.912,2.122c1.698,1.416,2.951,3.295,3.759,5.639
				c0.807,2.346,1.213,4.892,1.213,7.64v55.785h-16.493v-52.511c0-2.101-0.324-3.718-0.97-4.85c-0.648-1.131-1.9-1.698-3.759-1.698
				c-1.132,0-2.365,0.324-3.699,0.97c-1.334,0.648-2.649,1.455-3.941,2.426v55.663H498.419z"/>
			<path style="fill:#143959;" d="M612.898-42.534c-7.197,0-12.836-1.413-16.917-4.244c-4.083-2.829-6.934-6.69-8.55-11.582
				c-1.618-4.892-2.426-10.529-2.426-16.918v-35.046c0-6.71,0.807-12.531,2.426-17.464c1.616-4.93,4.467-8.731,8.55-11.399
				c4.081-2.667,9.721-4.002,16.917-4.002c6.791,0,12.107,1.153,15.947,3.457c3.839,2.304,6.567,5.599,8.185,9.883
				c1.617,4.287,2.426,9.258,2.426,14.917v8.246h-17.22v-8.489c0-2.747-0.143-5.255-0.425-7.519
				c-0.284-2.263-1.051-4.063-2.304-5.397c-1.254-1.335-3.416-2.002-6.487-2.002c-3.073,0-5.318,0.709-6.73,2.123
				c-1.416,1.415-2.325,3.315-2.729,5.699c-0.406,2.386-0.606,5.075-0.606,8.065v42.687c0,3.558,0.282,6.487,0.849,8.793
				c0.565,2.303,1.596,4.044,3.092,5.213c1.495,1.174,3.536,1.76,6.124,1.76c2.99,0,5.112-0.707,6.366-2.122
				c1.253-1.415,2.041-3.294,2.365-5.639c0.323-2.344,0.486-4.973,0.486-7.883v-8.852h17.22v7.883
				c0,5.821-0.769,10.974-2.304,15.461c-1.536,4.487-4.225,8.004-8.064,10.55C625.246-43.808,619.85-42.534,612.898-42.534z"/>
			<path style="fill:#143959;" d="M672.077-42.777c-5.093,0-9.298-0.95-12.612-2.849c-3.316-1.9-5.802-4.67-7.459-8.307
				c-1.658-3.639-2.485-8.045-2.485-13.22v-23.527c0-5.173,0.828-9.58,2.485-13.218c1.656-3.638,4.143-6.406,7.459-8.307
				c3.314-1.898,7.519-2.85,12.612-2.85s9.317,0.951,12.673,2.85c3.353,1.9,5.86,4.669,7.519,8.307
				c1.655,3.638,2.486,8.045,2.486,13.218v23.527c0,5.175-0.831,9.581-2.486,13.22c-1.659,3.637-4.165,6.406-7.519,8.307
				C681.394-43.727,677.17-42.777,672.077-42.777z M672.199-54.175c1.859,0,3.233-0.526,4.124-1.577
				c0.888-1.05,1.455-2.486,1.697-4.306c0.243-1.819,0.364-3.82,0.364-6.004V-91.77c0-2.182-0.121-4.163-0.364-5.942
				c-0.242-1.777-0.809-3.214-1.697-4.305c-0.891-1.092-2.265-1.637-4.124-1.637c-1.861,0-3.234,0.545-4.124,1.637
				c-0.891,1.091-1.475,2.528-1.758,4.305c-0.284,1.779-0.425,3.76-0.425,5.942v25.709c0,2.184,0.141,4.184,0.425,6.004
				c0.282,1.819,0.867,3.255,1.758,4.306C668.965-54.701,670.338-54.175,672.199-54.175z"/>
			<path style="fill:#143959;" d="M706.031-43.868v-70.095h15.886v6.063c2.426-2.586,5.052-4.466,7.883-5.638
				c2.829-1.172,5.699-1.759,8.611-1.759c2.747,0,5.154,0.688,7.215,2.061c2.062,1.376,3.578,3.559,4.548,6.549
				c2.669-3.072,5.498-5.275,8.489-6.61c2.99-1.334,6.063-2.001,9.217-2.001c2.505,0,4.73,0.627,6.671,1.88
				c1.94,1.254,3.475,3.113,4.607,5.578c1.131,2.467,1.698,5.56,1.698,9.277v54.694h-15.765v-53.237
				c0-2.668-0.445-4.507-1.334-5.518c-0.891-1.011-2.143-1.516-3.76-1.516c-1.293,0-2.728,0.363-4.305,1.091
				c-1.577,0.728-3.013,1.74-4.305,3.032c0,0.243,0,0.467,0,0.667c0,0.203,0,0.467,0,0.788v54.694h-15.644v-53.237
				c0-2.668-0.467-4.507-1.394-5.518c-0.93-1.011-2.204-1.516-3.82-1.516c-1.294,0-2.71,0.363-4.245,1.091
				c-1.536,0.728-2.991,1.74-4.365,3.032v56.149H706.031z"/>
			<path style="fill:#143959;" d="M793.103-20.826v-93.137h16.492v5.336c2.02-1.94,4.245-3.495,6.671-4.669
				c2.424-1.171,4.972-1.758,7.64-1.758c3.153,0,5.74,0.728,7.761,2.183c2.02,1.455,3.596,3.377,4.729,5.76
				c1.131,2.386,1.92,4.933,2.365,7.64c0.444,2.711,0.667,5.317,0.667,7.822v23.77c0,4.608-0.545,8.812-1.636,12.611
				c-1.092,3.803-2.831,6.835-5.216,9.097c-2.385,2.263-5.56,3.394-9.519,3.394c-2.508,0-4.871-0.605-7.095-1.819
				c-2.224-1.212-4.347-2.746-6.367-4.608v28.379H793.103z M816.872-54.297c1.777,0,3.092-0.586,3.941-1.76
				c0.849-1.17,1.414-2.746,1.697-4.728c0.283-1.981,0.425-4.144,0.425-6.49v-25.102c0-2.184-0.163-4.142-0.485-5.882
				c-0.325-1.737-0.931-3.132-1.819-4.184c-0.891-1.049-2.183-1.577-3.881-1.577c-1.294,0-2.567,0.304-3.82,0.91
				c-1.255,0.606-2.365,1.316-3.335,2.122v44.264c1.05,0.729,2.183,1.317,3.396,1.76C814.203-54.518,815.496-54.297,816.872-54.297z
				"/>
			<path style="fill:#143959;" d="M864.41-42.777c-3.153,0-5.862-0.829-8.125-2.486c-2.265-1.655-4.002-3.758-5.216-6.304
				c-1.212-2.548-1.818-5.194-1.818-7.945c0-4.365,0.807-8.043,2.426-11.036c1.616-2.989,3.759-5.497,6.427-7.519
				c2.669-2.02,5.7-3.777,9.095-5.275c3.396-1.496,6.832-2.849,10.309-4.063v-6.063c0-2.02-0.142-3.718-0.424-5.093
				c-0.284-1.373-0.81-2.426-1.577-3.153c-0.77-0.728-1.961-1.091-3.578-1.091c-1.375,0-2.485,0.324-3.334,0.97
				c-0.849,0.648-1.455,1.557-1.819,2.728c-0.364,1.173-0.587,2.528-0.667,4.062l-0.243,4.246l-15.643-0.607
				c0.242-8.083,2.243-14.047,6.003-17.888c3.759-3.839,9.478-5.76,17.159-5.76c7.034,0,12.146,1.94,15.341,5.821
				c3.194,3.881,4.79,9.137,4.79,15.765v32.38c0,2.589,0.061,4.932,0.182,7.035c0.121,2.103,0.282,4.001,0.485,5.699
				c0.201,1.698,0.383,3.194,0.546,4.487h-14.795c-0.243-1.617-0.545-3.456-0.91-5.518c-0.363-2.062-0.627-3.577-0.788-4.547
				c-0.809,2.829-2.346,5.397-4.608,7.7C871.362-43.927,868.291-42.777,864.41-42.777z M870.474-55.025
				c1.05,0,2.041-0.26,2.971-0.788c0.929-0.524,1.759-1.15,2.486-1.879c0.728-0.729,1.253-1.374,1.577-1.941v-19.524
				c-1.779,1.052-3.456,2.103-5.032,3.153c-1.577,1.052-2.953,2.203-4.124,3.456c-1.173,1.255-2.061,2.608-2.668,4.063
				c-0.606,1.455-0.909,3.153-0.909,5.094c0,2.589,0.504,4.63,1.516,6.123C867.3-55.771,868.695-55.025,870.474-55.025z"/>
			<path style="fill:#143959;" d="M905.642-43.868v-70.095h16.492v7.034c2.505-2.426,5.155-4.385,7.944-5.881
				c2.789-1.496,5.8-2.243,9.034-2.243c2.91,0,5.214,0.708,6.912,2.122c1.698,1.416,2.951,3.295,3.759,5.639
				c0.807,2.346,1.213,4.892,1.213,7.64v55.785h-16.493v-52.511c0-2.101-0.324-3.718-0.97-4.85c-0.648-1.131-1.9-1.698-3.759-1.698
				c-1.132,0-2.365,0.324-3.699,0.97c-1.334,0.648-2.649,1.455-3.941,2.426v55.663H905.642z"/>
			<path style="fill:#143959;" d="M963.609-24.827v-11.886c2.829,0,5.133-0.162,6.912-0.484c1.778-0.324,3.072-0.891,3.881-1.698
				c0.807-0.81,1.213-1.941,1.213-3.396c0-1.052-0.264-2.708-0.788-4.973c-0.527-2.263-1.113-4.73-1.759-7.397l-15.401-59.302
				h16.008l9.095,46.206l7.883-46.206h15.886l-16.371,72.884c-0.891,4.123-2.386,7.357-4.488,9.702
				c-2.103,2.344-4.729,4.02-7.882,5.032c-3.153,1.01-6.834,1.517-11.036,1.517H963.609z"/>
		</g>
		<g>
			
				<linearGradient id="SVGID_00000165231943075337663580000006182746729970024630_" gradientUnits="userSpaceOnUse" x1="578.217" y1="-448.3706" x2="578.217" y2="-216.5438">
				<stop  offset="0.1474" style="stop-color:#0367A6"/>
				<stop  offset="1" style="stop-color:#143959"/>
			</linearGradient>
			<path style="fill:url(#SVGID_00000165231943075337663580000006182746729970024630_);" d="M641.673-345.981
				c0,65.686-48.4,120.07-111.484,129.437c42.8-48.681,15.211-98.196-4.062-143.712c-8.688-21.541-17.312-47.823-5.856-68.62
				c13.481-24.475,41.121-25.987,57.28-4.062c11.904,16.159,8.919,52.295-32.036,66.339c34.65,0.384,72.401-15.787,65.75-63.251
				C630.255-407.143,641.673-377.889,641.673-345.981z"/>
			
				<linearGradient id="SVGID_00000023274051359438377280000017835850582603567263_" gradientUnits="userSpaceOnUse" x1="460.2814" y1="-567.7695" x2="460.2814" y2="-225.9873">
				<stop  offset="0" style="stop-color:#BF2431"/>
				<stop  offset="0.7404" style="stop-color:#F28705"/>
				<stop  offset="1" style="stop-color:#F2B705"/>
			</linearGradient>
			<path style="fill:url(#SVGID_00000023274051359438377280000017835850582603567263_);" d="M491.66-564.463
				c23.101,103.785-121.316,116.094-126.793,237.149c13.545-20.102,35.561-33.362,60.699-35.362
				c15.288-1.431,30.187,0.859,43.985,5.34c-7.27,0.197-14.425,0.63-21.399,1.676c-10.517,1.512-21.11,4.44-30.683,9.2
				c-7.078,3.34-13.446,7.928-18.833,13.477c-0.105,0.108-0.208,0.219-0.313,0.328c-0.741,0.774-1.462,1.565-2.164,2.375
				c-0.051,0.059-0.107,0.113-0.158,0.173c-0.035,0.042-0.067,0.085-0.102,0.126c-7.438,8.687-12.608,19.364-14.605,31.128
				c-0.01,0.058-0.021,0.115-0.031,0.173c-0.128,0.769-0.239,1.543-0.34,2.321c-0.047,0.351-0.093,0.702-0.134,1.054
				c-0.063,0.554-0.116,1.111-0.164,1.67c-0.052,0.581-0.097,1.161-0.132,1.742c-0.024,0.396-0.044,0.793-0.061,1.191
				c-0.032,0.737-0.049,1.472-0.056,2.207c-0.001,0.179-0.014,0.355-0.014,0.534c0,0.129,0.009,0.255,0.01,0.384
				c0.004,0.783,0.026,1.565,0.059,2.346c0.013,0.304,0.022,0.608,0.039,0.91c0.039,0.698,0.096,1.393,0.159,2.088
				c0.035,0.402,0.065,0.805,0.108,1.205c0.05,0.456,0.114,0.909,0.173,1.363c4.075,31.79,31.215,56.365,64.113,56.365
				c35.711,0,64.661-28.95,64.661-64.661c0-0.011-0.001-0.021-0.001-0.032c0.098-5.042-0.337-10.419-1.091-16.408
				c-1.921-13.706-8.405-28.526-12.521-42.355c-1.999-6.512-3.876-13.247-5.121-19.961c-4.656-23.734-3.74-49.679,7.406-71.665
				c7.332-14.72,19.283-27.199,33.668-34.923c7.234-3.984,15.337-6.762,23.672-8.196
				C549.483-509.474,526.807-546.606,491.66-564.463z"/>
		</g>
	</g>
	<g>
		<g>
			<path style="fill:#143959;" d="M-783.814-379.326v-65.87h-12.122v-10.242h37.962v10.242h-11.934v65.87H-783.814z"/>
			<path style="fill:#143959;" d="M-751.679-379.326v-76.113h12.78v26.969c1.88-1.879,3.931-3.351,6.155-4.417
				c2.223-1.065,4.651-1.597,7.282-1.597c2.192,0,3.947,0.549,5.263,1.644c1.315,1.097,2.286,2.553,2.913,4.37
				c0.625,1.818,0.939,3.79,0.939,5.92v43.224h-12.779v-40.688c0-1.628-0.252-2.881-0.752-3.758
				c-0.503-0.877-1.473-1.316-2.913-1.316c-0.878,0-1.865,0.251-2.96,0.752c-1.097,0.502-2.147,1.16-3.148,1.973v43.037H-751.679z"
				/>
			<path style="fill:#143959;" d="M-690.507-378.481c-4.073,0-7.392-0.768-9.96-2.301c-2.57-1.535-4.464-3.79-5.685-6.767
				c-1.222-2.973-1.832-6.56-1.832-10.758v-16.35c0-4.324,0.61-7.955,1.832-10.9c1.222-2.944,3.132-5.169,5.732-6.672
				c2.598-1.504,5.903-2.255,9.913-2.255c4.323,0,7.69,0.815,10.101,2.443c2.411,1.629,4.135,3.993,5.168,7.094
				c1.034,3.1,1.551,6.876,1.551,11.323v7.704h-21.613v10.712c0,1.755,0.172,3.196,0.517,4.324c0.344,1.128,0.893,1.941,1.645,2.443
				c0.751,0.502,1.659,0.751,2.725,0.751c1.128,0,2.035-0.266,2.725-0.799c0.689-0.532,1.189-1.316,1.504-2.349
				c0.313-1.033,0.47-2.333,0.47-3.899v-4.51h11.934v3.665c0,5.512-1.378,9.741-4.134,12.685
				C-680.673-379.951-684.869-378.481-690.507-378.481z M-695.299-412.213h9.585v-5.169c0-1.879-0.157-3.397-0.47-4.557
				c-0.314-1.159-0.815-2.004-1.504-2.537c-0.69-0.532-1.66-0.799-2.913-0.799c-1.128,0-2.036,0.282-2.725,0.846
				c-0.69,0.564-1.191,1.503-1.504,2.819c-0.314,1.315-0.47,3.195-0.47,5.638V-412.213z"/>
			<path style="fill:#143959;" d="M-641.363-379.326v-76.113h22.365c4.572,0,8.284,0.846,11.135,2.537
				c2.85,1.691,4.948,4.15,6.295,7.376c1.347,3.227,2.021,7.127,2.021,11.699c0,4.949-0.846,8.943-2.537,11.98
				c-1.691,3.039-4.056,5.248-7.094,6.625c-3.039,1.378-6.625,2.067-10.759,2.067h-7.517v33.829H-641.363z M-627.456-422.926h5.262
				c2.505,0,4.464-0.359,5.873-1.08c1.41-0.719,2.38-1.879,2.913-3.477c0.532-1.597,0.799-3.742,0.799-6.437
				c0-2.756-0.204-4.995-0.611-6.719c-0.408-1.722-1.284-2.99-2.631-3.805c-1.347-0.814-3.462-1.222-6.342-1.222h-5.262V-422.926z"
				/>
			<path style="fill:#143959;" d="M-582.916-378.481c-2.443,0-4.542-0.642-6.295-1.926c-1.755-1.283-3.101-2.912-4.041-4.885
				c-0.939-1.974-1.409-4.025-1.409-6.156c0-3.383,0.626-6.232,1.879-8.551c1.252-2.316,2.913-4.259,4.98-5.826
				c2.068-1.565,4.417-2.927,7.047-4.087c2.631-1.159,5.293-2.207,7.987-3.148v-4.698c0-1.565-0.11-2.881-0.328-3.946
				c-0.22-1.064-0.627-1.879-1.222-2.443c-0.597-0.564-1.52-0.845-2.773-0.845c-1.066,0-1.926,0.251-2.584,0.752
				c-0.658,0.502-1.128,1.207-1.41,2.114c-0.282,0.909-0.455,1.959-0.517,3.147l-0.188,3.29l-12.121-0.47
				c0.187-6.263,1.738-10.884,4.651-13.86c2.913-2.975,7.344-4.463,13.296-4.463c5.45,0,9.411,1.503,11.887,4.51
				c2.475,3.007,3.712,7.08,3.712,12.215v25.089c0,2.006,0.047,3.822,0.141,5.451c0.094,1.629,0.219,3.1,0.376,4.416
				c0.156,1.316,0.297,2.475,0.423,3.477h-11.464c-0.188-1.253-0.423-2.678-0.705-4.276c-0.281-1.598-0.486-2.772-0.611-3.523
				c-0.626,2.192-1.818,4.182-3.571,5.966C-577.529-379.372-579.909-378.481-582.916-378.481z M-578.217-387.971
				c0.814,0,1.581-0.201,2.302-0.611c0.72-0.406,1.363-0.891,1.927-1.456c0.564-0.565,0.971-1.065,1.222-1.504v-15.128
				c-1.378,0.815-2.678,1.629-3.899,2.443c-1.222,0.816-2.288,1.707-3.195,2.678c-0.909,0.972-1.597,2.021-2.068,3.148
				c-0.47,1.128-0.704,2.443-0.704,3.947c0,2.006,0.39,3.587,1.175,4.744C-580.676-388.549-579.596-387.971-578.217-387.971z"/>
			<path style="fill:#143959;" d="M-536.215-378.481c-4.574,0-8.333-1.222-11.276-3.665c-2.945-2.443-5.043-6.014-6.295-10.712
				l9.491-3.665c0.751,2.947,1.752,5.202,3.007,6.767c1.252,1.567,2.88,2.349,4.886,2.349c1.504,0,2.631-0.376,3.383-1.128
				c0.751-0.753,1.128-1.786,1.128-3.102c0-1.502-0.456-2.866-1.363-4.087c-0.909-1.222-2.459-2.739-4.651-4.556l-6.578-5.545
				c-2.381-2.067-4.308-4.182-5.779-6.342c-1.473-2.161-2.209-4.87-2.209-8.129c0-2.943,0.673-5.464,2.021-7.563
				c1.346-2.098,3.195-3.727,5.544-4.886c2.349-1.159,4.964-1.738,7.846-1.738c4.385,0,7.908,1.301,10.572,3.899
				c2.662,2.6,4.369,5.999,5.121,10.196l-8.363,3.571c-0.314-1.504-0.768-2.897-1.363-4.182c-0.596-1.284-1.362-2.333-2.302-3.149
				c-0.939-0.813-2.036-1.222-3.288-1.222c-1.316,0-2.366,0.409-3.148,1.222c-0.784,0.815-1.175,1.849-1.175,3.101
				c0,1.066,0.454,2.161,1.363,3.288c0.907,1.128,2.208,2.413,3.899,3.853l6.672,6.014c1.44,1.255,2.819,2.6,4.135,4.041
				c1.316,1.441,2.411,3.054,3.288,4.839c0.877,1.786,1.316,3.838,1.316,6.154c0,3.133-0.705,5.765-2.114,7.894
				c-1.41,2.13-3.321,3.744-5.732,4.839C-530.593-379.029-533.271-378.481-536.215-378.481z"/>
			<path style="fill:#143959;" d="M-498.629-378.481c-4.574,0-8.333-1.222-11.276-3.665c-2.945-2.443-5.043-6.014-6.295-10.712
				l9.491-3.665c0.751,2.947,1.752,5.202,3.007,6.767c1.252,1.567,2.88,2.349,4.886,2.349c1.504,0,2.631-0.376,3.383-1.128
				c0.751-0.753,1.128-1.786,1.128-3.102c0-1.502-0.456-2.866-1.363-4.087c-0.909-1.222-2.459-2.739-4.651-4.556l-6.578-5.545
				c-2.381-2.067-4.308-4.182-5.779-6.342c-1.473-2.161-2.209-4.87-2.209-8.129c0-2.943,0.673-5.464,2.021-7.563
				c1.346-2.098,3.195-3.727,5.544-4.886c2.349-1.159,4.964-1.738,7.846-1.738c4.385,0,7.908,1.301,10.572,3.899
				c2.662,2.6,4.369,5.999,5.121,10.196l-8.363,3.571c-0.314-1.504-0.768-2.897-1.363-4.182c-0.596-1.284-1.362-2.333-2.302-3.149
				c-0.939-0.813-2.036-1.222-3.288-1.222c-1.316,0-2.366,0.409-3.148,1.222c-0.784,0.815-1.175,1.849-1.175,3.101
				c0,1.066,0.454,2.161,1.363,3.288c0.907,1.128,2.208,2.413,3.899,3.853l6.672,6.014c1.44,1.255,2.819,2.6,4.134,4.041
				c1.316,1.441,2.411,3.054,3.288,4.839c0.877,1.786,1.316,3.838,1.316,6.154c0,3.133-0.705,5.765-2.114,7.894
				c-1.41,2.13-3.321,3.744-5.732,4.839C-493.007-379.029-495.685-378.481-498.629-378.481z"/>
			<path style="fill:#143959;" d="M-475.42-442.283v-10.618h12.78v10.618H-475.42z M-475.42-379.326v-54.313h12.78v54.313H-475.42z"
				/>
			<path style="fill:#143959;" d="M-436.05-378.481c-3.946,0-7.204-0.736-9.772-2.207c-2.569-1.473-4.496-3.619-5.78-6.437
				c-1.284-2.82-1.926-6.233-1.926-10.243v-18.23c0-4.008,0.641-7.423,1.926-10.242c1.284-2.819,3.21-4.964,5.78-6.437
				c2.568-1.471,5.826-2.208,9.772-2.208s7.219,0.737,9.82,2.208c2.598,1.473,4.541,3.618,5.826,6.437
				c1.283,2.819,1.927,6.234,1.927,10.242v18.23c0,4.01-0.644,7.424-1.927,10.243c-1.285,2.818-3.227,4.964-5.826,6.437
				C-428.831-379.217-432.103-378.481-436.05-378.481z M-435.955-387.312c1.44,0,2.505-0.408,3.195-1.222
				c0.688-0.814,1.128-1.926,1.315-3.336c0.188-1.41,0.282-2.96,0.282-4.652v-19.92c0-1.69-0.094-3.226-0.282-4.604
				c-0.187-1.377-0.626-2.49-1.315-3.336c-0.69-0.846-1.755-1.269-3.195-1.269c-1.442,0-2.506,0.423-3.195,1.269
				c-0.69,0.845-1.143,1.959-1.362,3.336c-0.22,1.378-0.329,2.914-0.329,4.604v19.92c0,1.692,0.109,3.242,0.329,4.652
				c0.219,1.41,0.672,2.522,1.362,3.336C-438.461-387.72-437.397-387.312-435.955-387.312z"/>
			<path style="fill:#143959;" d="M-409.74-379.326v-54.313h12.779v5.45c1.941-1.879,3.994-3.397,6.155-4.557
				c2.161-1.159,4.494-1.738,7-1.738c2.255,0,4.04,0.549,5.356,1.644c1.316,1.097,2.286,2.553,2.913,4.37
				c0.626,1.818,0.94,3.79,0.94,5.92v43.224h-12.78v-40.688c0-1.628-0.251-2.881-0.752-3.758c-0.502-0.877-1.473-1.316-2.913-1.316
				c-0.877,0-1.832,0.251-2.866,0.752c-1.033,0.502-2.053,1.128-3.054,1.879v43.13H-409.74z"/>
			<path style="fill:#143959;" d="M-321.036-378.292c-5.576,0-9.946-1.094-13.108-3.288c-3.164-2.192-5.373-5.184-6.625-8.974
				c-1.254-3.79-1.879-8.158-1.879-13.109v-27.155c0-5.199,0.626-9.709,1.879-13.532c1.252-3.82,3.461-6.765,6.625-8.833
				c3.162-2.067,7.532-3.101,13.108-3.101c5.262,0,9.381,0.893,12.356,2.678c2.975,1.785,5.089,4.338,6.342,7.658
				c1.253,3.321,1.879,7.174,1.879,11.558V-428h-13.343v-6.578c0-2.129-0.111-4.072-0.329-5.826
				c-0.22-1.753-0.815-3.148-1.785-4.182c-0.971-1.034-2.647-1.551-5.027-1.551c-2.381,0-4.12,0.55-5.215,1.645
				c-1.097,1.096-1.802,2.569-2.115,4.416c-0.314,1.849-0.47,3.932-0.47,6.249v33.076c0,2.757,0.219,5.027,0.658,6.813
				c0.437,1.785,1.236,3.133,2.396,4.04c1.158,0.91,2.74,1.364,4.745,1.364c2.317,0,3.961-0.548,4.933-1.644
				c0.971-1.096,1.581-2.552,1.832-4.37c0.25-1.816,0.376-3.853,0.376-6.108v-6.859h13.343v6.108c0,4.51-0.596,8.503-1.785,11.98
				c-1.19,3.477-3.274,6.202-6.248,8.175C-311.468-379.28-315.649-378.292-321.036-378.292z"/>
			<path style="fill:#143959;" d="M-275.181-378.481c-3.946,0-7.204-0.736-9.772-2.207c-2.569-1.473-4.496-3.619-5.78-6.437
				c-1.284-2.82-1.926-6.233-1.926-10.243v-18.23c0-4.008,0.641-7.423,1.926-10.242c1.284-2.819,3.21-4.964,5.78-6.437
				c2.568-1.471,5.826-2.208,9.772-2.208s7.219,0.737,9.82,2.208c2.598,1.473,4.541,3.618,5.826,6.437
				c1.283,2.819,1.926,6.234,1.926,10.242v18.23c0,4.01-0.644,7.424-1.926,10.243c-1.285,2.818-3.227,4.964-5.826,6.437
				C-267.962-379.217-271.235-378.481-275.181-378.481z M-275.087-387.312c1.44,0,2.505-0.408,3.195-1.222
				c0.688-0.814,1.128-1.926,1.315-3.336c0.188-1.41,0.282-2.96,0.282-4.652v-19.92c0-1.69-0.094-3.226-0.282-4.604
				c-0.187-1.377-0.626-2.49-1.315-3.336c-0.69-0.846-1.755-1.269-3.195-1.269c-1.442,0-2.506,0.423-3.195,1.269
				c-0.69,0.845-1.143,1.959-1.362,3.336c-0.22,1.378-0.329,2.914-0.329,4.604v19.92c0,1.692,0.109,3.242,0.329,4.652
				c0.219,1.41,0.672,2.522,1.362,3.336C-277.593-387.72-276.529-387.312-275.087-387.312z"/>
			<path style="fill:#143959;" d="M-248.872-379.326v-54.313h12.309v4.698c1.879-2.004,3.914-3.46,6.108-4.369
				c2.192-0.908,4.416-1.363,6.672-1.363c2.129,0,3.993,0.533,5.59,1.597c1.598,1.066,2.773,2.758,3.524,5.075
				c2.068-2.38,4.26-4.087,6.578-5.122c2.317-1.033,4.698-1.55,7.141-1.55c1.941,0,3.665,0.486,5.169,1.457
				c1.503,0.971,2.692,2.412,3.57,4.322c0.877,1.912,1.316,4.308,1.316,7.189v42.379h-12.215v-41.251
				c0-2.068-0.345-3.492-1.033-4.276c-0.69-0.783-1.661-1.175-2.914-1.175c-1.002,0-2.114,0.281-3.335,0.845
				s-2.334,1.348-3.335,2.349c0,0.188,0,0.362,0,0.517c0,0.158,0,0.362,0,0.611v42.379h-12.122v-41.251
				c0-2.068-0.362-3.492-1.08-4.276c-0.721-0.783-1.708-1.175-2.96-1.175c-1.003,0-2.1,0.281-3.289,0.845
				c-1.19,0.564-2.318,1.348-3.383,2.349v43.507H-248.872z"/>
			<path style="fill:#143959;" d="M-181.406-361.472v-72.166h12.779v4.134c1.565-1.503,3.289-2.708,5.169-3.618
				c1.879-0.907,3.852-1.362,5.92-1.362c2.443,0,4.447,0.564,6.014,1.691c1.565,1.128,2.787,2.617,3.664,4.463
				c0.877,1.849,1.487,3.822,1.832,5.92c0.344,2.101,0.517,4.12,0.517,6.061v18.418c0,3.571-0.423,6.828-1.268,9.771
				c-0.846,2.947-2.194,5.296-4.041,7.049c-1.848,1.753-4.308,2.63-7.376,2.63c-1.943,0-3.775-0.469-5.497-1.41
				c-1.723-0.939-3.368-2.128-4.933-3.571v21.989H-181.406z M-162.988-387.407c1.377,0,2.396-0.454,3.054-1.364
				c0.658-0.906,1.095-2.128,1.315-3.663c0.22-1.535,0.329-3.211,0.329-5.028v-19.45c0-1.692-0.126-3.209-0.376-4.558
				c-0.252-1.346-0.721-2.427-1.41-3.242c-0.69-0.813-1.691-1.222-3.007-1.222c-1.003,0-1.989,0.235-2.96,0.705
				c-0.972,0.47-1.832,1.019-2.584,1.644v34.297c0.814,0.565,1.691,1.02,2.631,1.364
				C-165.056-387.578-164.055-387.407-162.988-387.407z"/>
			<path style="fill:#143959;" d="M-126.153-378.481c-2.443,0-4.542-0.642-6.295-1.926c-1.755-1.283-3.101-2.912-4.041-4.885
				c-0.939-1.974-1.409-4.025-1.409-6.156c0-3.383,0.626-6.232,1.879-8.551c1.252-2.316,2.913-4.259,4.98-5.826
				c2.068-1.565,4.417-2.927,7.047-4.087c2.631-1.159,5.293-2.207,7.987-3.148v-4.698c0-1.565-0.11-2.881-0.329-3.946
				c-0.22-1.064-0.627-1.879-1.222-2.443c-0.597-0.564-1.52-0.845-2.773-0.845c-1.066,0-1.926,0.251-2.584,0.752
				c-0.658,0.502-1.128,1.207-1.41,2.114c-0.282,0.909-0.455,1.959-0.517,3.147l-0.188,3.29l-12.121-0.47
				c0.187-6.263,1.738-10.884,4.651-13.86c2.913-2.975,7.344-4.463,13.296-4.463c5.45,0,9.411,1.503,11.887,4.51
				c2.475,3.007,3.712,7.08,3.712,12.215v25.089c0,2.006,0.047,3.822,0.141,5.451c0.094,1.629,0.219,3.1,0.376,4.416
				c0.156,1.316,0.297,2.475,0.423,3.477h-11.464c-0.188-1.253-0.423-2.678-0.705-4.276c-0.281-1.598-0.486-2.772-0.611-3.523
				c-0.626,2.192-1.818,4.182-3.571,5.966C-120.767-379.372-123.146-378.481-126.153-378.481z M-121.455-387.971
				c0.814,0,1.581-0.201,2.302-0.611c0.72-0.406,1.363-0.891,1.927-1.456c0.564-0.565,0.971-1.065,1.222-1.504v-15.128
				c-1.378,0.815-2.678,1.629-3.899,2.443c-1.222,0.816-2.288,1.707-3.195,2.678c-0.909,0.972-1.597,2.021-2.068,3.148
				c-0.47,1.128-0.704,2.443-0.704,3.947c0,2.006,0.39,3.587,1.175,4.744C-123.914-388.549-122.834-387.971-121.455-387.971z"/>
			<path style="fill:#143959;" d="M-94.205-379.326v-54.313h12.779v5.45c1.941-1.879,3.994-3.397,6.155-4.557
				c2.161-1.159,4.494-1.738,7-1.738c2.255,0,4.04,0.549,5.356,1.644c1.316,1.097,2.286,2.553,2.913,4.37
				c0.626,1.818,0.94,3.79,0.94,5.92v43.224h-12.78v-40.688c0-1.628-0.251-2.881-0.752-3.758c-0.502-0.877-1.473-1.316-2.913-1.316
				c-0.877,0-1.832,0.251-2.866,0.752c-1.033,0.502-2.053,1.128-3.054,1.879v43.13H-94.205z"/>
			<path style="fill:#143959;" d="M-49.29-364.572v-9.21c2.192,0,3.978-0.125,5.356-0.375c1.378-0.251,2.38-0.69,3.007-1.316
				c0.626-0.627,0.94-1.504,0.94-2.631c0-0.816-0.205-2.098-0.611-3.853c-0.409-1.753-0.863-3.665-1.363-5.732l-11.934-45.95h12.403
				l7.047,35.802l6.108-35.802h12.309l-12.685,56.474c-0.69,3.194-1.849,5.7-3.477,7.518c-1.629,1.816-3.664,3.115-6.107,3.899
				c-2.443,0.783-5.295,1.175-8.551,1.175H-49.29z"/>
		</g>
		<g>
			
				<linearGradient id="SVGID_00000132068813078582291900000004068934706953392816_" gradientUnits="userSpaceOnUse" x1="-903.2216" y1="-472.274" x2="-903.2216" y2="-292.6446">
				<stop  offset="0.1474" style="stop-color:#0367A6"/>
				<stop  offset="1" style="stop-color:#143959"/>
			</linearGradient>
			<path style="fill:url(#SVGID_00000132068813078582291900000004068934706953392816_);" d="M-854.053-392.938
				c0,50.896-37.502,93.035-86.383,100.294c33.163-37.72,11.786-76.086-3.148-111.354c-6.732-16.691-13.414-37.055-4.538-53.17
				c10.445-18.964,31.862-20.136,44.383-3.147c9.224,12.521,6.911,40.52-24.823,51.403c26.848,0.298,56.099-12.233,50.946-49.01
				C-862.9-440.329-854.053-417.661-854.053-392.938z"/>
			
				<linearGradient id="SVGID_00000163052231633672956700000015663657833993341360_" gradientUnits="userSpaceOnUse" x1="-994.6032" y1="-564.7894" x2="-994.6032" y2="-299.9619">
				<stop  offset="0" style="stop-color:#BF2431"/>
				<stop  offset="0.7404" style="stop-color:#F28705"/>
				<stop  offset="1" style="stop-color:#F2B705"/>
			</linearGradient>
			<path style="fill:url(#SVGID_00000163052231633672956700000015663657833993341360_);" d="M-970.29-562.227
				c17.899,80.417-94.001,89.955-98.245,183.754c10.495-15.576,27.554-25.851,47.032-27.4c11.846-1.109,23.39,0.666,34.081,4.138
				c-5.633,0.153-11.177,0.488-16.581,1.299c-8.149,1.171-16.357,3.44-23.775,7.129c-5.484,2.588-10.418,6.143-14.593,10.443
				c-0.082,0.084-0.161,0.17-0.243,0.254c-0.574,0.6-1.133,1.213-1.677,1.84c-0.04,0.046-0.083,0.088-0.122,0.134
				c-0.027,0.032-0.052,0.066-0.079,0.098c-5.763,6.731-9.769,15.004-11.317,24.12c-0.008,0.045-0.016,0.089-0.024,0.134
				c-0.099,0.596-0.185,1.196-0.263,1.799c-0.036,0.272-0.072,0.544-0.104,0.817c-0.049,0.43-0.09,0.861-0.127,1.294
				c-0.04,0.45-0.075,0.9-0.103,1.35c-0.018,0.307-0.034,0.614-0.047,0.923c-0.025,0.571-0.038,1.141-0.043,1.71
				c-0.001,0.139-0.01,0.275-0.01,0.414c0,0.1,0.007,0.198,0.008,0.298c0.003,0.607,0.02,1.213,0.046,1.818
				c0.01,0.235,0.017,0.471,0.03,0.705c0.031,0.541,0.075,1.08,0.123,1.618c0.027,0.311,0.051,0.624,0.084,0.934
				c0.038,0.353,0.088,0.704,0.134,1.056c3.157,24.632,24.187,43.674,49.678,43.674c27.671,0,50.102-22.432,50.102-50.102
				c0-0.008-0.001-0.016-0.001-0.025c0.076-3.907-0.261-8.073-0.846-12.714c-1.488-10.62-6.513-22.103-9.702-32.819
				c-1.549-5.045-3.004-10.264-3.968-15.467c-3.608-18.39-2.898-38.493,5.738-55.529c5.681-11.406,14.941-21.075,26.087-27.06
				c5.605-3.087,11.884-5.24,18.342-6.35C-925.486-519.62-943.056-548.391-970.29-562.227z"/>
		</g>
	</g>
</g>
</svg>
