<?xml version="1.0" encoding="iso-8859-1"?>
<!-- Generator: Adobe Illustrator 27.6.1, SVG Export Plug-In . SVG Version: 6.00 Build 0)  -->
<svg version="1.1" xmlns="http://www.w3.org/2000/svg" xmlns:xlink="http://www.w3.org/1999/xlink" x="0px" y="0px"
	 viewBox="0 0 1006.539 543.637" style="enable-background:new 0 0 1006.539 543.637;" xml:space="preserve">
<g id="Layer_2">
</g>
<g id="Layer_1">
	<g>
		<g>
			<path style="fill:#143959;" d="M15.644,520.596v-85.011H0v-13.219h48.993v13.219H33.592v85.011H15.644z"/>
			<path style="fill:#143959;" d="M57.117,520.596v-98.23h16.493v34.805c2.426-2.426,5.073-4.325,7.944-5.7
				c2.869-1.374,6.003-2.061,9.398-2.061c2.829,0,5.094,0.708,6.792,2.122c1.697,1.416,2.95,3.295,3.759,5.639
				c0.806,2.346,1.212,4.892,1.212,7.64v55.785H86.223v-52.511c0-2.101-0.325-3.718-0.97-4.85c-0.649-1.131-1.9-1.698-3.759-1.698
				c-1.133,0-2.406,0.324-3.82,0.97c-1.416,0.648-2.771,1.497-4.063,2.546v55.543H57.117z"/>
			<path style="fill:#143959;" d="M136.065,521.686c-5.256,0-9.54-0.991-12.854-2.97c-3.316-1.981-5.761-4.892-7.338-8.733
				c-1.577-3.837-2.364-8.467-2.364-13.885v-21.101c0-5.58,0.787-10.267,2.364-14.068c1.577-3.8,4.043-6.671,7.398-8.611
				c3.353-1.941,7.619-2.91,12.794-2.91c5.579,0,9.924,1.051,13.037,3.153c3.112,2.103,5.336,5.154,6.67,9.156
				c1.335,4.001,2.002,8.874,2.002,14.613v9.943H129.88V500.1c0,2.265,0.222,4.125,0.667,5.58c0.444,1.455,1.153,2.505,2.123,3.153
				c0.969,0.648,2.141,0.969,3.516,0.969c1.455,0,2.626-0.343,3.516-1.031c0.889-0.686,1.535-1.698,1.941-3.032
				c0.404-1.334,0.606-3.01,0.606-5.032v-5.821h15.402v4.73c0,7.114-1.779,12.572-5.336,16.371
				C148.756,519.788,143.342,521.686,136.065,521.686z M129.88,478.151h12.37v-6.671c0-2.425-0.202-4.385-0.606-5.881
				c-0.406-1.496-1.051-2.586-1.941-3.275c-0.891-0.686-2.142-1.031-3.759-1.031c-1.455,0-2.628,0.364-3.516,1.092
				c-0.891,0.728-1.537,1.94-1.941,3.638c-0.405,1.697-0.606,4.124-0.606,7.277V478.151z"/>
			<path style="fill:#143959;" d="M199.489,520.596v-98.23h28.863c5.9,0,10.691,1.092,14.37,3.275
				c3.678,2.183,6.386,5.356,8.125,9.519c1.739,4.165,2.608,9.199,2.608,15.099c0,6.387-1.092,11.541-3.275,15.461
				c-2.183,3.922-5.235,6.773-9.156,8.55c-3.922,1.779-8.55,2.667-13.886,2.667h-9.701v43.659H199.489z M217.438,464.325h6.791
				c3.233,0,5.761-0.463,7.579-1.394c1.819-0.928,3.072-2.426,3.759-4.487c0.686-2.061,1.031-4.83,1.031-8.307
				c0-3.557-0.263-6.447-0.788-8.671c-0.526-2.222-1.658-3.859-3.396-4.911c-1.739-1.05-4.468-1.577-8.185-1.577h-6.791V464.325z"/>
			<path style="fill:#143959;" d="M274.92,521.686c-3.153,0-5.862-0.829-8.125-2.486c-2.265-1.655-4.002-3.758-5.216-6.304
				c-1.212-2.548-1.818-5.194-1.818-7.945c0-4.365,0.807-8.043,2.426-11.036c1.616-2.989,3.759-5.497,6.427-7.519
				c2.668-2.02,5.7-3.777,9.095-5.275c3.396-1.496,6.832-2.849,10.309-4.063v-6.063c0-2.02-0.142-3.718-0.424-5.093
				c-0.284-1.373-0.81-2.426-1.577-3.153c-0.77-0.728-1.961-1.091-3.578-1.091c-1.375,0-2.485,0.324-3.334,0.97
				c-0.849,0.648-1.455,1.557-1.819,2.728c-0.364,1.173-0.587,2.528-0.667,4.062l-0.243,4.246l-15.643-0.607
				c0.242-8.083,2.243-14.047,6.003-17.888c3.759-3.839,9.478-5.76,17.159-5.76c7.034,0,12.146,1.94,15.341,5.821
				c3.194,3.881,4.79,9.137,4.79,15.765v32.38c0,2.589,0.061,4.932,0.182,7.035c0.121,2.103,0.282,4.001,0.485,5.699
				c0.201,1.698,0.383,3.194,0.546,4.487h-14.795c-0.243-1.617-0.545-3.456-0.91-5.518c-0.363-2.062-0.627-3.577-0.788-4.547
				c-0.809,2.829-2.346,5.397-4.608,7.7C281.872,520.536,278.801,521.686,274.92,521.686z M280.984,509.438
				c1.05,0,2.041-0.26,2.971-0.788c0.929-0.524,1.759-1.15,2.486-1.879c0.728-0.729,1.253-1.374,1.577-1.941v-19.524
				c-1.779,1.052-3.456,2.103-5.032,3.153c-1.577,1.052-2.953,2.203-4.124,3.456c-1.173,1.255-2.061,2.608-2.668,4.063
				c-0.606,1.455-0.909,3.153-0.909,5.094c0,2.589,0.504,4.63,1.516,6.123C277.81,508.692,279.205,509.438,280.984,509.438z"/>
			<path style="fill:#143959;" d="M335.192,521.686c-5.903,0-10.754-1.577-14.553-4.73c-3.801-3.153-6.509-7.762-8.125-13.825
				l12.248-4.73c0.969,3.803,2.262,6.713,3.881,8.733c1.616,2.022,3.717,3.032,6.305,3.032c1.941,0,3.396-0.486,4.366-1.455
				c0.969-0.971,1.455-2.305,1.455-4.003c0-1.939-0.588-3.699-1.759-5.275c-1.173-1.577-3.173-3.535-6.003-5.88l-8.489-7.156
				c-3.073-2.667-5.56-5.397-7.458-8.185c-1.901-2.789-2.851-6.285-2.851-10.491c0-3.799,0.868-7.052,2.608-9.761
				c1.737-2.708,4.124-4.81,7.155-6.306c3.032-1.496,6.406-2.243,10.125-2.243c5.659,0,10.206,1.679,13.644,5.032
				c3.435,3.356,5.638,7.742,6.609,13.159l-10.793,4.608c-0.406-1.941-0.991-3.739-1.759-5.397
				c-0.769-1.658-1.758-3.012-2.971-4.064c-1.212-1.049-2.628-1.577-4.244-1.577c-1.698,0-3.053,0.527-4.063,1.577
				c-1.012,1.052-1.516,2.386-1.516,4.002c0,1.376,0.586,2.789,1.759,4.244c1.171,1.455,2.85,3.115,5.032,4.973l8.611,7.762
				c1.859,1.619,3.638,3.356,5.336,5.216c1.698,1.86,3.112,3.941,4.244,6.245c1.131,2.305,1.698,4.953,1.698,7.943
				c0,4.044-0.91,7.44-2.728,10.188c-1.819,2.748-4.287,4.832-7.398,6.245C342.447,520.979,338.991,521.686,335.192,521.686z"/>
			<path style="fill:#143959;" d="M383.7,521.686c-5.903,0-10.754-1.577-14.553-4.73c-3.801-3.153-6.509-7.762-8.125-13.825
				l12.248-4.73c0.969,3.803,2.262,6.713,3.881,8.733c1.616,2.022,3.717,3.032,6.305,3.032c1.941,0,3.396-0.486,4.366-1.455
				c0.969-0.971,1.455-2.305,1.455-4.003c0-1.939-0.588-3.699-1.759-5.275c-1.173-1.577-3.173-3.535-6.003-5.88l-8.489-7.156
				c-3.073-2.667-5.56-5.397-7.458-8.185c-1.901-2.789-2.851-6.285-2.851-10.491c0-3.799,0.868-7.052,2.608-9.761
				c1.737-2.708,4.124-4.81,7.155-6.306c3.032-1.496,6.406-2.243,10.125-2.243c5.659,0,10.206,1.679,13.644,5.032
				c3.435,3.356,5.638,7.742,6.609,13.159l-10.793,4.608c-0.406-1.941-0.991-3.739-1.759-5.397
				c-0.769-1.658-1.758-3.012-2.971-4.064c-1.212-1.049-2.628-1.577-4.244-1.577c-1.698,0-3.053,0.527-4.063,1.577
				c-1.012,1.052-1.516,2.386-1.516,4.002c0,1.376,0.586,2.789,1.759,4.244c1.171,1.455,2.85,3.115,5.032,4.973l8.611,7.762
				c1.859,1.619,3.638,3.356,5.336,5.216s3.112,3.941,4.244,6.245c1.131,2.305,1.698,4.953,1.698,7.943
				c0,4.044-0.91,7.44-2.728,10.188c-1.819,2.748-4.287,4.832-7.398,6.245C390.955,520.979,387.498,521.686,383.7,521.686z"/>
			<path style="fill:#143959;" d="M413.653,439.344V425.64h16.493v13.704H413.653z M413.653,520.596V450.5h16.493v70.095H413.653z"
				/>
			<path style="fill:#143959;" d="M464.463,521.686c-5.093,0-9.298-0.95-12.612-2.849c-3.316-1.9-5.802-4.67-7.459-8.307
				c-1.658-3.639-2.485-8.045-2.485-13.22v-23.527c0-5.173,0.828-9.58,2.485-13.218c1.656-3.638,4.143-6.406,7.459-8.307
				c3.314-1.898,7.519-2.85,12.612-2.85s9.317,0.951,12.673,2.85c3.353,1.9,5.86,4.669,7.519,8.307
				c1.655,3.638,2.486,8.045,2.486,13.218v23.527c0,5.175-0.831,9.581-2.486,13.22c-1.659,3.637-4.165,6.406-7.519,8.307
				C473.78,520.736,469.556,521.686,464.463,521.686z M464.585,510.288c1.859,0,3.233-0.526,4.124-1.577
				c0.888-1.05,1.455-2.486,1.697-4.306c0.243-1.819,0.364-3.82,0.364-6.004v-25.709c0-2.182-0.121-4.163-0.364-5.942
				c-0.242-1.777-0.809-3.214-1.697-4.305c-0.891-1.092-2.265-1.637-4.124-1.637c-1.861,0-3.234,0.545-4.124,1.637
				c-0.891,1.091-1.475,2.528-1.758,4.305c-0.284,1.779-0.425,3.76-0.425,5.942v25.709c0,2.184,0.141,4.184,0.425,6.004
				c0.282,1.819,0.867,3.255,1.758,4.306C461.351,509.762,462.724,510.288,464.585,510.288z"/>
			<path style="fill:#143959;" d="M498.419,520.596V450.5h16.492v7.034c2.505-2.426,5.155-4.385,7.944-5.881
				c2.789-1.496,5.8-2.243,9.034-2.243c2.91,0,5.214,0.708,6.912,2.122c1.698,1.416,2.951,3.295,3.759,5.639
				c0.807,2.346,1.213,4.892,1.213,7.64v55.785h-16.493v-52.511c0-2.101-0.324-3.718-0.97-4.85c-0.648-1.131-1.9-1.698-3.759-1.698
				c-1.132,0-2.365,0.324-3.699,0.97c-1.334,0.648-2.649,1.455-3.941,2.426v55.663H498.419z"/>
			<path style="fill:#143959;" d="M612.898,521.929c-7.197,0-12.836-1.413-16.917-4.244c-4.083-2.829-6.934-6.69-8.55-11.582
				c-1.618-4.892-2.426-10.529-2.426-16.918v-35.046c0-6.71,0.807-12.531,2.426-17.464c1.616-4.93,4.467-8.731,8.55-11.399
				c4.081-2.667,9.721-4.002,16.917-4.002c6.791,0,12.107,1.153,15.947,3.457c3.839,2.304,6.567,5.599,8.185,9.883
				c1.617,4.287,2.426,9.258,2.426,14.917v8.246h-17.22v-8.489c0-2.747-0.143-5.255-0.425-7.519
				c-0.284-2.263-1.051-4.063-2.304-5.397c-1.254-1.335-3.416-2.002-6.487-2.002c-3.073,0-5.318,0.709-6.73,2.123
				c-1.416,1.415-2.325,3.315-2.729,5.699c-0.406,2.386-0.606,5.075-0.606,8.065v42.687c0,3.558,0.282,6.487,0.849,8.793
				c0.565,2.303,1.596,4.044,3.092,5.213c1.495,1.174,3.536,1.76,6.124,1.76c2.99,0,5.112-0.707,6.366-2.122
				c1.253-1.415,2.041-3.294,2.365-5.639c0.323-2.344,0.486-4.973,0.486-7.883v-8.852h17.22v7.883
				c0,5.821-0.769,10.974-2.304,15.461c-1.536,4.487-4.225,8.004-8.064,10.55C625.246,520.655,619.85,521.929,612.898,521.929z"/>
			<path style="fill:#143959;" d="M672.077,521.686c-5.093,0-9.298-0.95-12.612-2.849c-3.316-1.9-5.802-4.67-7.459-8.307
				c-1.658-3.639-2.485-8.045-2.485-13.22v-23.527c0-5.173,0.828-9.58,2.485-13.218c1.656-3.638,4.143-6.406,7.459-8.307
				c3.314-1.898,7.519-2.85,12.612-2.85s9.317,0.951,12.673,2.85c3.353,1.9,5.86,4.669,7.519,8.307
				c1.655,3.638,2.486,8.045,2.486,13.218v23.527c0,5.175-0.831,9.581-2.486,13.22c-1.659,3.637-4.165,6.406-7.519,8.307
				C681.394,520.736,677.17,521.686,672.077,521.686z M672.199,510.288c1.859,0,3.233-0.526,4.124-1.577
				c0.888-1.05,1.455-2.486,1.697-4.306c0.243-1.819,0.364-3.82,0.364-6.004v-25.709c0-2.182-0.121-4.163-0.364-5.942
				c-0.242-1.777-0.809-3.214-1.697-4.305c-0.891-1.092-2.265-1.637-4.124-1.637c-1.861,0-3.234,0.545-4.124,1.637
				c-0.891,1.091-1.475,2.528-1.758,4.305c-0.284,1.779-0.425,3.76-0.425,5.942v25.709c0,2.184,0.141,4.184,0.425,6.004
				c0.282,1.819,0.867,3.255,1.758,4.306C668.965,509.762,670.338,510.288,672.199,510.288z"/>
			<path style="fill:#143959;" d="M706.031,520.596V450.5h15.886v6.063c2.426-2.586,5.052-4.466,7.883-5.638
				c2.829-1.172,5.699-1.759,8.611-1.759c2.747,0,5.154,0.688,7.215,2.061c2.062,1.376,3.578,3.559,4.548,6.549
				c2.669-3.072,5.498-5.275,8.489-6.61c2.99-1.334,6.063-2.001,9.217-2.001c2.505,0,4.73,0.627,6.671,1.88
				c1.94,1.254,3.475,3.113,4.607,5.578c1.131,2.467,1.698,5.56,1.698,9.277v54.694h-15.765v-53.237
				c0-2.668-0.445-4.507-1.334-5.518c-0.891-1.011-2.143-1.516-3.76-1.516c-1.293,0-2.728,0.363-4.305,1.091
				s-3.013,1.74-4.305,3.032c0,0.243,0,0.467,0,0.667c0,0.203,0,0.467,0,0.788v54.694h-15.644v-53.237
				c0-2.668-0.467-4.507-1.394-5.518c-0.93-1.011-2.204-1.516-3.82-1.516c-1.294,0-2.71,0.363-4.245,1.091
				c-1.536,0.728-2.991,1.74-4.365,3.032v56.149H706.031z"/>
			<path style="fill:#143959;" d="M793.103,543.637V450.5h16.492v5.336c2.02-1.94,4.245-3.495,6.671-4.669
				c2.424-1.171,4.972-1.758,7.64-1.758c3.153,0,5.74,0.728,7.761,2.183c2.02,1.455,3.596,3.377,4.729,5.76
				c1.131,2.386,1.92,4.933,2.365,7.64c0.444,2.711,0.667,5.317,0.667,7.822v23.77c0,4.608-0.545,8.812-1.636,12.611
				c-1.092,3.803-2.831,6.835-5.216,9.097c-2.385,2.263-5.56,3.394-9.519,3.394c-2.508,0-4.871-0.605-7.095-1.819
				c-2.224-1.212-4.347-2.746-6.367-4.608v28.379H793.103z M816.872,510.167c1.777,0,3.092-0.586,3.941-1.76
				c0.849-1.17,1.414-2.746,1.697-4.728c0.283-1.981,0.425-4.144,0.425-6.49v-25.102c0-2.184-0.163-4.142-0.485-5.882
				c-0.325-1.737-0.931-3.132-1.819-4.184c-0.891-1.049-2.183-1.577-3.881-1.577c-1.294,0-2.567,0.304-3.82,0.91
				c-1.255,0.606-2.365,1.316-3.335,2.122v44.264c1.05,0.729,2.183,1.317,3.396,1.76
				C814.203,509.945,815.496,510.167,816.872,510.167z"/>
			<path style="fill:#143959;" d="M864.41,521.686c-3.153,0-5.862-0.829-8.125-2.486c-2.265-1.655-4.002-3.758-5.216-6.304
				c-1.212-2.548-1.818-5.194-1.818-7.945c0-4.365,0.807-8.043,2.426-11.036c1.616-2.989,3.759-5.497,6.427-7.519
				c2.669-2.02,5.7-3.777,9.095-5.275c3.396-1.496,6.832-2.849,10.309-4.063v-6.063c0-2.02-0.142-3.718-0.424-5.093
				c-0.284-1.373-0.81-2.426-1.577-3.153c-0.77-0.728-1.961-1.091-3.578-1.091c-1.375,0-2.485,0.324-3.334,0.97
				c-0.849,0.648-1.455,1.557-1.819,2.728c-0.364,1.173-0.587,2.528-0.667,4.062l-0.243,4.246l-15.643-0.607
				c0.242-8.083,2.243-14.047,6.003-17.888c3.759-3.839,9.478-5.76,17.159-5.76c7.034,0,12.146,1.94,15.341,5.821
				c3.194,3.881,4.79,9.137,4.79,15.765v32.38c0,2.589,0.061,4.932,0.182,7.035c0.121,2.103,0.282,4.001,0.485,5.699
				c0.201,1.698,0.383,3.194,0.546,4.487h-14.795c-0.243-1.617-0.545-3.456-0.91-5.518c-0.363-2.062-0.627-3.577-0.788-4.547
				c-0.809,2.829-2.346,5.397-4.608,7.7C871.362,520.536,868.291,521.686,864.41,521.686z M870.474,509.438
				c1.05,0,2.041-0.26,2.971-0.788c0.929-0.524,1.759-1.15,2.486-1.879c0.728-0.729,1.253-1.374,1.577-1.941v-19.524
				c-1.779,1.052-3.456,2.103-5.032,3.153c-1.577,1.052-2.953,2.203-4.124,3.456c-1.173,1.255-2.061,2.608-2.668,4.063
				c-0.606,1.455-0.909,3.153-0.909,5.094c0,2.589,0.504,4.63,1.516,6.123C867.3,508.692,868.695,509.438,870.474,509.438z"/>
			<path style="fill:#143959;" d="M905.642,520.596V450.5h16.492v7.034c2.505-2.426,5.155-4.385,7.944-5.881
				c2.789-1.496,5.8-2.243,9.034-2.243c2.91,0,5.214,0.708,6.912,2.122c1.698,1.416,2.951,3.295,3.759,5.639
				c0.807,2.346,1.213,4.892,1.213,7.64v55.785h-16.493v-52.511c0-2.101-0.324-3.718-0.97-4.85c-0.648-1.131-1.9-1.698-3.759-1.698
				c-1.132,0-2.365,0.324-3.699,0.97c-1.334,0.648-2.649,1.455-3.941,2.426v55.663H905.642z"/>
			<path style="fill:#143959;" d="M963.609,539.636V527.75c2.829,0,5.133-0.162,6.912-0.484c1.778-0.324,3.072-0.891,3.881-1.698
				c0.807-0.81,1.213-1.941,1.213-3.396c0-1.052-0.264-2.708-0.788-4.973c-0.527-2.263-1.113-4.73-1.759-7.397L957.667,450.5h16.008
				l9.095,46.206l7.883-46.206h15.886l-16.371,72.884c-0.891,4.123-2.386,7.357-4.488,9.702c-2.103,2.344-4.729,4.02-7.882,5.032
				c-3.153,1.01-6.834,1.517-11.036,1.517H963.609z"/>
		</g>
		<g>
			<linearGradient id="SVGID_1_" gradientUnits="userSpaceOnUse" x1="578.217" y1="116.0926" x2="578.217" y2="347.9194">
				<stop  offset="0.1474" style="stop-color:#0367A6"/>
				<stop  offset="1" style="stop-color:#143959"/>
			</linearGradient>
			<path style="fill:url(#SVGID_1_);" d="M641.673,218.482c0,65.686-48.4,120.07-111.484,129.437
				c42.8-48.681,15.211-98.196-4.062-143.712c-8.688-21.541-17.312-47.823-5.856-68.62c13.481-24.475,41.121-25.987,57.28-4.062
				c11.904,16.159,8.919,52.295-32.036,66.339c34.65,0.384,72.401-15.787,65.75-63.251
				C630.255,157.32,641.673,186.575,641.673,218.482z"/>
			
				<linearGradient id="SVGID_00000078012596152100328160000002255945256516280196_" gradientUnits="userSpaceOnUse" x1="460.2814" y1="-3.3064" x2="460.2814" y2="338.4758">
				<stop  offset="0" style="stop-color:#BF2431"/>
				<stop  offset="0.7404" style="stop-color:#F28705"/>
				<stop  offset="1" style="stop-color:#F2B705"/>
			</linearGradient>
			<path style="fill:url(#SVGID_00000078012596152100328160000002255945256516280196_);" d="M491.66,0
				c23.101,103.785-121.316,116.094-126.793,237.149c13.545-20.102,35.561-33.362,60.699-35.362
				c15.288-1.431,30.187,0.859,43.985,5.34c-7.27,0.197-14.425,0.63-21.399,1.676c-10.517,1.512-21.11,4.44-30.683,9.2
				c-7.078,3.34-13.446,7.928-18.833,13.477c-0.105,0.108-0.208,0.219-0.313,0.328c-0.741,0.774-1.462,1.565-2.164,2.375
				c-0.051,0.059-0.107,0.113-0.158,0.173c-0.035,0.042-0.067,0.085-0.102,0.126c-7.438,8.687-12.608,19.364-14.605,31.128
				c-0.01,0.058-0.021,0.115-0.031,0.173c-0.128,0.769-0.239,1.543-0.34,2.321c-0.047,0.351-0.093,0.702-0.134,1.054
				c-0.063,0.554-0.116,1.111-0.164,1.67c-0.052,0.581-0.097,1.161-0.132,1.742c-0.024,0.396-0.044,0.793-0.061,1.191
				c-0.032,0.737-0.049,1.472-0.056,2.207c-0.001,0.179-0.014,0.355-0.014,0.534c0,0.129,0.009,0.255,0.01,0.384
				c0.004,0.783,0.026,1.565,0.059,2.346c0.013,0.304,0.022,0.608,0.039,0.91c0.039,0.698,0.096,1.393,0.159,2.088
				c0.035,0.402,0.065,0.805,0.108,1.205c0.05,0.456,0.114,0.909,0.173,1.363c4.075,31.79,31.215,56.365,64.113,56.365
				c35.711,0,64.661-28.95,64.661-64.661c0-0.011-0.001-0.021-0.001-0.032c0.098-5.042-0.337-10.419-1.091-16.408
				c-1.921-13.706-8.405-28.526-12.521-42.355c-1.999-6.512-3.876-13.247-5.121-19.961c-4.656-23.734-3.74-49.679,7.406-71.665
				c7.332-14.72,19.283-27.199,33.668-34.923c7.234-3.984,15.337-6.762,23.672-8.196C549.483,54.989,526.807,17.857,491.66,0z"/>
		</g>
	</g>
</g>
</svg>
